<svg xmlns="http://www.w3.org/2000/svg">
	<defs>

		<symbol id="select" viewBox="0 0 20 21" fill="none">
			<path d="M10 13L14 8.5H6L10 13Z" fill="#002033" fill-opacity="0.35"/>
			<rect x="0.5" y="1" width="19" height="19" rx="3.5" stroke="#002033" stroke-opacity="0.35"/>
		</symbol>

		<symbol id="fire" fill="none" viewBox="0 0 13 15" >
			<path d="M12.1663 9.62523C12.1663 12.6388 10.3119 13.9612 8.87881 14.4072C8.57323 14.5023 8.3724 14.146 8.55519 13.8833C9.17881 12.9871 9.89968 11.6198 9.89968 10.3336C9.89968 8.95189 8.73513 7.32067 7.82576 6.31455C7.61786 6.08453 7.25523 6.23673 7.24389 6.54658C7.20633 7.57309 7.04434 8.94649 6.34584 10.0229C6.23341 10.1961 5.99474 10.2105 5.86664 10.0485C5.64839 9.77245 5.43015 9.43147 5.2119 9.16212C5.09434 9.01703 4.88187 9.01503 4.74627 9.14343C4.2176 9.64401 3.47745 10.4246 3.47745 11.3961C3.47745 12.0968 3.8114 12.969 4.15564 13.6443C4.31196 13.9511 4.02195 14.3109 3.72402 14.1384C2.42363 13.3856 0.833008 11.8259 0.833008 9.62523C0.833008 7.39649 3.88613 4.30906 5.05188 1.39221C5.23583 0.931938 5.80274 0.715659 6.19703 1.01602C8.58496 2.83506 12.1663 6.35139 12.1663 9.62523Z" stroke="currentColor" />
		</symbol>

		<symbol id="gas" fill="none" viewBox="0 0 17 13">
			<path d="M4.45271 12.4583C2.77613 12.4583 1.41699 11.1152 1.41699 9.45833C1.41699 7.80148 2.77613 6.45833 4.45271 6.45833C4.65396 6.45833 4.85064 6.47769 5.04094 6.51461M10.1868 4.68594C10.6088 4.53854 11.063 4.45833 11.536 4.45833C11.9998 4.45833 12.4453 4.5354 12.8602 4.67728M5.04094 6.51461C4.87866 6.08177 4.79001 5.61362 4.79001 5.125C4.79001 2.91586 6.60219 1.125 8.83763 1.125C10.9199 1.125 12.6349 2.67888 12.8602 4.67728M5.04094 6.51461C5.44074 6.59219 5.8124 6.74733 6.13921 6.96352M12.8602 4.67728C14.4453 5.21933 15.5837 6.70746 15.5837 8.45833C15.5837 10.3758 14.2184 11.9781 12.3962 12.3678" stroke="currentColor" stroke-linecap="round"/>
			<path d="M9.91634 12.4585H8.49967L7.08301 12.4585" stroke="currentColor" stroke-linecap="round"/>
		</symbol>

		<symbol id="arrow-left" viewBox="0 0 5 10">
			<path fill-rule="evenodd" clip-rule="evenodd" d="M0.00260422 5L4.10597 -3.12739e-08L4.83594 0.889471L1.46254 5L4.83594 9.11053L4.10597 10L0.00260422 5Z" fill="#96A5AE"/>
		</symbol>

		<symbol id="arrow-right" viewBox="0 0 5 10">
			<path fill-rule="evenodd" clip-rule="evenodd" d="M4.83333 5L0.729965 10L0 9.11053L3.3734 5L5.89824e-07 0.889471L0.729966 0L4.83333 5Z" fill="#96A5AE"/>
		</symbol>

		<symbol id="sorting" viewBox="0 0 10 7">
			<path d="M4 0V1L0 1V0H4Z" fill="#5C8197"/>
			<path d="M7 4V3L0 3V4L7 4Z" fill="#5C8197"/>
			<path d="M10 7V6L0 6V7L10 7Z" fill="#5C8197"/>
		</symbol>

		<symbol id="filter" viewBox="0 0 7 7">
			<path d="M6.9 0H0.1C0.0447715 0 0 0.0447715 0 0.1V0.917157C0 0.970201 0.0210715 1.02107 0.0585787 1.05858L2.97071 3.97071C2.98946 3.98946 3 4.0149 3 4.04142V6.75858C3 6.84767 3.10771 6.89229 3.17071 6.82929L3.97071 6.02929C3.98946 6.01054 4 5.9851 4 5.95858V4.04142C4 4.0149 4.01054 3.98946 4.02929 3.97071L6.94142 1.05858C6.97893 1.02107 7 0.970201 7 0.917157V0.1C7 0.0447715 6.95523 0 6.9 0Z" fill="#33617D" fill-opacity="0.8"/>
		</symbol>

		<symbol id="search" viewBox="0 0 10 10">
			<path fill-rule="evenodd" clip-rule="evenodd" d="M6.4528 7.15995C5.77546 7.68647 4.92434 8 4 8C1.79086 8 0 6.20914 0 4C0 1.79086 1.79086 0 4 0C6.20914 0 8 1.79086 8 4C8 4.92437 7.68645 5.7755 7.15991 6.45285L10.004 9.2969L9.29686 10.004L6.4528 7.15995ZM7 4C7 5.65685 5.65685 7 4 7C2.34315 7 1 5.65685 1 4C1 2.34315 2.34315 1 4 1C5.65685 1 7 2.34315 7 4Z" fill="#597E95"/>
		</symbol>

		<symbol id="arrow-down" viewBox="0 0 10 6">
			<path fill-rule="evenodd" clip-rule="evenodd" d="M5 6L0 0.906164L0.889471 0L5 4.18767L9.11053 7.32196e-07L10 0.906165L5 6Z" fill="#B8CAD5"/>
		</symbol>
		<symbol id="arrow-up" viewBox="0 0 10 6">
			<path fill-rule="evenodd" clip-rule="evenodd" d="M5 -2.74886e-08L10 5.09384L9.11053 6L5 1.81233L0.889471 6L2.36334e-08 5.09384L5 -2.74886e-08Z" fill="#B8CAD5"/>
		</symbol>
		<symbol id="filtration" viewBox="0 0 14 14" fill="none">
			<path fill-rule="evenodd" clip-rule="evenodd" d="M2.41421 1L1 2.41422L5.24264 6.65686L1 10.8995L2.41421 12.3137L6.65685 8.07107L10.8995 12.3137L12.3137 10.8995L8.07107 6.65685L12.3137 2.41421L10.8995 1L6.65685 5.24264L2.41421 1Z" fill="#EB5757" stroke="#FCE6E6"/>
		</symbol>
		
		<symbol id="export" viewBox="0 0 16 14" fill="none">
			<path d="M2 2C2 0.89543 2.89543 0 4 0H14C15.1046 0 16 0.895431 16 2V12C16 13.1046 15.1046 14 14 14H4C2.89543 14 2 13.1046 2 12V2Z" fill="none"/>
			<path d="M2.5 2C2.5 1.17157 3.17157 0.5 4 0.5H14C14.8284 0.5 15.5 1.17157 15.5 2V12C15.5 12.8284 14.8284 13.5 14 13.5H4C3.17157 13.5 2.5 12.8284 2.5 12V2Z" stroke="#66889D" stroke-opacity="0.6" stroke-linejoin="round"/>
			<rect x="1" y="3" width="3" height="8" fill="#EFFFEF"/>
			<path d="M1 7H9M9 7L6 4M9 7L6 10" stroke="#66889D" stroke-opacity="0.6"/>
		</symbol>

		

		<symbol id="refresh" viewBox="0 0 12 12" fill="none">
			<path d="M1.98123 1.77231L0.604818 0.166504L0.0214844 4.24984H4.10482L2.74175 2.6596C3.58283 1.83887 4.7327 1.33317 6.00068 1.33317C8.57801 1.33317 10.6673 3.42251 10.6673 5.99984C10.6673 8.57717 8.57801 10.6665 6.00068 10.6665C4.09942 10.6665 2.46371 9.52952 1.7364 7.8984L0.671639 8.37247C1.20458 9.56946 2.12499 10.5522 3.28457 11.1623C4.44415 11.7723 5.77536 11.9743 7.06369 11.7355C8.35203 11.4967 9.52246 10.8311 10.3864 9.84602C11.2503 8.86091 11.7574 7.61361 11.826 6.30513C11.8946 4.99665 11.5206 3.70319 10.7644 2.63316C10.0082 1.56313 8.91373 0.778863 7.65741 0.406724C6.40109 0.0345846 5.05607 0.0962495 3.83907 0.581782C3.14494 0.858714 2.51551 1.26434 1.98123 1.77231Z" fill="#A6B1B8"/>
		</symbol>


		<symbol id="calendar" viewBox="0 0 12 12" fill="none" >
			<path fill-rule="evenodd" clip-rule="evenodd" d="M3.5 1C3.22386 1 3 1.22386 3 1.5V2H2C1.44772 2 1 2.44772 1 3V10C1 10.5523 1.44772 11 2 11H10C10.5523 11 11 10.5523 11 10V3C11 2.44772 10.5523 2 10 2H9V1.5C9 1.22386 8.77614 1 8.5 1C8.22386 1 8 1.22386 8 1.5V2H4V1.5C4 1.22386 3.77614 1 3.5 1ZM10 4H2L2 10H10V4Z" fill="#000" fill-opacity="1"/>
		</symbol>

		<symbol id="task-new" viewBox="0 0 12 12" fill="none">
			<path d="M11.501 5.48588C11.4488 7.32437 10.6668 8.57857 9.6794 9.37501C8.67602 10.1843 7.45412 10.525 6.54885 10.5002C5.82847 10.4805 5.39461 10.4042 4.8797 10.2322C4.79051 10.2024 4.71216 10.2024 4.67413 10.2038C4.62945 10.2054 4.58916 10.2113 4.55829 10.2169C4.49661 10.2282 4.43253 10.2459 4.37439 10.2637C4.25633 10.2998 4.11047 10.3529 3.95556 10.4113C3.85528 10.4491 3.74921 10.4899 3.63854 10.5325C3.39488 10.6262 3.12893 10.7285 2.85341 10.8265C2.45279 10.9689 2.06771 11.0889 1.75972 11.1454C1.64295 11.1668 1.55003 11.1766 1.47965 11.1781C1.47682 11.1001 1.47915 10.9985 1.48808 10.8729C1.51242 10.5301 1.57917 10.0896 1.65688 9.63028C1.68418 9.46892 1.71308 9.30395 1.74148 9.14181C1.79167 8.85528 1.8403 8.57761 1.87583 8.34444C1.90382 8.16068 1.92648 7.98728 1.93576 7.84495C1.94036 7.77446 1.94259 7.69884 1.93776 7.62705C1.93482 7.58329 1.92696 7.48356 1.881 7.37861C1.63913 6.71961 1.50082 6.31104 1.50082 5.50006C1.50082 2.67408 3.70563 0.557645 6.55018 0.49996C9.34124 0.44336 11.5713 3.00865 11.501 5.48588ZM1.36541 11.1697C1.36543 11.1697 1.366 11.1699 1.36705 11.1702L1.36541 11.1697Z" stroke="#EB5757"/>
			<path d="M6.5 3.5V5.5" stroke="#EB5757" stroke-linecap="round"/>
			<circle cx="6.5" cy="7.5" r="0.5" fill="#EB5757"/>
		</symbol>

		<symbol id="task-process" viewBox="0 0 12 12" fill="none">
			<path d="M11.501 5.48588C11.4488 7.32437 10.6668 8.57857 9.6794 9.37501C8.67602 10.1843 7.45412 10.525 6.54885 10.5002C5.82847 10.4805 5.39461 10.4042 4.8797 10.2322C4.79051 10.2024 4.71216 10.2024 4.67413 10.2038C4.62945 10.2054 4.58916 10.2113 4.55829 10.2169C4.49661 10.2282 4.43253 10.2459 4.37439 10.2637C4.25633 10.2998 4.11047 10.3529 3.95556 10.4113C3.85528 10.4491 3.74921 10.4899 3.63854 10.5325C3.39488 10.6262 3.12893 10.7285 2.85341 10.8265C2.45279 10.9689 2.06771 11.0889 1.75972 11.1454C1.64295 11.1668 1.55003 11.1766 1.47965 11.1781C1.47682 11.1001 1.47915 10.9985 1.48808 10.8729C1.51242 10.5301 1.57917 10.0896 1.65688 9.63028C1.68418 9.46892 1.71308 9.30395 1.74148 9.14181C1.79167 8.85528 1.8403 8.57761 1.87583 8.34444C1.90382 8.16068 1.92648 7.98728 1.93576 7.84495C1.94036 7.77446 1.94259 7.69884 1.93776 7.62705C1.93482 7.58329 1.92696 7.48356 1.881 7.37861C1.63913 6.71961 1.50082 6.31104 1.50082 5.50006C1.50082 2.67408 3.70563 0.557645 6.55018 0.49996C9.34124 0.44336 11.5713 3.00865 11.501 5.48588ZM1.36541 11.1697C1.36543 11.1697 1.366 11.1699 1.36705 11.1702L1.36541 11.1697Z" stroke="#002033" stroke-opacity="0.6"/>
		</symbol>
		
		<symbol id="task-wait" viewBox="0 0 12 12" fill="none">
			<path d="M11.501 5.48588C11.4488 7.32437 10.6668 8.57857 9.6794 9.37501C8.67602 10.1843 7.45412 10.525 6.54885 10.5002C5.82847 10.4805 5.39461 10.4042 4.8797 10.2322C4.79051 10.2024 4.71216 10.2024 4.67413 10.2038C4.62945 10.2054 4.58916 10.2113 4.55829 10.2169C4.49661 10.2282 4.43253 10.2459 4.37439 10.2637C4.25633 10.2998 4.11047 10.3529 3.95556 10.4113C3.85528 10.4491 3.74921 10.4899 3.63854 10.5325C3.39488 10.6262 3.12893 10.7285 2.85341 10.8265C2.45279 10.9689 2.06771 11.0889 1.75972 11.1454C1.64295 11.1668 1.55003 11.1766 1.47965 11.1781C1.47682 11.1001 1.47915 10.9985 1.48808 10.8729C1.51242 10.5301 1.57917 10.0896 1.65688 9.63028C1.68418 9.46892 1.71308 9.30395 1.74148 9.14181C1.79167 8.85528 1.8403 8.57761 1.87583 8.34444C1.90382 8.16068 1.92648 7.98728 1.93576 7.84495C1.94036 7.77446 1.94259 7.69884 1.93776 7.62705C1.93482 7.58329 1.92696 7.48356 1.881 7.37861C1.63913 6.71961 1.50082 6.31104 1.50082 5.50006C1.50082 2.67408 3.70563 0.557645 6.55018 0.49996C9.34124 0.44336 11.5713 3.00865 11.501 5.48588ZM1.36541 11.1697C1.36543 11.1697 1.366 11.1699 1.36705 11.1702L1.36541 11.1697Z" stroke="#F2994A"/>
		</symbol>

		<symbol id="task-ready" viewBox="0 0 12 12" fill="none">
			<path d="M11.501 5.48588C11.4488 7.32437 10.6668 8.57857 9.6794 9.37501C8.67602 10.1843 7.45412 10.525 6.54885 10.5002C5.82847 10.4805 5.39461 10.4042 4.8797 10.2322C4.79051 10.2024 4.71216 10.2024 4.67413 10.2038C4.62945 10.2054 4.58916 10.2113 4.55829 10.2169C4.49661 10.2282 4.43253 10.2459 4.37439 10.2637C4.25633 10.2998 4.11047 10.3529 3.95556 10.4113C3.85528 10.4491 3.74921 10.4899 3.63854 10.5325C3.39488 10.6262 3.12893 10.7285 2.85341 10.8265C2.45279 10.9689 2.06771 11.0889 1.75972 11.1454C1.64295 11.1668 1.55003 11.1766 1.47965 11.1781C1.47682 11.1001 1.47915 10.9985 1.48808 10.8729C1.51242 10.5301 1.57917 10.0896 1.65688 9.63028C1.68418 9.46892 1.71308 9.30395 1.74148 9.14181C1.79167 8.85528 1.8403 8.57761 1.87583 8.34444C1.90382 8.16068 1.92648 7.98728 1.93576 7.84495C1.94036 7.77446 1.94259 7.69884 1.93776 7.62705C1.93482 7.58329 1.92696 7.48356 1.881 7.37861C1.63913 6.71961 1.50082 6.31104 1.50082 5.50006C1.50082 2.67408 3.70563 0.557645 6.55018 0.49996C9.34124 0.44336 11.5713 3.00865 11.501 5.48588ZM1.36541 11.1697C1.36543 11.1697 1.366 11.1699 1.36705 11.1702L1.36541 11.1697Z" stroke="#22C38E"/>
			<path d="M4.5 5.5L6 7L8.5 4.5" stroke="#22C38E" stroke-linecap="round" stroke-linejoin="round"/>
		</symbol>

		<symbol id="task-message-arrow-right" viewBox="0 0 6 8" fill="none">
			<path fill-rule="evenodd" clip-rule="evenodd" d="M5.3457 4.00026L1.37083 7.97514L0.663724 7.26803L3.93149 4.00026L0.663724 0.732498L1.37083 0.0253907L5.3457 4.00026Z" fill="#002033" fill-opacity="0.6"/>
		</symbol>

		<symbol id="task-message-cancel" viewBox="0 0 12 11" fill="none">
			<path d="M1.33226 0.0407505L5.99998 4.7508L10.6674 0.0407535C10.6932 0.0146733 10.7285 0 10.7652 0H11.8232C11.8992 0 11.9608 0.0615609 11.9608 0.1375C11.9608 0.173733 11.9465 0.208501 11.921 0.234248L6.72258 5.48L11.9602 10.7658C12.0136 10.8197 12.0132 10.9068 11.9592 10.9602C11.9334 10.9857 11.8987 11 11.8624 11H10.8047C10.768 11 10.7328 10.9853 10.7069 10.9592L5.99998 6.20921L1.29274 10.9592C1.2669 10.9853 1.2317 11 1.19497 11H0.137606C0.0616085 11 0 10.9384 0 10.8625C0 10.8263 0.0143108 10.7915 0.0398219 10.7658L5.27738 5.48L0.079019 0.234247C0.0255457 0.180286 0.0259747 0.0932272 0.0799773 0.0397952C0.105743 0.0143013 0.140539 0 0.176799 0H1.23448C1.27121 0 1.30641 0.0146723 1.33226 0.0407505Z" fill="#EB5757"/>
		</symbol>
		<symbol id="task-message-send" viewBox="0 0 16 11" fill="none">
			<path d="M14.7142 0.5H1.28585C0.851835 0.5 0.5 0.85127 0.5 1.28458V9.71542C0.5 10.1487 0.851835 10.5 1.28585 10.5H14.7142C15.1482 10.5 15.5 10.1487 15.5 9.71542V1.28458C15.5 0.85127 15.1482 0.5 14.7142 0.5Z" stroke="#006FBA" stroke-width="0.75" stroke-linecap="round" stroke-linejoin="round"/>
			<path d="M0.832031 0.678711L7.9977 7.24444L15.253 0.785387" stroke="#006FBA" stroke-width="0.75" stroke-linecap="round" stroke-linejoin="round"/>
			<path d="M0.835938 10.3176L6.0301 5.5" stroke="#006FBA" stroke-width="0.75" stroke-linecap="round" stroke-linejoin="round"/>
			<path d="M15.2528 10.3176L10.0586 5.5" stroke="#006FBA" stroke-width="0.75" stroke-linecap="round" stroke-linejoin="round"/>
		</symbol>

		<symbol id="back-alarm-table-stat-arrow" viewBox="0 0 8 10" fill="none">
			<path d="M4.16675 9L4.16675 1M4.16675 1L1.16675 4M4.16675 1L7.16675 4" stroke="currentColor" stroke-linecap="round" stroke-linejoin="round"/>
		</symbol>

		<symbol id="tag-modal-save" viewBox="0 0 15 11" fill="none" >
			<path fill-rule="evenodd" clip-rule="evenodd" d="M5.97001 8.94303L0.938913 4.72143L0 5.84039L6.14899 11L14.592 0.938022L13.4741 0L5.97001 8.94303Z" fill="#00C800"/>
		</symbol>
		<symbol id="tag-modal-cancel" viewBox="0 0 12 11" fill="none">
			<path d="M1.33226 0.0407505L5.99998 4.7508L10.6674 0.0407535C10.6932 0.0146733 10.7285 0 10.7652 0H11.8232C11.8992 0 11.9608 0.0615609 11.9608 0.1375C11.9608 0.173733 11.9465 0.208501 11.921 0.234248L6.72258 5.48L11.9602 10.7658C12.0136 10.8197 12.0132 10.9068 11.9592 10.9602C11.9334 10.9857 11.8987 11 11.8624 11H10.8047C10.768 11 10.7328 10.9853 10.7069 10.9592L5.99998 6.20921L1.29274 10.9592C1.2669 10.9853 1.2317 11 1.19497 11H0.137606C0.0616085 11 0 10.9384 0 10.8625C0 10.8263 0.0143108 10.7915 0.0398219 10.7658L5.27738 5.48L0.079019 0.234247C0.0255457 0.180286 0.0259747 0.0932272 0.0799773 0.0397952C0.105743 0.0143013 0.140539 0 0.176799 0H1.23448C1.27121 0 1.30641 0.0146723 1.33226 0.0407505Z" fill="#EB5757"/>
		</symbol>
		<symbol id="tag-modal-close" viewBox="0 0 8 8" fill="none">
			<path fill-rule="evenodd" clip-rule="evenodd" d="M1 0L0 1L3 4L0 7L1 8L4 5L7 8L8 7L5 4L8 1L7 0L4 3L1 0Z" fill="#33617D" fill-opacity="0.6"/>
		</symbol>
		<symbol id="tag-modal-add" viewBox="0 0 11 11" fill="none">
			<path fill-rule="evenodd" clip-rule="evenodd" d="M5.5 -1.18385e-08C5.77614 -5.30028e-09 6 0.108825 6 0.243068L6 10.7569C6 10.8912 5.77614 11 5.5 11C5.22386 11 5 10.8912 5 10.7569L5 0.243068C5 0.108825 5.22386 -1.83767e-08 5.5 -1.18385e-08Z" fill="#00C800"/>
			<path fill-rule="evenodd" clip-rule="evenodd" d="M1.18385e-08 5.5C5.30028e-09 5.77614 0.108825 6 0.243068 6L10.7569 6C10.8912 6 11 5.77614 11 5.5C11 5.22386 10.8912 5 10.7569 5L0.243068 5C0.108825 5 1.83767e-08 5.22386 1.18385e-08 5.5Z" fill="#00C800"/>
		</symbol>
		<symbol id="tag-modal-send" viewBox="0 0 16 11" fill="none">
			<path d="M14.7142 0.5H1.28585C0.851835 0.5 0.5 0.85127 0.5 1.28458V9.71542C0.5 10.1487 0.851835 10.5 1.28585 10.5H14.7142C15.1482 10.5 15.5 10.1487 15.5 9.71542V1.28458C15.5 0.85127 15.1482 0.5 14.7142 0.5Z" stroke="#006FBA" stroke-width="0.75" stroke-linecap="round" stroke-linejoin="round"/>
			<path d="M0.832031 0.678711L7.9977 7.24444L15.253 0.785387" stroke="#006FBA" stroke-width="0.75" stroke-linecap="round" stroke-linejoin="round"/>
			<path d="M0.835938 10.3176L6.0301 5.5" stroke="#006FBA" stroke-width="0.75" stroke-linecap="round" stroke-linejoin="round"/>
			<path d="M15.2528 10.3176L10.0586 5.5" stroke="#006FBA" stroke-width="0.75" stroke-linecap="round" stroke-linejoin="round"/>
		</symbol>
		<symbol id="tag-modal-send-to-journal" viewBox="0 0 13 15" fill="none">
			<rect x="0.503906" y="0.5" width="11.9883" height="14" rx="1.5" stroke="#006FBA"/>
			<path d="M3.0332 7.5H8.22891" stroke="#006FBA" stroke-linecap="round"/>
			<path d="M3.0332 3.9707H9.96029" stroke="#006FBA" stroke-linecap="round"/>
			<path d="M3.0332 11.0293H7.36327" stroke="#006FBA" stroke-linecap="round"/>
		</symbol>
		<symbol id="tag-modal-delete" viewBox="0 0 15 11" fill="none">
			<path fill-rule="evenodd" clip-rule="evenodd" d="M5.97001 8.94303L0.938913 4.72143L0 5.84039L6.14899 11L14.592 0.938022L13.4741 0L5.97001 8.94303Z" fill="#002033"/>
		</symbol>
		<symbol id="tag-modal-attention" viewBox="0 0 14 13" fill="none">
			<path d="M13 6.5C13 9.81371 10.3137 12.5 7 12.5C3.68629 12.5 1 9.81371 1 6.5C1 3.18629 3.68629 0.5 7 0.5C10.3137 0.5 13 3.18629 13 6.5Z" stroke="#EB5757"/>
			<rect x="6.5" y="3" width="1" height="5" rx="0.5" fill="#EB5757"/>
			<circle cx="7" cy="9.5" r="0.5" fill="#EB5757"/>
		</symbol>


		<symbol id="tag-table-attention" viewBox="0 0 9 10" fill="none">
			<circle cx="4.5" cy="5" r="4.5" fill="#EB5757"/>
			<circle cx="4.5" cy="7" r="0.5" fill="white"/>
			<rect x="4" y="2.5" width="1" height="3" rx="0.5" fill="white"/>
		</symbol>
		
		<symbol id="tag-table-reglament" viewBox="0 0 17 14" fill="none">
			<path d="M0.5 11.5C0.5 11.0235 0.500479 10.6995 0.523079 10.4502C0.545056 10.2077 0.584753 10.0853 0.633975 10C0.721743 9.84798 0.847981 9.72174 1 9.63397C1.08525 9.58475 1.2077 9.54506 1.45018 9.52308C1.69954 9.50048 2.02349 9.5 2.5 9.5C2.97651 9.5 3.30046 9.50048 3.54982 9.52308C3.7923 9.54506 3.91475 9.58475 4 9.63397C4.15202 9.72174 4.27826 9.84798 4.36602 10L4.79904 9.75L4.36603 10C4.41525 10.0853 4.45494 10.2077 4.47692 10.4502C4.49952 10.6995 4.5 11.0235 4.5 11.5C4.5 11.9765 4.49952 12.3005 4.47692 12.5498C4.45494 12.7923 4.41525 12.9147 4.36603 13C4.27826 13.152 4.15202 13.2783 4 13.366C3.91475 13.4152 3.7923 13.4549 3.54982 13.4769C3.30046 13.4995 2.97651 13.5 2.5 13.5C2.02349 13.5 1.69954 13.4995 1.45018 13.4769C1.2077 13.4549 1.08526 13.4152 1 13.366L0.75 13.799L1 13.366C0.847981 13.2783 0.721743 13.152 0.633975 13C0.584753 12.9147 0.545056 12.7923 0.523079 12.5498C0.500479 12.3005 0.5 11.9765 0.5 11.5Z" stroke="currentColor"/>
			<path d="M6.5 11.5C6.5 11.0235 6.50048 10.6995 6.52308 10.4502C6.54506 10.2077 6.58475 10.0853 6.63397 10C6.72174 9.84798 6.84798 9.72174 7 9.63397C7.08525 9.58475 7.2077 9.54506 7.45018 9.52308C7.69954 9.50048 8.02349 9.5 8.5 9.5C8.97651 9.5 9.30046 9.50048 9.54982 9.52308C9.7923 9.54506 9.91475 9.58475 10 9.63397C10.152 9.72174 10.2783 9.84798 10.366 10L10.799 9.75L10.366 10C10.4152 10.0853 10.4549 10.2077 10.4769 10.4502C10.4995 10.6995 10.5 11.0235 10.5 11.5C10.5 11.9765 10.4995 12.3005 10.4769 12.5498C10.4549 12.7923 10.4152 12.9147 10.366 13C10.2783 13.152 10.152 13.2783 10 13.366C9.91475 13.4152 9.7923 13.4549 9.54982 13.4769C9.30046 13.4995 8.97651 13.5 8.5 13.5C8.02349 13.5 7.69954 13.4995 7.45018 13.4769C7.2077 13.4549 7.08526 13.4152 7 13.366L6.75 13.799L7 13.366C6.84798 13.2783 6.72174 13.152 6.63397 13C6.58475 12.9147 6.54506 12.7923 6.52308 12.5498C6.50048 12.3005 6.5 11.9765 6.5 11.5Z" stroke="currentColor"/>
			<path d="M12.5 11.5C12.5 11.0235 12.5005 10.6995 12.5231 10.4502C12.5451 10.2077 12.5848 10.0853 12.634 10C12.7217 9.84798 12.848 9.72174 13 9.63397C13.0853 9.58475 13.2077 9.54506 13.4502 9.52308C13.6995 9.50048 14.0235 9.5 14.5 9.5C14.9765 9.5 15.3005 9.50048 15.5498 9.52308C15.7923 9.54506 15.9147 9.58475 16 9.63397C16.152 9.72174 16.2783 9.84798 16.366 10L16.799 9.75L16.366 10C16.4152 10.0853 16.4549 10.2077 16.4769 10.4502C16.4995 10.6995 16.5 11.0235 16.5 11.5C16.5 11.9765 16.4995 12.3005 16.4769 12.5498C16.4549 12.7923 16.4152 12.9147 16.366 13C16.2783 13.152 16.152 13.2783 16 13.366C15.9147 13.4152 15.7923 13.4549 15.5498 13.4769C15.3005 13.4995 14.9765 13.5 14.5 13.5C14.0235 13.5 13.6995 13.4995 13.4502 13.4769C13.2077 13.4549 13.0853 13.4152 13 13.366L12.75 13.799L13 13.366C12.848 13.2783 12.7217 13.152 12.634 13C12.5848 12.9147 12.5451 12.7923 12.5231 12.5498C12.5005 12.3005 12.5 11.9765 12.5 11.5Z" stroke="currentColor"/>
			<path d="M2.5 9.50006V4.50006C2.5 2.53587 2.5 1.72039 3.11019 1.11019C3.72039 0.5 4.70248 0.5 6.66667 0.5L10.3333 0.5C12.2975 0.5 13.2796 0.5 13.8898 1.11019C14.5 1.72039 14.5 2.53587 14.5 4.50006V7.00006M14.5 7.00006L16.1667 5.33339M14.5 7.00006L12.8333 5.33339" stroke="currentColor" stroke-linecap="round" stroke-linejoin="round"/>
		</symbol>

		<symbol id="tag-table-add" viewBox="0 0 13 13" fill="none">
			<path fill-rule="evenodd" clip-rule="evenodd" d="M6.5 0C6.77614 0 7 0.128612 7 0.287262V12.7127C7 12.8714 6.77614 13 6.5 13C6.22386 13 6 12.8714 6 12.7127V0.287262C6 0.128612 6.22386 0 6.5 0Z" fill="white"/>
			<path fill-rule="evenodd" clip-rule="evenodd" d="M0 6.5C0 6.77614 0.128612 7 0.287262 7H12.7127C12.8714 7 13 6.77614 13 6.5C13 6.22386 12.8714 6 12.7127 6H0.287262C0.128612 6 0 6.22386 0 6.5Z" fill="white"/>
		</symbol>
		<symbol id="tag-table-edit" viewBox="0 0 12 12" fill="none">
			<path d="M12 3L9 0L7.58578 1.41422L10.5858 4.41422L12 3Z" fill="#002033" fill-opacity="0.3"/>
			<path d="M9.87868 5.12132L6.87868 2.12132L0 9.00001V12H3L9.87868 5.12132Z" fill="#002033" fill-opacity="0.3"/>
		</symbol>
		<symbol id="tag-table-correct" viewBox="0 0 14 12" fill="none">
			<path d="M1.4 0C0.626801 0 0 0.671573 0 1.5V2.35047L7 6.63619L14 2.35047V1.5C14 0.671573 13.3732 0 12.6 0H1.4Z" fill="#0078D2" fill-opacity="0.5"/>
			<path d="M14 4.0781L7 8.36381L0 4.0781V10.5C0 11.3284 0.626802 12 1.4 12H12.6C13.3732 12 14 11.3284 14 10.5V4.0781Z" fill="#0078D2" fill-opacity="0.5"/>
		</symbol>
		<symbol id="tag-table-delete" viewBox="0 0 14 14" fill="none">
			<path fill-rule="evenodd" clip-rule="evenodd" d="M7 14C10.866 14 14 10.866 14 7C14 3.13401 10.866 0 7 0C3.13401 0 0 3.13401 0 7C0 10.866 3.13401 14 7 14ZM7 5.727L9.4657 3.26022C9.81717 2.90875 10.387 2.90875 10.7385 3.26022C11.09 3.6117 11.09 4.18154 10.7385 4.53302L8.272 7.001L10.7385 9.46999C11.09 9.82146 11.09 10.3913 10.7385 10.7428C10.387 11.0943 9.81717 11.0943 9.4657 10.7428L7 8.275L4.5357 10.7428C4.18423 11.0943 3.61438 11.0943 3.26291 10.7428C2.91144 10.3913 2.91144 9.82146 3.26291 9.46999L5.728 7.001L3.26291 4.53302C2.91144 4.18154 2.91144 3.6117 3.26291 3.26022C3.61438 2.90875 4.18423 2.90875 4.5357 3.26022L7 5.727Z" fill="#EB5757" fill-opacity="0.6"/>
		</symbol>

		<symbol id="legend" viewBox="0 0 8 13" fill="none">
			<path d="M7.766 3.676C7.766 4.576 7.388 5.26 6.884 5.926L5.552 7.69C5.372 7.924 5.228 8.302 5.228 8.608V8.986H2.888V8.446C2.888 7.672 3.104 7.186 3.572 6.574L4.904 4.864C5.192 4.486 5.426 4.054 5.426 3.658C5.426 2.812 4.868 2.182 3.968 2.182C3.014 2.182 2.528 2.848 2.528 3.676H0.188C0.188 1.444 1.88 0.075999 3.968 0.075999C6.002 0.075999 7.766 1.39 7.766 3.676ZM5.3 13H2.816V10.606H5.3V13Z" fill="#CED4D9"/>
		</symbol>

		<symbol id="settings-add-line" viewBox="0 0 14 14" fill="none">
			<path fill-rule="evenodd" clip-rule="evenodd" d="M7 0.5C7.27614 0.5 7.5 0.628612 7.5 0.787262V13.2127C7.5 13.3714 7.27614 13.5 7 13.5C6.72386 13.5 6.5 13.3714 6.5 13.2127V0.787262C6.5 0.628612 6.72386 0.5 7 0.5Z" fill="#00C800"/>
			<path fill-rule="evenodd" clip-rule="evenodd" d="M0.5 7C0.5 7.27614 0.628612 7.5 0.787262 7.5H13.2127C13.3714 7.5 13.5 7.27614 13.5 7C13.5 6.72386 13.3714 6.5 13.2127 6.5H0.787262C0.628612 6.5 0.5 6.72386 0.5 7Z" fill="#00C800"/>
		</symbol>

		<symbol id="settings-delete-line" viewBox="0 0 12 12" fill="none">
			<path fill-rule="evenodd" clip-rule="evenodd" d="M0.5 6C0.5 6.27614 0.608825 6.5 0.743068 6.5H11.2569C11.3912 6.5 11.5 6.27614 11.5 6C11.5 5.72386 11.3912 5.5 11.2569 5.5H0.743068C0.608825 5.5 0.5 5.72386 0.5 6Z" fill="#EB5757"/>
		</symbol>

		<symbol id="settings-edit" viewBox="0 0 14 12" fill="none">
			<path d="M4 7.91696V10H6.08304L12.2266 3.85641L10.1436 1.77336L4 7.91696ZM13.8375 2.24552C14.0542 2.02888 14.0542 1.67893 13.8375 1.4623L12.5377 0.162477C12.3211 -0.0541591 11.9711 -0.0541591 11.7545 0.162477L10.738 1.179L12.821 3.26205L13.8375 2.24552Z" fill="#66889D" fill-opacity="0.6"/>
			<path d="M0 11.5H12" stroke="#66889D" stroke-opacity="0.6"/>
		</symbol>
		
		<symbol id="archive" viewBox="0 0 400 400" fill="none">
			<path id="path0" d="M196.700 49.886 C 196.590 49.931,175.620 50.022,150.100 50.088 C 96.237 50.227,94.741 50.247,92.500 50.830 C 90.185 51.433,87.169 52.954,85.300 54.461 C 83.615 55.820,80.506 59.043,78.339 61.676 C 77.987 62.103,77.493 62.666,77.241 62.926 C 76.988 63.187,76.824 63.400,76.875 63.400 C 76.927 63.400,76.625 63.757,76.206 64.194 C 75.481 64.948,73.444 67.405,71.330 70.075 C 70.796 70.749,70.295 71.345,70.215 71.400 C 70.135 71.455,69.094 72.715,67.901 74.200 C 66.708 75.685,65.230 77.494,64.616 78.221 C 64.002 78.947,62.375 80.918,61.000 82.600 C 59.625 84.283,58.185 86.039,57.800 86.503 C 57.415 86.968,56.920 87.601,56.700 87.911 C 56.480 88.221,56.112 88.705,55.882 88.987 C 55.259 89.752,53.742 92.336,53.116 93.700 C 52.812 94.360,52.396 95.260,52.190 95.700 C 51.668 96.817,50.386 100.400,50.508 100.400 C 50.564 100.400,50.476 100.603,50.313 100.852 C 49.991 101.344,49.955 319.707,50.277 322.300 C 50.596 324.868,52.014 329.273,53.302 331.700 C 54.798 334.515,56.130 336.600,56.433 336.600 C 56.525 336.600,56.600 336.698,56.600 336.818 C 56.600 337.309,59.550 340.584,61.090 341.803 C 61.714 342.296,62.511 342.955,62.862 343.267 C 63.213 343.579,63.762 343.971,64.081 344.139 C 64.401 344.306,64.842 344.610,65.062 344.814 C 66.059 345.743,72.496 348.603,74.700 349.096 C 74.920 349.145,75.775 349.368,76.600 349.590 C 78.196 350.020,305.971 350.219,318.300 349.801 C 324.673 349.585,326.799 349.084,331.900 346.594 C 333.423 345.850,336.600 343.811,336.600 343.577 C 336.600 343.480,336.722 343.400,336.872 343.400 C 337.258 343.400,341.203 339.610,342.614 337.883 C 346.294 333.380,348.840 327.845,349.645 322.600 C 349.816 321.486,349.890 292.862,349.932 211.253 L 349.989 101.405 349.003 98.707 C 347.949 95.826,346.752 93.214,345.828 91.781 C 344.064 89.045,343.011 87.454,342.729 87.100 C 342.554 86.880,341.727 85.823,340.892 84.750 C 340.057 83.678,339.296 82.800,339.200 82.800 C 339.105 82.800,338.975 82.642,338.912 82.450 C 338.849 82.258,338.428 81.695,337.977 81.200 C 337.526 80.705,336.830 79.895,336.429 79.400 C 336.028 78.905,335.605 78.410,335.489 78.300 C 335.373 78.190,334.894 77.588,334.425 76.963 C 333.955 76.338,333.371 75.618,333.127 75.363 C 332.883 75.108,332.374 74.495,331.996 74.000 C 331.619 73.505,331.261 73.055,331.200 73.000 C 331.139 72.945,330.779 72.495,330.400 72.000 C 329.641 71.009,328.792 69.971,326.737 67.523 C 325.988 66.631,325.088 65.550,324.737 65.122 C 316.535 55.108,310.631 50.702,304.900 50.319 C 301.433 50.087,197.231 49.671,196.700 49.886 M294.700 67.110 C 299.054 67.244,300.200 67.496,300.200 68.320 C 300.200 68.406,300.539 68.797,300.953 69.188 C 301.368 69.580,301.903 70.153,302.143 70.463 C 302.382 70.773,303.866 72.385,305.439 74.046 C 307.925 76.669,309.011 77.821,312.100 81.113 C 312.430 81.465,312.964 82.033,313.287 82.376 L 313.875 83.000 200.027 83.000 L 86.180 83.000 86.740 82.250 C 87.048 81.838,87.463 81.320,87.663 81.100 C 87.863 80.880,88.403 80.206,88.863 79.602 C 89.323 78.998,89.955 78.218,90.268 77.868 C 90.580 77.518,90.817 77.202,90.795 77.166 C 90.773 77.130,91.130 76.695,91.588 76.200 C 92.046 75.705,92.571 75.052,92.754 74.750 C 92.937 74.448,93.157 74.200,93.243 74.200 C 93.329 74.200,93.400 74.065,93.400 73.900 C 93.400 73.735,93.475 73.600,93.566 73.600 C 93.657 73.600,94.265 72.912,94.916 72.072 C 95.567 71.231,96.351 70.263,96.659 69.922 C 96.966 69.580,97.641 68.730,98.159 68.034 L 99.100 66.768 195.200 66.887 C 248.055 66.952,292.830 67.052,294.700 67.110 M233.200 183.601 L 233.200 200.401 261.830 200.397 C 277.577 200.395,290.495 200.428,290.537 200.471 C 290.580 200.513,289.571 201.572,288.295 202.824 C 287.020 204.076,284.256 206.900,282.154 209.100 C 280.052 211.300,278.257 213.078,278.166 213.050 C 278.075 213.023,278.023 213.105,278.050 213.234 C 278.078 213.362,277.898 213.573,277.651 213.702 C 277.404 213.830,277.262 213.995,277.335 214.068 C 277.407 214.141,277.339 214.209,277.183 214.221 C 277.027 214.232,275.325 215.893,273.400 217.911 C 271.475 219.929,269.793 221.585,269.662 221.590 C 269.531 221.596,269.359 221.704,269.281 221.831 C 269.192 221.974,269.226 222.008,269.369 221.919 C 269.746 221.686,269.632 221.910,269.166 222.319 C 268.927 222.529,268.797 222.588,268.877 222.450 C 269.214 221.875,268.787 222.298,267.394 223.921 C 266.581 224.867,265.705 225.722,265.446 225.820 C 265.188 225.919,265.032 226.089,265.100 226.200 C 265.168 226.310,265.083 226.400,264.912 226.400 C 264.740 226.400,264.600 226.469,264.600 226.554 C 264.600 226.827,261.907 229.499,261.700 229.431 C 261.590 229.396,261.568 229.434,261.650 229.517 C 261.837 229.704,261.231 230.400,260.881 230.400 C 260.739 230.400,260.559 230.504,260.481 230.631 C 260.386 230.784,260.427 230.807,260.600 230.700 C 260.773 230.593,260.814 230.616,260.719 230.769 C 260.641 230.896,260.463 231.000,260.324 231.000 C 260.185 231.000,259.808 231.335,259.486 231.746 C 258.676 232.776,257.800 233.690,257.800 233.505 C 257.800 233.420,257.666 233.462,257.502 233.598 C 257.338 233.734,257.257 233.931,257.322 234.036 C 257.387 234.141,257.252 234.276,257.022 234.336 C 256.793 234.396,256.627 234.503,256.655 234.573 C 256.710 234.712,254.254 237.160,254.035 237.185 C 253.961 237.193,253.896 237.313,253.891 237.450 C 253.886 237.588,253.751 237.670,253.591 237.633 C 253.431 237.597,253.367 237.633,253.448 237.715 C 253.641 237.907,253.210 238.430,252.977 238.286 C 252.880 238.226,252.800 238.303,252.800 238.458 C 252.800 238.903,251.094 240.681,250.825 240.516 C 250.696 240.436,250.603 240.444,250.619 240.535 C 250.704 241.027,250.575 241.233,250.256 241.111 C 250.067 241.038,249.977 241.044,250.057 241.123 C 250.239 241.306,249.625 242.000,249.281 242.000 C 249.139 242.000,248.959 242.104,248.881 242.231 C 248.784 242.388,248.828 242.407,249.019 242.293 C 249.260 242.148,249.260 242.173,249.021 242.466 C 248.868 242.655,248.707 242.774,248.663 242.730 C 248.619 242.686,247.575 243.696,246.342 244.973 C 245.109 246.251,244.033 247.274,243.950 247.248 C 243.868 247.222,243.821 247.268,243.846 247.350 C 243.922 247.593,243.137 248.422,242.650 248.613 C 242.403 248.711,242.200 248.927,242.200 249.095 C 242.200 249.263,242.092 249.400,241.961 249.400 C 241.722 249.400,240.602 250.375,240.598 250.587 C 240.592 250.838,235.686 255.695,235.500 255.633 C 235.390 255.597,235.368 255.634,235.450 255.717 C 235.657 255.924,234.996 256.621,234.742 256.464 C 234.630 256.395,234.594 256.428,234.662 256.538 C 234.822 256.798,233.725 257.854,233.504 257.653 C 233.412 257.569,233.393 257.600,233.463 257.723 C 233.533 257.846,233.392 258.116,233.149 258.323 C 232.712 258.695,232.711 258.695,232.997 258.300 C 233.157 258.080,232.360 258.868,231.226 260.050 C 230.092 261.233,228.789 262.528,228.332 262.929 C 227.874 263.330,227.635 263.586,227.800 263.498 C 227.965 263.410,227.840 263.618,227.522 263.960 C 227.204 264.301,226.848 264.563,226.731 264.541 C 226.614 264.518,226.510 264.635,226.500 264.800 C 226.490 264.965,226.367 265.075,226.226 265.045 C 226.085 265.015,226.017 265.065,226.073 265.157 C 226.170 265.313,225.064 266.496,224.815 266.503 C 224.514 266.511,224.208 266.851,224.328 267.045 C 224.408 267.175,224.369 267.204,224.229 267.118 C 224.097 267.037,223.941 267.120,223.868 267.311 C 223.797 267.497,223.325 268.020,222.819 268.474 C 220.670 270.405,219.000 272.085,219.000 272.316 C 219.000 272.453,218.723 272.797,218.385 273.082 C 218.046 273.367,217.835 273.600,217.916 273.600 C 217.996 273.600,217.899 273.780,217.700 274.000 C 217.501 274.220,217.212 274.400,217.057 274.400 C 216.903 274.400,216.817 274.468,216.868 274.550 C 216.918 274.632,216.728 274.873,216.446 275.084 C 216.165 275.295,216.008 275.349,216.098 275.203 C 216.207 275.027,216.185 274.986,216.031 275.081 C 215.904 275.159,215.800 275.368,215.800 275.545 C 215.800 275.722,215.737 275.804,215.660 275.726 C 215.498 275.564,210.400 280.586,210.400 280.908 C 210.400 281.247,209.092 282.424,208.905 282.254 C 208.812 282.169,208.794 282.202,208.866 282.327 C 208.937 282.452,208.862 282.666,208.698 282.802 C 208.534 282.938,208.400 282.989,208.400 282.917 C 208.400 282.844,208.274 282.900,208.121 283.042 C 207.968 283.184,207.883 283.368,207.933 283.450 C 207.983 283.532,207.944 283.600,207.847 283.600 C 207.749 283.600,205.922 285.297,203.786 287.372 C 200.412 290.651,199.871 291.102,199.658 290.822 C 199.523 290.645,199.410 290.581,199.406 290.679 C 199.403 290.778,199.191 290.633,198.935 290.357 C 198.680 290.081,198.230 289.698,197.935 289.505 C 197.412 289.162,197.155 288.636,197.650 288.920 C 197.795 289.004,197.830 288.988,197.733 288.882 C 197.642 288.782,197.519 288.700,197.460 288.700 C 197.401 288.700,196.239 287.564,194.876 286.176 C 193.514 284.788,192.400 283.696,192.400 283.751 C 192.400 283.805,192.266 283.738,192.102 283.602 C 191.938 283.466,191.853 283.276,191.913 283.180 C 191.972 283.083,191.899 283.051,191.749 283.109 C 191.443 283.226,190.327 282.080,190.490 281.816 C 190.548 281.722,190.439 281.523,190.248 281.373 C 189.926 281.121,189.923 281.129,190.200 281.491 C 190.365 281.706,189.150 280.505,187.500 278.822 C 185.850 277.139,184.470 275.681,184.433 275.581 C 184.397 275.481,184.235 275.400,184.074 275.400 C 183.765 275.400,180.780 272.475,180.847 272.238 C 180.878 272.131,178.120 269.385,175.260 266.675 C 175.127 266.550,175.082 266.377,175.160 266.292 C 175.237 266.206,175.189 266.200,175.053 266.278 C 174.721 266.469,171.917 263.697,172.116 263.375 C 172.201 263.237,172.176 263.191,172.058 263.264 C 171.945 263.334,171.684 263.197,171.477 262.961 C 171.270 262.725,171.217 262.600,171.359 262.683 C 171.501 262.766,170.750 261.994,169.690 260.967 C 168.630 259.940,167.634 259.027,167.477 258.938 C 167.320 258.848,167.245 258.689,167.311 258.583 C 167.376 258.477,167.311 258.415,167.165 258.445 C 167.019 258.475,166.925 258.381,166.955 258.235 C 166.986 258.087,166.913 258.030,166.791 258.105 C 166.489 258.292,164.527 256.280,164.715 255.976 C 164.800 255.839,164.777 255.791,164.661 255.862 C 164.498 255.963,163.542 255.120,163.626 254.949 C 163.639 254.922,162.131 253.420,160.275 251.610 C 156.154 247.594,156.418 247.860,156.900 248.210 C 157.270 248.478,157.279 248.473,157.026 248.150 C 156.875 247.957,156.645 247.800,156.515 247.800 C 156.216 247.800,155.102 246.624,154.924 246.121 C 154.851 245.913,154.746 245.788,154.691 245.842 C 154.599 245.934,151.945 243.291,151.083 242.250 C 150.879 242.003,150.596 241.800,150.456 241.800 C 150.315 241.800,150.200 241.670,150.200 241.512 C 150.200 241.353,150.096 241.159,149.969 241.081 C 149.813 240.984,149.792 241.029,149.905 241.219 C 149.997 241.374,149.764 241.202,149.386 240.838 C 149.009 240.474,148.700 240.069,148.700 239.938 C 148.700 239.807,148.610 239.699,148.500 239.697 C 148.178 239.693,147.203 238.756,147.322 238.565 C 147.381 238.469,147.356 238.414,147.265 238.442 C 147.084 238.500,139.608 230.993,139.603 230.750 C 139.601 230.668,139.460 230.600,139.288 230.600 C 139.117 230.600,139.032 230.510,139.100 230.400 C 139.168 230.290,139.092 230.200,138.931 230.200 C 138.769 230.200,137.917 229.397,137.036 228.416 C 136.155 227.435,135.396 226.670,135.349 226.717 C 135.303 226.764,135.092 226.601,134.882 226.355 C 134.504 225.911,134.504 225.910,134.900 226.203 C 135.270 226.478,135.280 226.474,135.026 226.150 C 134.875 225.957,134.643 225.800,134.510 225.800 C 134.261 225.800,133.357 224.936,133.448 224.785 C 133.477 224.738,132.971 224.172,132.324 223.527 C 131.677 222.881,131.221 222.472,131.310 222.616 C 131.566 223.031,130.241 222.026,129.912 221.556 C 129.750 221.325,129.672 221.046,129.739 220.937 C 129.808 220.825,129.760 220.801,129.629 220.882 C 129.502 220.961,129.351 220.907,129.295 220.763 C 129.238 220.618,124.737 216.009,119.292 210.521 C 113.847 205.032,109.424 200.509,109.463 200.470 C 109.503 200.431,122.419 200.399,138.167 200.399 L 166.800 200.399 166.800 183.599 L 166.800 166.800 200.000 166.800 L 233.200 166.800 233.200 183.601 " stroke="none" fill="#444c54" fill-rule="evenodd"></path>
			<path id="path1" d="M127.050 50.146 C 127.463 50.189,128.138 50.189,128.550 50.146 C 128.963 50.103,128.625 50.067,127.800 50.067 C 126.975 50.067,126.638 50.103,127.050 50.146 M290.150 50.141 C 290.397 50.189,290.803 50.189,291.050 50.141 C 291.298 50.093,291.095 50.054,290.600 50.054 C 290.105 50.054,289.903 50.093,290.150 50.141 M254.750 66.949 C 255.878 66.985,257.723 66.985,258.850 66.949 C 259.978 66.914,259.055 66.884,256.800 66.884 C 254.545 66.884,253.623 66.914,254.750 66.949 M50.057 102.300 C 50.059 102.850,50.098 103.051,50.144 102.747 C 50.189 102.443,50.188 101.993,50.141 101.747 C 50.093 101.501,50.056 101.750,50.057 102.300 M349.854 103.200 C 349.854 103.695,349.893 103.897,349.941 103.650 C 349.989 103.403,349.989 102.998,349.941 102.750 C 349.893 102.503,349.854 102.705,349.854 103.200 M112.800 204.100 C 113.397 204.705,113.931 205.200,113.986 205.200 C 114.041 205.200,113.597 204.705,113.000 204.100 C 112.403 203.495,111.869 203.000,111.814 203.000 C 111.759 203.000,112.203 203.495,112.800 204.100 M117.900 209.200 C 118.553 209.860,119.132 210.400,119.187 210.400 C 119.242 210.400,118.753 209.860,118.100 209.200 C 117.447 208.540,116.868 208.000,116.813 208.000 C 116.758 208.000,117.247 208.540,117.900 209.200 M278.215 212.907 C 277.739 213.398,277.433 213.800,277.534 213.800 C 277.779 213.800,279.301 212.235,279.177 212.111 C 279.124 212.057,278.691 212.416,278.215 212.907 M270.207 220.927 C 269.826 221.297,269.605 221.600,269.718 221.600 C 269.830 221.600,270.227 221.285,270.600 220.900 C 271.465 220.008,271.129 220.031,270.207 220.927 M129.200 220.482 C 129.200 220.755,130.259 222.015,130.829 222.421 C 131.688 223.032,131.522 222.735,130.300 221.473 C 129.695 220.849,129.200 220.403,129.200 220.482 M265.969 225.200 C 265.623 225.530,265.427 225.800,265.533 225.800 C 265.639 225.800,265.984 225.530,266.300 225.200 C 266.616 224.870,266.812 224.600,266.736 224.600 C 266.659 224.600,266.314 224.870,265.969 225.200 M133.800 225.300 C 134.058 225.575,134.343 225.800,134.434 225.800 C 134.524 225.800,134.402 225.575,134.163 225.300 C 133.924 225.025,133.638 224.800,133.529 224.800 C 133.420 224.800,133.542 225.025,133.800 225.300 M137.200 228.548 C 137.200 228.792,138.772 230.295,138.897 230.170 C 138.954 230.113,138.596 229.686,138.100 229.222 C 137.605 228.758,137.200 228.455,137.200 228.548 M261.540 229.609 C 261.130 230.044,260.869 230.400,260.958 230.400 C 261.185 230.400,262.494 229.028,262.379 228.912 C 262.327 228.860,261.950 229.174,261.540 229.609 M258.234 232.864 C 257.615 233.522,257.696 233.713,258.340 233.115 C 258.638 232.840,258.833 232.566,258.774 232.508 C 258.716 232.449,258.473 232.610,258.234 232.864 M147.128 238.591 C 149.076 240.596,150.131 241.587,149.904 241.200 C 149.642 240.752,145.925 237.003,145.741 237.001 C 145.654 237.001,146.278 237.716,147.128 238.591 M253.316 237.811 C 253.105 238.024,252.977 238.243,253.032 238.298 C 253.087 238.353,253.343 238.174,253.601 237.899 C 254.147 237.318,253.886 237.237,253.316 237.811 M250.944 240.200 C 249.981 241.190,249.271 242.000,249.367 242.000 C 249.624 242.000,252.800 238.870,252.800 238.616 C 252.800 238.289,252.817 238.275,250.944 240.200 M155.000 246.384 C 155.000 246.574,156.377 247.893,156.463 247.786 C 156.501 247.739,156.188 247.373,155.766 246.973 C 155.345 246.574,155.000 246.309,155.000 246.384 M243.489 247.700 C 242.987 248.195,242.649 248.598,242.738 248.596 C 242.937 248.591,244.735 246.800,244.541 246.800 C 244.465 246.800,243.992 247.205,243.489 247.700 M156.944 248.415 C 157.189 248.669,157.439 248.827,157.501 248.766 C 157.562 248.704,157.362 248.496,157.056 248.303 L 156.500 247.952 156.944 248.415 M234.893 256.261 C 232.544 258.676,232.421 259.001,234.705 256.758 C 235.792 255.689,236.638 254.772,236.585 254.718 C 236.532 254.665,235.770 255.359,234.893 256.261 M164.034 255.550 C 165.134 256.788,167.251 258.814,167.690 259.047 C 167.915 259.166,167.102 258.260,165.883 257.032 C 163.737 254.871,162.674 254.020,164.034 255.550 M172.265 263.850 C 172.869 264.538,173.746 265.415,174.215 265.800 C 174.683 266.185,175.248 266.703,175.469 266.950 C 175.691 267.197,175.962 267.400,176.072 267.400 C 176.182 267.400,175.185 266.320,173.857 265.000 C 171.220 262.379,170.541 261.889,172.265 263.850 M226.263 264.905 C 225.427 265.733,224.779 266.446,224.824 266.490 C 224.868 266.534,225.623 265.857,226.502 264.985 C 227.381 264.114,228.029 263.400,227.941 263.400 C 227.854 263.400,227.098 264.077,226.263 264.905 M181.208 272.750 C 182.057 273.726,183.849 275.400,184.045 275.400 C 184.150 275.400,183.530 274.681,182.668 273.802 C 181.185 272.290,180.177 271.564,181.208 272.750 M217.434 273.679 C 215.977 275.181,215.612 275.710,216.479 275.059 C 216.743 274.862,216.918 274.632,216.868 274.550 C 216.817 274.468,216.903 274.400,217.057 274.400 C 217.212 274.400,217.501 274.220,217.700 274.000 C 217.899 273.780,218.002 273.600,217.928 273.600 C 217.854 273.600,218.088 273.337,218.447 273.017 C 218.806 272.696,219.047 272.381,218.983 272.317 C 218.919 272.253,218.222 272.866,217.434 273.679 M189.851 281.343 C 190.637 282.295,192.249 283.818,192.356 283.711 C 192.457 283.610,189.702 280.800,189.503 280.800 C 189.448 280.800,189.605 281.045,189.851 281.343 M209.310 281.810 C 208.781 282.362,208.387 282.854,208.436 282.903 C 208.484 282.951,208.963 282.545,209.500 282.000 C 210.037 281.455,210.430 280.963,210.374 280.907 C 210.318 280.852,209.839 281.258,209.310 281.810 M206.193 284.950 L 205.100 286.100 206.250 285.007 C 206.882 284.406,207.400 283.888,207.400 283.857 C 207.400 283.708,207.209 283.882,206.193 284.950 M197.384 288.970 C 197.510 289.206,197.687 289.400,197.776 289.400 C 197.866 289.400,198.267 289.719,198.669 290.110 C 199.071 290.500,199.400 290.762,199.400 290.692 C 199.400 290.494,198.365 289.421,197.727 288.957 L 197.154 288.540 197.384 288.970 M312.450 349.938 C 312.643 349.988,312.957 349.988,313.150 349.938 C 313.343 349.888,313.185 349.846,312.800 349.846 C 312.415 349.846,312.257 349.888,312.450 349.938 " stroke="none" fill="#445454" fill-rule="evenodd"></path>
		</symbol>
		
	</defs>
</svg>