<svg xmlns="http://www.w3.org/2000/svg">
	<defs>

		<symbol id="select" viewBox="0 0 20 21" fill="none">
			<path d="M10 13L14 8.5H6L10 13Z" fill="#002033" fill-opacity="0.35"/>
			<rect x="0.5" y="1" width="19" height="19" rx="3.5" stroke="#002033" stroke-opacity="0.35"/>
		</symbol>

		<symbol id="fire" fill="none" viewBox="0 0 13 15" >
			<path d="M12.1663 9.62523C12.1663 12.6388 10.3119 13.9612 8.87881 14.4072C8.57323 14.5023 8.3724 14.146 8.55519 13.8833C9.17881 12.9871 9.89968 11.6198 9.89968 10.3336C9.89968 8.95189 8.73513 7.32067 7.82576 6.31455C7.61786 6.08453 7.25523 6.23673 7.24389 6.54658C7.20633 7.57309 7.04434 8.94649 6.34584 10.0229C6.23341 10.1961 5.99474 10.2105 5.86664 10.0485C5.64839 9.77245 5.43015 9.43147 5.2119 9.16212C5.09434 9.01703 4.88187 9.01503 4.74627 9.14343C4.2176 9.64401 3.47745 10.4246 3.47745 11.3961C3.47745 12.0968 3.8114 12.969 4.15564 13.6443C4.31196 13.9511 4.02195 14.3109 3.72402 14.1384C2.42363 13.3856 0.833008 11.8259 0.833008 9.62523C0.833008 7.39649 3.88613 4.30906 5.05188 1.39221C5.23583 0.931938 5.80274 0.715659 6.19703 1.01602C8.58496 2.83506 12.1663 6.35139 12.1663 9.62523Z" stroke="currentColor" />
		</symbol>

		<symbol id="gas" fill="none" viewBox="0 0 17 13">
			<path d="M4.45271 12.4583C2.77613 12.4583 1.41699 11.1152 1.41699 9.45833C1.41699 7.80148 2.77613 6.45833 4.45271 6.45833C4.65396 6.45833 4.85064 6.47769 5.04094 6.51461M10.1868 4.68594C10.6088 4.53854 11.063 4.45833 11.536 4.45833C11.9998 4.45833 12.4453 4.5354 12.8602 4.67728M5.04094 6.51461C4.87866 6.08177 4.79001 5.61362 4.79001 5.125C4.79001 2.91586 6.60219 1.125 8.83763 1.125C10.9199 1.125 12.6349 2.67888 12.8602 4.67728M5.04094 6.51461C5.44074 6.59219 5.8124 6.74733 6.13921 6.96352M12.8602 4.67728C14.4453 5.21933 15.5837 6.70746 15.5837 8.45833C15.5837 10.3758 14.2184 11.9781 12.3962 12.3678" stroke="currentColor" stroke-linecap="round"/>
			<path d="M9.91634 12.4585H8.49967L7.08301 12.4585" stroke="currentColor" stroke-linecap="round"/>
		</symbol>

		<symbol id="arrow-left" viewBox="0 0 5 10">
			<path fill-rule="evenodd" clip-rule="evenodd" d="M0.00260422 5L4.10597 -3.12739e-08L4.83594 0.889471L1.46254 5L4.83594 9.11053L4.10597 10L0.00260422 5Z" fill="#96A5AE"/>
		</symbol>

		<symbol id="arrow-right" viewBox="0 0 5 10">
			<path fill-rule="evenodd" clip-rule="evenodd" d="M4.83333 5L0.729965 10L0 9.11053L3.3734 5L5.89824e-07 0.889471L0.729966 0L4.83333 5Z" fill="#96A5AE"/>
		</symbol>

		<symbol id="sorting" viewBox="0 0 10 7">
			<path d="M4 0V1L0 1V0H4Z" fill="#5C8197"/>
			<path d="M7 4V3L0 3V4L7 4Z" fill="#5C8197"/>
			<path d="M10 7V6L0 6V7L10 7Z" fill="#5C8197"/>
		</symbol>

		<symbol id="filter" viewBox="0 0 7 7">
			<path d="M6.9 0H0.1C0.0447715 0 0 0.0447715 0 0.1V0.917157C0 0.970201 0.0210715 1.02107 0.0585787 1.05858L2.97071 3.97071C2.98946 3.98946 3 4.0149 3 4.04142V6.75858C3 6.84767 3.10771 6.89229 3.17071 6.82929L3.97071 6.02929C3.98946 6.01054 4 5.9851 4 5.95858V4.04142C4 4.0149 4.01054 3.98946 4.02929 3.97071L6.94142 1.05858C6.97893 1.02107 7 0.970201 7 0.917157V0.1C7 0.0447715 6.95523 0 6.9 0Z" fill="#33617D" fill-opacity="0.8"/>
		</symbol>

		<symbol id="search" viewBox="0 0 10 10">
			<path fill-rule="evenodd" clip-rule="evenodd" d="M6.4528 7.15995C5.77546 7.68647 4.92434 8 4 8C1.79086 8 0 6.20914 0 4C0 1.79086 1.79086 0 4 0C6.20914 0 8 1.79086 8 4C8 4.92437 7.68645 5.7755 7.15991 6.45285L10.004 9.2969L9.29686 10.004L6.4528 7.15995ZM7 4C7 5.65685 5.65685 7 4 7C2.34315 7 1 5.65685 1 4C1 2.34315 2.34315 1 4 1C5.65685 1 7 2.34315 7 4Z" fill="#597E95"/>
		</symbol>

		<symbol id="arrow-down" viewBox="0 0 10 6">
			<path fill-rule="evenodd" clip-rule="evenodd" d="M5 6L0 0.906164L0.889471 0L5 4.18767L9.11053 7.32196e-07L10 0.906165L5 6Z" fill="#B8CAD5"/>
		</symbol>
		<symbol id="arrow-up" viewBox="0 0 10 6">
			<path fill-rule="evenodd" clip-rule="evenodd" d="M5 -2.74886e-08L10 5.09384L9.11053 6L5 1.81233L0.889471 6L2.36334e-08 5.09384L5 -2.74886e-08Z" fill="#B8CAD5"/>
		</symbol>
		<symbol id="filtration" viewBox="0 0 14 14" fill="none">
			<path fill-rule="evenodd" clip-rule="evenodd" d="M2.41421 1L1 2.41422L5.24264 6.65686L1 10.8995L2.41421 12.3137L6.65685 8.07107L10.8995 12.3137L12.3137 10.8995L8.07107 6.65685L12.3137 2.41421L10.8995 1L6.65685 5.24264L2.41421 1Z" fill="#EB5757" stroke="#FCE6E6"/>
		</symbol>
		
		<symbol id="export" viewBox="0 0 16 14" fill="none">
			<path d="M2 2C2 0.89543 2.89543 0 4 0H14C15.1046 0 16 0.895431 16 2V12C16 13.1046 15.1046 14 14 14H4C2.89543 14 2 13.1046 2 12V2Z" fill="none"/>
			<path d="M2.5 2C2.5 1.17157 3.17157 0.5 4 0.5H14C14.8284 0.5 15.5 1.17157 15.5 2V12C15.5 12.8284 14.8284 13.5 14 13.5H4C3.17157 13.5 2.5 12.8284 2.5 12V2Z" stroke="#66889D" stroke-opacity="0.6" stroke-linejoin="round"/>
			<rect x="1" y="3" width="3" height="8" fill="#EFFFEF"/>
			<path d="M1 7H9M9 7L6 4M9 7L6 10" stroke="#66889D" stroke-opacity="0.6"/>
		</symbol>











	</defs>
</svg>