<svg xmlns="http://www.w3.org/2000/svg">
	<defs>

		<symbol id="select" viewBox="0 0 20 21" fill="none">
			<path d="M10 13L14 8.5H6L10 13Z" fill="#002033" fill-opacity="0.35"/>
			<rect x="0.5" y="1" width="19" height="19" rx="3.5" stroke="#002033" stroke-opacity="0.35"/>
		</symbol>

		<symbol id="fire" fill="none" viewBox="0 0 13 15" >
			<path d="M12.1663 9.62523C12.1663 12.6388 10.3119 13.9612 8.87881 14.4072C8.57323 14.5023 8.3724 14.146 8.55519 13.8833C9.17881 12.9871 9.89968 11.6198 9.89968 10.3336C9.89968 8.95189 8.73513 7.32067 7.82576 6.31455C7.61786 6.08453 7.25523 6.23673 7.24389 6.54658C7.20633 7.57309 7.04434 8.94649 6.34584 10.0229C6.23341 10.1961 5.99474 10.2105 5.86664 10.0485C5.64839 9.77245 5.43015 9.43147 5.2119 9.16212C5.09434 9.01703 4.88187 9.01503 4.74627 9.14343C4.2176 9.64401 3.47745 10.4246 3.47745 11.3961C3.47745 12.0968 3.8114 12.969 4.15564 13.6443C4.31196 13.9511 4.02195 14.3109 3.72402 14.1384C2.42363 13.3856 0.833008 11.8259 0.833008 9.62523C0.833008 7.39649 3.88613 4.30906 5.05188 1.39221C5.23583 0.931938 5.80274 0.715659 6.19703 1.01602C8.58496 2.83506 12.1663 6.35139 12.1663 9.62523Z" stroke="currentColor" />
		</symbol>

		<symbol id="gas" fill="none" viewBox="0 0 17 13">
			<path d="M4.45271 12.4583C2.77613 12.4583 1.41699 11.1152 1.41699 9.45833C1.41699 7.80148 2.77613 6.45833 4.45271 6.45833C4.65396 6.45833 4.85064 6.47769 5.04094 6.51461M10.1868 4.68594C10.6088 4.53854 11.063 4.45833 11.536 4.45833C11.9998 4.45833 12.4453 4.5354 12.8602 4.67728M5.04094 6.51461C4.87866 6.08177 4.79001 5.61362 4.79001 5.125C4.79001 2.91586 6.60219 1.125 8.83763 1.125C10.9199 1.125 12.6349 2.67888 12.8602 4.67728M5.04094 6.51461C5.44074 6.59219 5.8124 6.74733 6.13921 6.96352M12.8602 4.67728C14.4453 5.21933 15.5837 6.70746 15.5837 8.45833C15.5837 10.3758 14.2184 11.9781 12.3962 12.3678" stroke="currentColor" stroke-linecap="round"/>
			<path d="M9.91634 12.4585H8.49967L7.08301 12.4585" stroke="currentColor" stroke-linecap="round"/>
		</symbol>

		<symbol id="arrow-left" viewBox="0 0 5 10">
			<path fill-rule="evenodd" clip-rule="evenodd" d="M0.00260422 5L4.10597 -3.12739e-08L4.83594 0.889471L1.46254 5L4.83594 9.11053L4.10597 10L0.00260422 5Z" fill="#96A5AE"/>
		</symbol>

		<symbol id="arrow-right" viewBox="0 0 5 10">
			<path fill-rule="evenodd" clip-rule="evenodd" d="M4.83333 5L0.729965 10L0 9.11053L3.3734 5L5.89824e-07 0.889471L0.729966 0L4.83333 5Z" fill="#96A5AE"/>
		</symbol>

		<symbol id="sorting" viewBox="0 0 10 7">
			<path d="M4 0V1L0 1V0H4Z" fill="#5C8197"/>
			<path d="M7 4V3L0 3V4L7 4Z" fill="#5C8197"/>
			<path d="M10 7V6L0 6V7L10 7Z" fill="#5C8197"/>
		</symbol>

		<symbol id="filter" viewBox="0 0 7 7">
			<path d="M6.9 0H0.1C0.0447715 0 0 0.0447715 0 0.1V0.917157C0 0.970201 0.0210715 1.02107 0.0585787 1.05858L2.97071 3.97071C2.98946 3.98946 3 4.0149 3 4.04142V6.75858C3 6.84767 3.10771 6.89229 3.17071 6.82929L3.97071 6.02929C3.98946 6.01054 4 5.9851 4 5.95858V4.04142C4 4.0149 4.01054 3.98946 4.02929 3.97071L6.94142 1.05858C6.97893 1.02107 7 0.970201 7 0.917157V0.1C7 0.0447715 6.95523 0 6.9 0Z" fill="#33617D" fill-opacity="0.8"/>
		</symbol>

		<symbol id="search" viewBox="0 0 10 10">
			<path fill-rule="evenodd" clip-rule="evenodd" d="M6.4528 7.15995C5.77546 7.68647 4.92434 8 4 8C1.79086 8 0 6.20914 0 4C0 1.79086 1.79086 0 4 0C6.20914 0 8 1.79086 8 4C8 4.92437 7.68645 5.7755 7.15991 6.45285L10.004 9.2969L9.29686 10.004L6.4528 7.15995ZM7 4C7 5.65685 5.65685 7 4 7C2.34315 7 1 5.65685 1 4C1 2.34315 2.34315 1 4 1C5.65685 1 7 2.34315 7 4Z" fill="#597E95"/>
		</symbol>

		<symbol id="arrow-down" viewBox="0 0 10 6">
			<path fill-rule="evenodd" clip-rule="evenodd" d="M5 6L0 0.906164L0.889471 0L5 4.18767L9.11053 7.32196e-07L10 0.906165L5 6Z" fill="#B8CAD5"/>
		</symbol>
		<symbol id="arrow-up" viewBox="0 0 10 6">
			<path fill-rule="evenodd" clip-rule="evenodd" d="M5 -2.74886e-08L10 5.09384L9.11053 6L5 1.81233L0.889471 6L2.36334e-08 5.09384L5 -2.74886e-08Z" fill="#B8CAD5"/>
		</symbol>
		<symbol id="filtration" viewBox="0 0 14 14" fill="none">
			<path fill-rule="evenodd" clip-rule="evenodd" d="M2.41421 1L1 2.41422L5.24264 6.65686L1 10.8995L2.41421 12.3137L6.65685 8.07107L10.8995 12.3137L12.3137 10.8995L8.07107 6.65685L12.3137 2.41421L10.8995 1L6.65685 5.24264L2.41421 1Z" fill="#EB5757" stroke="#FCE6E6"/>
		</symbol>
		
		<symbol id="export" viewBox="0 0 16 14" fill="none">
			<path d="M2 2C2 0.89543 2.89543 0 4 0H14C15.1046 0 16 0.895431 16 2V12C16 13.1046 15.1046 14 14 14H4C2.89543 14 2 13.1046 2 12V2Z" fill="none"/>
			<path d="M2.5 2C2.5 1.17157 3.17157 0.5 4 0.5H14C14.8284 0.5 15.5 1.17157 15.5 2V12C15.5 12.8284 14.8284 13.5 14 13.5H4C3.17157 13.5 2.5 12.8284 2.5 12V2Z" stroke="#66889D" stroke-opacity="0.6" stroke-linejoin="round"/>
			<rect x="1" y="3" width="3" height="8" fill="#EFFFEF"/>
			<path d="M1 7H9M9 7L6 4M9 7L6 10" stroke="#66889D" stroke-opacity="0.6"/>
		</symbol>

		

		<symbol id="refresh" viewBox="0 0 12 12" fill="none">
			<path d="M1.98123 1.77231L0.604818 0.166504L0.0214844 4.24984H4.10482L2.74175 2.6596C3.58283 1.83887 4.7327 1.33317 6.00068 1.33317C8.57801 1.33317 10.6673 3.42251 10.6673 5.99984C10.6673 8.57717 8.57801 10.6665 6.00068 10.6665C4.09942 10.6665 2.46371 9.52952 1.7364 7.8984L0.671639 8.37247C1.20458 9.56946 2.12499 10.5522 3.28457 11.1623C4.44415 11.7723 5.77536 11.9743 7.06369 11.7355C8.35203 11.4967 9.52246 10.8311 10.3864 9.84602C11.2503 8.86091 11.7574 7.61361 11.826 6.30513C11.8946 4.99665 11.5206 3.70319 10.7644 2.63316C10.0082 1.56313 8.91373 0.778863 7.65741 0.406724C6.40109 0.0345846 5.05607 0.0962495 3.83907 0.581782C3.14494 0.858714 2.51551 1.26434 1.98123 1.77231Z" fill="#A6B1B8"/>
		</symbol>


		<symbol id="calendar" viewBox="0 0 12 12" fill="none" >
			<path fill-rule="evenodd" clip-rule="evenodd" d="M3.5 1C3.22386 1 3 1.22386 3 1.5V2H2C1.44772 2 1 2.44772 1 3V10C1 10.5523 1.44772 11 2 11H10C10.5523 11 11 10.5523 11 10V3C11 2.44772 10.5523 2 10 2H9V1.5C9 1.22386 8.77614 1 8.5 1C8.22386 1 8 1.22386 8 1.5V2H4V1.5C4 1.22386 3.77614 1 3.5 1ZM10 4H2L2 10H10V4Z" fill="#000" fill-opacity="1"/>
		</symbol>

		<symbol id="task-new" viewBox="0 0 12 12" fill="none">
			<path d="M11.501 5.48588C11.4488 7.32437 10.6668 8.57857 9.6794 9.37501C8.67602 10.1843 7.45412 10.525 6.54885 10.5002C5.82847 10.4805 5.39461 10.4042 4.8797 10.2322C4.79051 10.2024 4.71216 10.2024 4.67413 10.2038C4.62945 10.2054 4.58916 10.2113 4.55829 10.2169C4.49661 10.2282 4.43253 10.2459 4.37439 10.2637C4.25633 10.2998 4.11047 10.3529 3.95556 10.4113C3.85528 10.4491 3.74921 10.4899 3.63854 10.5325C3.39488 10.6262 3.12893 10.7285 2.85341 10.8265C2.45279 10.9689 2.06771 11.0889 1.75972 11.1454C1.64295 11.1668 1.55003 11.1766 1.47965 11.1781C1.47682 11.1001 1.47915 10.9985 1.48808 10.8729C1.51242 10.5301 1.57917 10.0896 1.65688 9.63028C1.68418 9.46892 1.71308 9.30395 1.74148 9.14181C1.79167 8.85528 1.8403 8.57761 1.87583 8.34444C1.90382 8.16068 1.92648 7.98728 1.93576 7.84495C1.94036 7.77446 1.94259 7.69884 1.93776 7.62705C1.93482 7.58329 1.92696 7.48356 1.881 7.37861C1.63913 6.71961 1.50082 6.31104 1.50082 5.50006C1.50082 2.67408 3.70563 0.557645 6.55018 0.49996C9.34124 0.44336 11.5713 3.00865 11.501 5.48588ZM1.36541 11.1697C1.36543 11.1697 1.366 11.1699 1.36705 11.1702L1.36541 11.1697Z" stroke="#EB5757"/>
			<path d="M6.5 3.5V5.5" stroke="#EB5757" stroke-linecap="round"/>
			<circle cx="6.5" cy="7.5" r="0.5" fill="#EB5757"/>
		</symbol>

		<symbol id="task-process" viewBox="0 0 12 12" fill="none">
			<path d="M11.501 5.48588C11.4488 7.32437 10.6668 8.57857 9.6794 9.37501C8.67602 10.1843 7.45412 10.525 6.54885 10.5002C5.82847 10.4805 5.39461 10.4042 4.8797 10.2322C4.79051 10.2024 4.71216 10.2024 4.67413 10.2038C4.62945 10.2054 4.58916 10.2113 4.55829 10.2169C4.49661 10.2282 4.43253 10.2459 4.37439 10.2637C4.25633 10.2998 4.11047 10.3529 3.95556 10.4113C3.85528 10.4491 3.74921 10.4899 3.63854 10.5325C3.39488 10.6262 3.12893 10.7285 2.85341 10.8265C2.45279 10.9689 2.06771 11.0889 1.75972 11.1454C1.64295 11.1668 1.55003 11.1766 1.47965 11.1781C1.47682 11.1001 1.47915 10.9985 1.48808 10.8729C1.51242 10.5301 1.57917 10.0896 1.65688 9.63028C1.68418 9.46892 1.71308 9.30395 1.74148 9.14181C1.79167 8.85528 1.8403 8.57761 1.87583 8.34444C1.90382 8.16068 1.92648 7.98728 1.93576 7.84495C1.94036 7.77446 1.94259 7.69884 1.93776 7.62705C1.93482 7.58329 1.92696 7.48356 1.881 7.37861C1.63913 6.71961 1.50082 6.31104 1.50082 5.50006C1.50082 2.67408 3.70563 0.557645 6.55018 0.49996C9.34124 0.44336 11.5713 3.00865 11.501 5.48588ZM1.36541 11.1697C1.36543 11.1697 1.366 11.1699 1.36705 11.1702L1.36541 11.1697Z" stroke="#002033" stroke-opacity="0.6"/>
		</symbol>
		
		<symbol id="task-wait" viewBox="0 0 12 12" fill="none">
			<path d="M11.501 5.48588C11.4488 7.32437 10.6668 8.57857 9.6794 9.37501C8.67602 10.1843 7.45412 10.525 6.54885 10.5002C5.82847 10.4805 5.39461 10.4042 4.8797 10.2322C4.79051 10.2024 4.71216 10.2024 4.67413 10.2038C4.62945 10.2054 4.58916 10.2113 4.55829 10.2169C4.49661 10.2282 4.43253 10.2459 4.37439 10.2637C4.25633 10.2998 4.11047 10.3529 3.95556 10.4113C3.85528 10.4491 3.74921 10.4899 3.63854 10.5325C3.39488 10.6262 3.12893 10.7285 2.85341 10.8265C2.45279 10.9689 2.06771 11.0889 1.75972 11.1454C1.64295 11.1668 1.55003 11.1766 1.47965 11.1781C1.47682 11.1001 1.47915 10.9985 1.48808 10.8729C1.51242 10.5301 1.57917 10.0896 1.65688 9.63028C1.68418 9.46892 1.71308 9.30395 1.74148 9.14181C1.79167 8.85528 1.8403 8.57761 1.87583 8.34444C1.90382 8.16068 1.92648 7.98728 1.93576 7.84495C1.94036 7.77446 1.94259 7.69884 1.93776 7.62705C1.93482 7.58329 1.92696 7.48356 1.881 7.37861C1.63913 6.71961 1.50082 6.31104 1.50082 5.50006C1.50082 2.67408 3.70563 0.557645 6.55018 0.49996C9.34124 0.44336 11.5713 3.00865 11.501 5.48588ZM1.36541 11.1697C1.36543 11.1697 1.366 11.1699 1.36705 11.1702L1.36541 11.1697Z" stroke="#F2994A"/>
		</symbol>

		<symbol id="task-ready" viewBox="0 0 12 12" fill="none">
			<path d="M11.501 5.48588C11.4488 7.32437 10.6668 8.57857 9.6794 9.37501C8.67602 10.1843 7.45412 10.525 6.54885 10.5002C5.82847 10.4805 5.39461 10.4042 4.8797 10.2322C4.79051 10.2024 4.71216 10.2024 4.67413 10.2038C4.62945 10.2054 4.58916 10.2113 4.55829 10.2169C4.49661 10.2282 4.43253 10.2459 4.37439 10.2637C4.25633 10.2998 4.11047 10.3529 3.95556 10.4113C3.85528 10.4491 3.74921 10.4899 3.63854 10.5325C3.39488 10.6262 3.12893 10.7285 2.85341 10.8265C2.45279 10.9689 2.06771 11.0889 1.75972 11.1454C1.64295 11.1668 1.55003 11.1766 1.47965 11.1781C1.47682 11.1001 1.47915 10.9985 1.48808 10.8729C1.51242 10.5301 1.57917 10.0896 1.65688 9.63028C1.68418 9.46892 1.71308 9.30395 1.74148 9.14181C1.79167 8.85528 1.8403 8.57761 1.87583 8.34444C1.90382 8.16068 1.92648 7.98728 1.93576 7.84495C1.94036 7.77446 1.94259 7.69884 1.93776 7.62705C1.93482 7.58329 1.92696 7.48356 1.881 7.37861C1.63913 6.71961 1.50082 6.31104 1.50082 5.50006C1.50082 2.67408 3.70563 0.557645 6.55018 0.49996C9.34124 0.44336 11.5713 3.00865 11.501 5.48588ZM1.36541 11.1697C1.36543 11.1697 1.366 11.1699 1.36705 11.1702L1.36541 11.1697Z" stroke="#22C38E"/>
			<path d="M4.5 5.5L6 7L8.5 4.5" stroke="#22C38E" stroke-linecap="round" stroke-linejoin="round"/>
		</symbol>

		<symbol id="task-message-arrow-right" viewBox="0 0 6 8" fill="none">
			<path fill-rule="evenodd" clip-rule="evenodd" d="M5.3457 4.00026L1.37083 7.97514L0.663724 7.26803L3.93149 4.00026L0.663724 0.732498L1.37083 0.0253907L5.3457 4.00026Z" fill="#002033" fill-opacity="0.6"/>
		</symbol>

		<symbol id="task-message-cancel" viewBox="0 0 12 11" fill="none">
			<path d="M1.33226 0.0407505L5.99998 4.7508L10.6674 0.0407535C10.6932 0.0146733 10.7285 0 10.7652 0H11.8232C11.8992 0 11.9608 0.0615609 11.9608 0.1375C11.9608 0.173733 11.9465 0.208501 11.921 0.234248L6.72258 5.48L11.9602 10.7658C12.0136 10.8197 12.0132 10.9068 11.9592 10.9602C11.9334 10.9857 11.8987 11 11.8624 11H10.8047C10.768 11 10.7328 10.9853 10.7069 10.9592L5.99998 6.20921L1.29274 10.9592C1.2669 10.9853 1.2317 11 1.19497 11H0.137606C0.0616085 11 0 10.9384 0 10.8625C0 10.8263 0.0143108 10.7915 0.0398219 10.7658L5.27738 5.48L0.079019 0.234247C0.0255457 0.180286 0.0259747 0.0932272 0.0799773 0.0397952C0.105743 0.0143013 0.140539 0 0.176799 0H1.23448C1.27121 0 1.30641 0.0146723 1.33226 0.0407505Z" fill="#EB5757"/>
		</symbol>
		<symbol id="task-message-send" viewBox="0 0 16 11" fill="none">
			<path d="M14.7142 0.5H1.28585C0.851835 0.5 0.5 0.85127 0.5 1.28458V9.71542C0.5 10.1487 0.851835 10.5 1.28585 10.5H14.7142C15.1482 10.5 15.5 10.1487 15.5 9.71542V1.28458C15.5 0.85127 15.1482 0.5 14.7142 0.5Z" stroke="#006FBA" stroke-width="0.75" stroke-linecap="round" stroke-linejoin="round"/>
			<path d="M0.832031 0.678711L7.9977 7.24444L15.253 0.785387" stroke="#006FBA" stroke-width="0.75" stroke-linecap="round" stroke-linejoin="round"/>
			<path d="M0.835938 10.3176L6.0301 5.5" stroke="#006FBA" stroke-width="0.75" stroke-linecap="round" stroke-linejoin="round"/>
			<path d="M15.2528 10.3176L10.0586 5.5" stroke="#006FBA" stroke-width="0.75" stroke-linecap="round" stroke-linejoin="round"/>
		</symbol>

		<symbol id="back-alarm-table-stat-arrow" viewBox="0 0 8 10" fill="none">
			<path d="M4.16675 9L4.16675 1M4.16675 1L1.16675 4M4.16675 1L7.16675 4" stroke="currentColor" stroke-linecap="round" stroke-linejoin="round"/>
		</symbol>

		<symbol id="tag-modal-save" viewBox="0 0 15 11" fill="none" >
			<path fill-rule="evenodd" clip-rule="evenodd" d="M5.97001 8.94303L0.938913 4.72143L0 5.84039L6.14899 11L14.592 0.938022L13.4741 0L5.97001 8.94303Z" fill="#00C800"/>
		</symbol>
		<symbol id="tag-modal-cancel" viewBox="0 0 12 11" fill="none">
			<path d="M1.33226 0.0407505L5.99998 4.7508L10.6674 0.0407535C10.6932 0.0146733 10.7285 0 10.7652 0H11.8232C11.8992 0 11.9608 0.0615609 11.9608 0.1375C11.9608 0.173733 11.9465 0.208501 11.921 0.234248L6.72258 5.48L11.9602 10.7658C12.0136 10.8197 12.0132 10.9068 11.9592 10.9602C11.9334 10.9857 11.8987 11 11.8624 11H10.8047C10.768 11 10.7328 10.9853 10.7069 10.9592L5.99998 6.20921L1.29274 10.9592C1.2669 10.9853 1.2317 11 1.19497 11H0.137606C0.0616085 11 0 10.9384 0 10.8625C0 10.8263 0.0143108 10.7915 0.0398219 10.7658L5.27738 5.48L0.079019 0.234247C0.0255457 0.180286 0.0259747 0.0932272 0.0799773 0.0397952C0.105743 0.0143013 0.140539 0 0.176799 0H1.23448C1.27121 0 1.30641 0.0146723 1.33226 0.0407505Z" fill="#EB5757"/>
		</symbol>
		<symbol id="tag-modal-close" viewBox="0 0 8 8" fill="none">
			<path fill-rule="evenodd" clip-rule="evenodd" d="M1 0L0 1L3 4L0 7L1 8L4 5L7 8L8 7L5 4L8 1L7 0L4 3L1 0Z" fill="#33617D" fill-opacity="0.6"/>
		</symbol>
		<symbol id="tag-modal-add" viewBox="0 0 11 11" fill="none">
			<path fill-rule="evenodd" clip-rule="evenodd" d="M5.5 -1.18385e-08C5.77614 -5.30028e-09 6 0.108825 6 0.243068L6 10.7569C6 10.8912 5.77614 11 5.5 11C5.22386 11 5 10.8912 5 10.7569L5 0.243068C5 0.108825 5.22386 -1.83767e-08 5.5 -1.18385e-08Z" fill="#00C800"/>
			<path fill-rule="evenodd" clip-rule="evenodd" d="M1.18385e-08 5.5C5.30028e-09 5.77614 0.108825 6 0.243068 6L10.7569 6C10.8912 6 11 5.77614 11 5.5C11 5.22386 10.8912 5 10.7569 5L0.243068 5C0.108825 5 1.83767e-08 5.22386 1.18385e-08 5.5Z" fill="#00C800"/>
		</symbol>
		<symbol id="tag-modal-send" viewBox="0 0 16 11" fill="none">
			<path d="M14.7142 0.5H1.28585C0.851835 0.5 0.5 0.85127 0.5 1.28458V9.71542C0.5 10.1487 0.851835 10.5 1.28585 10.5H14.7142C15.1482 10.5 15.5 10.1487 15.5 9.71542V1.28458C15.5 0.85127 15.1482 0.5 14.7142 0.5Z" stroke="#006FBA" stroke-width="0.75" stroke-linecap="round" stroke-linejoin="round"/>
			<path d="M0.832031 0.678711L7.9977 7.24444L15.253 0.785387" stroke="#006FBA" stroke-width="0.75" stroke-linecap="round" stroke-linejoin="round"/>
			<path d="M0.835938 10.3176L6.0301 5.5" stroke="#006FBA" stroke-width="0.75" stroke-linecap="round" stroke-linejoin="round"/>
			<path d="M15.2528 10.3176L10.0586 5.5" stroke="#006FBA" stroke-width="0.75" stroke-linecap="round" stroke-linejoin="round"/>
		</symbol>
		<symbol id="tag-modal-send-to-journal" viewBox="0 0 13 15" fill="none">
			<rect x="0.503906" y="0.5" width="11.9883" height="14" rx="1.5" stroke="#006FBA"/>
			<path d="M3.0332 7.5H8.22891" stroke="#006FBA" stroke-linecap="round"/>
			<path d="M3.0332 3.9707H9.96029" stroke="#006FBA" stroke-linecap="round"/>
			<path d="M3.0332 11.0293H7.36327" stroke="#006FBA" stroke-linecap="round"/>
		</symbol>
		<symbol id="tag-modal-delete" viewBox="0 0 15 11" fill="none">
			<path fill-rule="evenodd" clip-rule="evenodd" d="M5.97001 8.94303L0.938913 4.72143L0 5.84039L6.14899 11L14.592 0.938022L13.4741 0L5.97001 8.94303Z" fill="#002033"/>
		</symbol>
		<symbol id="tag-modal-attention" viewBox="0 0 14 13" fill="none">
			<path d="M13 6.5C13 9.81371 10.3137 12.5 7 12.5C3.68629 12.5 1 9.81371 1 6.5C1 3.18629 3.68629 0.5 7 0.5C10.3137 0.5 13 3.18629 13 6.5Z" stroke="#EB5757"/>
			<rect x="6.5" y="3" width="1" height="5" rx="0.5" fill="#EB5757"/>
			<circle cx="7" cy="9.5" r="0.5" fill="#EB5757"/>
		</symbol>


		<symbol id="tag-table-attention" viewBox="0 0 9 10" fill="none">
			<circle cx="4.5" cy="5" r="4.5" fill="#EB5757"/>
			<circle cx="4.5" cy="7" r="0.5" fill="white"/>
			<rect x="4" y="2.5" width="1" height="3" rx="0.5" fill="white"/>
		</symbol>
		
		<symbol id="tag-table-reglament" viewBox="0 0 17 14" fill="none">
			<path d="M0.5 11.5C0.5 11.0235 0.500479 10.6995 0.523079 10.4502C0.545056 10.2077 0.584753 10.0853 0.633975 10C0.721743 9.84798 0.847981 9.72174 1 9.63397C1.08525 9.58475 1.2077 9.54506 1.45018 9.52308C1.69954 9.50048 2.02349 9.5 2.5 9.5C2.97651 9.5 3.30046 9.50048 3.54982 9.52308C3.7923 9.54506 3.91475 9.58475 4 9.63397C4.15202 9.72174 4.27826 9.84798 4.36602 10L4.79904 9.75L4.36603 10C4.41525 10.0853 4.45494 10.2077 4.47692 10.4502C4.49952 10.6995 4.5 11.0235 4.5 11.5C4.5 11.9765 4.49952 12.3005 4.47692 12.5498C4.45494 12.7923 4.41525 12.9147 4.36603 13C4.27826 13.152 4.15202 13.2783 4 13.366C3.91475 13.4152 3.7923 13.4549 3.54982 13.4769C3.30046 13.4995 2.97651 13.5 2.5 13.5C2.02349 13.5 1.69954 13.4995 1.45018 13.4769C1.2077 13.4549 1.08526 13.4152 1 13.366L0.75 13.799L1 13.366C0.847981 13.2783 0.721743 13.152 0.633975 13C0.584753 12.9147 0.545056 12.7923 0.523079 12.5498C0.500479 12.3005 0.5 11.9765 0.5 11.5Z" stroke="currentColor"/>
			<path d="M6.5 11.5C6.5 11.0235 6.50048 10.6995 6.52308 10.4502C6.54506 10.2077 6.58475 10.0853 6.63397 10C6.72174 9.84798 6.84798 9.72174 7 9.63397C7.08525 9.58475 7.2077 9.54506 7.45018 9.52308C7.69954 9.50048 8.02349 9.5 8.5 9.5C8.97651 9.5 9.30046 9.50048 9.54982 9.52308C9.7923 9.54506 9.91475 9.58475 10 9.63397C10.152 9.72174 10.2783 9.84798 10.366 10L10.799 9.75L10.366 10C10.4152 10.0853 10.4549 10.2077 10.4769 10.4502C10.4995 10.6995 10.5 11.0235 10.5 11.5C10.5 11.9765 10.4995 12.3005 10.4769 12.5498C10.4549 12.7923 10.4152 12.9147 10.366 13C10.2783 13.152 10.152 13.2783 10 13.366C9.91475 13.4152 9.7923 13.4549 9.54982 13.4769C9.30046 13.4995 8.97651 13.5 8.5 13.5C8.02349 13.5 7.69954 13.4995 7.45018 13.4769C7.2077 13.4549 7.08526 13.4152 7 13.366L6.75 13.799L7 13.366C6.84798 13.2783 6.72174 13.152 6.63397 13C6.58475 12.9147 6.54506 12.7923 6.52308 12.5498C6.50048 12.3005 6.5 11.9765 6.5 11.5Z" stroke="currentColor"/>
			<path d="M12.5 11.5C12.5 11.0235 12.5005 10.6995 12.5231 10.4502C12.5451 10.2077 12.5848 10.0853 12.634 10C12.7217 9.84798 12.848 9.72174 13 9.63397C13.0853 9.58475 13.2077 9.54506 13.4502 9.52308C13.6995 9.50048 14.0235 9.5 14.5 9.5C14.9765 9.5 15.3005 9.50048 15.5498 9.52308C15.7923 9.54506 15.9147 9.58475 16 9.63397C16.152 9.72174 16.2783 9.84798 16.366 10L16.799 9.75L16.366 10C16.4152 10.0853 16.4549 10.2077 16.4769 10.4502C16.4995 10.6995 16.5 11.0235 16.5 11.5C16.5 11.9765 16.4995 12.3005 16.4769 12.5498C16.4549 12.7923 16.4152 12.9147 16.366 13C16.2783 13.152 16.152 13.2783 16 13.366C15.9147 13.4152 15.7923 13.4549 15.5498 13.4769C15.3005 13.4995 14.9765 13.5 14.5 13.5C14.0235 13.5 13.6995 13.4995 13.4502 13.4769C13.2077 13.4549 13.0853 13.4152 13 13.366L12.75 13.799L13 13.366C12.848 13.2783 12.7217 13.152 12.634 13C12.5848 12.9147 12.5451 12.7923 12.5231 12.5498C12.5005 12.3005 12.5 11.9765 12.5 11.5Z" stroke="currentColor"/>
			<path d="M2.5 9.50006V4.50006C2.5 2.53587 2.5 1.72039 3.11019 1.11019C3.72039 0.5 4.70248 0.5 6.66667 0.5L10.3333 0.5C12.2975 0.5 13.2796 0.5 13.8898 1.11019C14.5 1.72039 14.5 2.53587 14.5 4.50006V7.00006M14.5 7.00006L16.1667 5.33339M14.5 7.00006L12.8333 5.33339" stroke="currentColor" stroke-linecap="round" stroke-linejoin="round"/>
		</symbol>

		<symbol id="tag-table-add" viewBox="0 0 13 13" fill="none">
			<path fill-rule="evenodd" clip-rule="evenodd" d="M6.5 0C6.77614 0 7 0.128612 7 0.287262V12.7127C7 12.8714 6.77614 13 6.5 13C6.22386 13 6 12.8714 6 12.7127V0.287262C6 0.128612 6.22386 0 6.5 0Z" fill="white"/>
			<path fill-rule="evenodd" clip-rule="evenodd" d="M0 6.5C0 6.77614 0.128612 7 0.287262 7H12.7127C12.8714 7 13 6.77614 13 6.5C13 6.22386 12.8714 6 12.7127 6H0.287262C0.128612 6 0 6.22386 0 6.5Z" fill="white"/>
		</symbol>
		<symbol id="tag-table-edit" viewBox="0 0 12 12" fill="none">
			<path d="M12 3L9 0L7.58578 1.41422L10.5858 4.41422L12 3Z" fill="#002033" fill-opacity="0.3"/>
			<path d="M9.87868 5.12132L6.87868 2.12132L0 9.00001V12H3L9.87868 5.12132Z" fill="#002033" fill-opacity="0.3"/>
		</symbol>
		<symbol id="tag-table-correct" viewBox="0 0 14 12" fill="none">
			<path d="M1.4 0C0.626801 0 0 0.671573 0 1.5V2.35047L7 6.63619L14 2.35047V1.5C14 0.671573 13.3732 0 12.6 0H1.4Z" fill="#0078D2" fill-opacity="0.5"/>
			<path d="M14 4.0781L7 8.36381L0 4.0781V10.5C0 11.3284 0.626802 12 1.4 12H12.6C13.3732 12 14 11.3284 14 10.5V4.0781Z" fill="#0078D2" fill-opacity="0.5"/>
		</symbol>
		<symbol id="tag-table-delete" viewBox="0 0 14 14" fill="none">
			<path fill-rule="evenodd" clip-rule="evenodd" d="M7 14C10.866 14 14 10.866 14 7C14 3.13401 10.866 0 7 0C3.13401 0 0 3.13401 0 7C0 10.866 3.13401 14 7 14ZM7 5.727L9.4657 3.26022C9.81717 2.90875 10.387 2.90875 10.7385 3.26022C11.09 3.6117 11.09 4.18154 10.7385 4.53302L8.272 7.001L10.7385 9.46999C11.09 9.82146 11.09 10.3913 10.7385 10.7428C10.387 11.0943 9.81717 11.0943 9.4657 10.7428L7 8.275L4.5357 10.7428C4.18423 11.0943 3.61438 11.0943 3.26291 10.7428C2.91144 10.3913 2.91144 9.82146 3.26291 9.46999L5.728 7.001L3.26291 4.53302C2.91144 4.18154 2.91144 3.6117 3.26291 3.26022C3.61438 2.90875 4.18423 2.90875 4.5357 3.26022L7 5.727Z" fill="#EB5757" fill-opacity="0.6"/>
		</symbol>

		<symbol id="legend" viewBox="0 0 8 13" fill="none">
			<path d="M7.766 3.676C7.766 4.576 7.388 5.26 6.884 5.926L5.552 7.69C5.372 7.924 5.228 8.302 5.228 8.608V8.986H2.888V8.446C2.888 7.672 3.104 7.186 3.572 6.574L4.904 4.864C5.192 4.486 5.426 4.054 5.426 3.658C5.426 2.812 4.868 2.182 3.968 2.182C3.014 2.182 2.528 2.848 2.528 3.676H0.188C0.188 1.444 1.88 0.075999 3.968 0.075999C6.002 0.075999 7.766 1.39 7.766 3.676ZM5.3 13H2.816V10.606H5.3V13Z" fill="#CED4D9"/>
		</symbol>

		<symbol id="settings-add-line" viewBox="0 0 14 14" fill="none">
			<path fill-rule="evenodd" clip-rule="evenodd" d="M7 0.5C7.27614 0.5 7.5 0.628612 7.5 0.787262V13.2127C7.5 13.3714 7.27614 13.5 7 13.5C6.72386 13.5 6.5 13.3714 6.5 13.2127V0.787262C6.5 0.628612 6.72386 0.5 7 0.5Z" fill="#00C800"/>
			<path fill-rule="evenodd" clip-rule="evenodd" d="M0.5 7C0.5 7.27614 0.628612 7.5 0.787262 7.5H13.2127C13.3714 7.5 13.5 7.27614 13.5 7C13.5 6.72386 13.3714 6.5 13.2127 6.5H0.787262C0.628612 6.5 0.5 6.72386 0.5 7Z" fill="#00C800"/>
		</symbol>

		<symbol id="settings-delete-line" viewBox="0 0 12 12" fill="none">
			<path fill-rule="evenodd" clip-rule="evenodd" d="M0.5 6C0.5 6.27614 0.608825 6.5 0.743068 6.5H11.2569C11.3912 6.5 11.5 6.27614 11.5 6C11.5 5.72386 11.3912 5.5 11.2569 5.5H0.743068C0.608825 5.5 0.5 5.72386 0.5 6Z" fill="#EB5757"/>
		</symbol>

		<symbol id="settings-edit" viewBox="0 0 14 12" fill="none">
			<path d="M4 7.91696V10H6.08304L12.2266 3.85641L10.1436 1.77336L4 7.91696ZM13.8375 2.24552C14.0542 2.02888 14.0542 1.67893 13.8375 1.4623L12.5377 0.162477C12.3211 -0.0541591 11.9711 -0.0541591 11.7545 0.162477L10.738 1.179L12.821 3.26205L13.8375 2.24552Z" fill="#66889D" fill-opacity="0.6"/>
			<path d="M0 11.5H12" stroke="#66889D" stroke-opacity="0.6"/>
		</symbol>
		
		<symbol id="archive" viewBox="0 0 13 15" fill="none">
			<rect x="0.503906" y="0.5" width="11.9883" height="14" rx="1.5" stroke="#006FBA"/>
			<path d="M3.0332 7.5H8.22891" stroke="#006FBA" stroke-linecap="round"/>
			<path d="M3.0332 3.9707H9.96029" stroke="#006FBA" stroke-linecap="round"/>
			<path d="M3.0332 11.0293H7.36327" stroke="#006FBA" stroke-linecap="round"/>
		</symbol>

		<symbol id="triangle-up" viewBox="0 0 8 6" fill="none">
			<path d="M4 0L7.4641 6H0.535898L4 0Z" fill="#002033" fill-opacity="0.2"/>
		</symbol>

		<symbol id="tag-not-selected" viewBox="0 0 12 12" fill="none">
			<rect width="12" height="12" rx="4" fill="white"/>
			<rect x="0.5" y="0.5" width="11" height="11" rx="3.5" stroke="#004269" stroke-opacity="0.28"/>
		</symbol>

		<symbol id="tag-sent" viewBox="0 0 12 12" fill="none">
			<rect width="12" height="12" rx="4" fill="#004269" fill-opacity="0.07"/>
			<rect x="0.5" y="0.5" width="11" height="11" rx="3.5" stroke="#004269" stroke-opacity="0.28"/>
			<path d="M3.33684 5.64615L2.36963 6.81018L5.55247 9.43262L10.3505 3.65823L9.19837 2.70898L5.36758 7.31934L3.33684 5.64615Z" fill="#00395C" fill-opacity="0.8"/>
			<path d="M5.04963 7.70523L5.43393 8.02186L5.75215 7.63889L9.26472 3.4115L9.64503 3.72486L5.48612 8.7301L3.07507 6.74356L3.40318 6.34867L5.04963 7.70523Z" stroke="#004269" stroke-opacity="0.28"/>
		</symbol>

		<symbol id="tag-selected" viewBox="0 0 12 12" fill="none">
			<rect width="12" height="12" fill="white"/>
			<rect x="0.5" y="0.5" width="11" height="11" rx="3.5" fill="#0078D2" stroke="#0078D2"/>
			<path d="M3.33684 5.64615L2.36963 6.81018L5.55247 9.43262L10.3505 3.65823L9.19837 2.70898L5.36758 7.31934L3.33684 5.64615Z" fill="white"/>
		</symbol>

		<symbol id="legend-fire-active" viewBox="0 0 70 40" fill="none">
			<g clip-path="url(#clip0_2648_40691)">
				<rect width="70" height="40" fill="white"/>
				<rect width="70" height="40" rx="5" fill="#EB5757"/>
				<path d="M26.3008 8.18182V14H25.4258V8.93182H22.6871V14H21.8121V8.18182H26.3008ZM29.413 14.0881C29.0039 14.0881 28.6469 13.9943 28.342 13.8068C28.0371 13.6193 27.8003 13.357 27.6317 13.0199C27.4632 12.6828 27.3789 12.2888 27.3789 11.8381C27.3789 11.3854 27.4632 10.9896 27.6317 10.6506C27.8003 10.3116 28.0371 10.0483 28.342 9.8608C28.6469 9.6733 29.0039 9.57955 29.413 9.57955C29.8221 9.57955 30.1791 9.6733 30.484 9.8608C30.7889 10.0483 31.0257 10.3116 31.1942 10.6506C31.3628 10.9896 31.4471 11.3854 31.4471 11.8381C31.4471 12.2888 31.3628 12.6828 31.1942 13.0199C31.0257 13.357 30.7889 13.6193 30.484 13.8068C30.1791 13.9943 29.8221 14.0881 29.413 14.0881ZM29.4158 13.375C29.681 13.375 29.9007 13.3049 30.0749 13.1648C30.2492 13.0246 30.378 12.8381 30.4613 12.6051C30.5465 12.3722 30.5891 12.1155 30.5891 11.8352C30.5891 11.5568 30.5465 11.3011 30.4613 11.0682C30.378 10.8333 30.2492 10.6449 30.0749 10.5028C29.9007 10.3608 29.681 10.2898 29.4158 10.2898C29.1488 10.2898 28.9272 10.3608 28.7511 10.5028C28.5768 10.6449 28.4471 10.8333 28.3619 11.0682C28.2785 11.3011 28.2369 11.5568 28.2369 11.8352C28.2369 12.1155 28.2785 12.3722 28.3619 12.6051C28.4471 12.8381 28.5768 13.0246 28.7511 13.1648C28.9272 13.3049 29.1488 13.375 29.4158 13.375ZM31.945 14L33.6353 11.767L31.9648 9.63636H32.9535L34.3029 11.4489H34.6069V9.63636H35.4563V11.4489H35.7518L37.1012 9.63636H38.0898L36.4279 11.767L38.1097 14H37.1012L35.7404 12.1818H35.4563V14H34.6069V12.1818H34.3228L32.9535 14H31.945ZM40.2354 14.0966C39.9589 14.0966 39.7089 14.0455 39.4854 13.9432C39.262 13.839 39.0849 13.6884 38.9542 13.4915C38.8254 13.2945 38.761 13.053 38.761 12.767C38.761 12.5208 38.8084 12.3182 38.9031 12.1591C38.9978 12 39.1256 11.8741 39.2866 11.7812C39.4476 11.6884 39.6275 11.6184 39.8263 11.571C40.0252 11.5237 40.2279 11.4877 40.4343 11.4631C40.6957 11.4328 40.9078 11.4081 41.0707 11.3892C41.2335 11.3684 41.3519 11.3352 41.4258 11.2898C41.4996 11.2443 41.5366 11.1705 41.5366 11.0682V11.0483C41.5366 10.8002 41.4665 10.608 41.3263 10.4716C41.1881 10.3352 40.9817 10.267 40.707 10.267C40.421 10.267 40.1957 10.3305 40.0309 10.4574C39.868 10.5824 39.7553 10.7216 39.6928 10.875L38.8945 10.6932C38.9892 10.428 39.1275 10.214 39.3093 10.0511C39.493 9.88636 39.7042 9.76705 39.9428 9.69318C40.1815 9.61742 40.4324 9.57955 40.6957 9.57955C40.8699 9.57955 41.0546 9.60038 41.2496 9.64205C41.4466 9.68182 41.6303 9.75568 41.8008 9.86364C41.9731 9.97159 42.1142 10.1259 42.2241 10.3267C42.3339 10.5256 42.3888 10.7841 42.3888 11.1023V14H41.5593V13.4034H41.5252C41.4703 13.5133 41.3879 13.6212 41.2781 13.7273C41.1682 13.8333 41.0271 13.9214 40.8548 13.9915C40.6824 14.0616 40.476 14.0966 40.2354 14.0966ZM40.4201 13.4148C40.6549 13.4148 40.8557 13.3684 41.0224 13.2756C41.1909 13.1828 41.3188 13.0616 41.4059 12.9119C41.4949 12.7604 41.5394 12.5985 41.5394 12.4261V11.8636C41.5091 11.8939 41.4504 11.9223 41.3633 11.9489C41.2781 11.9735 41.1805 11.9953 41.0707 12.0142C40.9608 12.0312 40.8538 12.0473 40.7496 12.0625C40.6455 12.0758 40.5584 12.0871 40.4883 12.0966C40.3235 12.1174 40.1729 12.1525 40.0366 12.2017C39.9021 12.2509 39.7942 12.322 39.7127 12.4148C39.6332 12.5057 39.5934 12.6269 39.5934 12.7784C39.5934 12.9886 39.671 13.1477 39.8263 13.2557C39.9817 13.3617 40.1796 13.4148 40.4201 13.4148ZM43.5202 15.6364V9.63636H44.3498V10.3438H44.4208C44.4701 10.2528 44.5411 10.1477 44.6339 10.0284C44.7267 9.90909 44.8555 9.80492 45.0202 9.71591C45.185 9.625 45.4028 9.57955 45.6737 9.57955C46.0259 9.57955 46.3403 9.66856 46.6168 9.84659C46.8933 10.0246 47.1102 10.2812 47.2674 10.6165C47.4265 10.9517 47.506 11.3551 47.506 11.8267C47.506 12.2983 47.4274 12.7027 47.2702 13.0398C47.113 13.375 46.8971 13.6335 46.6225 13.8153C46.3479 13.9953 46.0344 14.0852 45.6822 14.0852C45.417 14.0852 45.2002 14.0407 45.0316 13.9517C44.8649 13.8627 44.7343 13.7585 44.6396 13.6392C44.5449 13.5199 44.4719 13.4138 44.4208 13.321H44.3697V15.6364H43.5202ZM44.3526 11.8182C44.3526 12.125 44.3971 12.3939 44.4862 12.625C44.5752 12.8561 44.704 13.0369 44.8725 13.1676C45.0411 13.2964 45.2475 13.3608 45.4918 13.3608C45.7456 13.3608 45.9577 13.2936 46.1282 13.1591C46.2987 13.0227 46.4274 12.8381 46.5146 12.6051C46.6036 12.3722 46.6481 12.1098 46.6481 11.8182C46.6481 11.5303 46.6045 11.2718 46.5174 11.0426C46.4322 10.8134 46.3034 10.6326 46.131 10.5C45.9606 10.3674 45.7475 10.3011 45.4918 10.3011C45.2456 10.3011 45.0373 10.3646 44.8668 10.4915C44.6983 10.6184 44.5704 10.7955 44.4833 11.0227C44.3962 11.25 44.3526 11.5152 44.3526 11.8182Z" fill="white"/>
				<path d="M38.5 27.4991C38.5 29.6264 37.191 30.5598 36.1794 30.8746C35.9637 30.9417 35.8219 30.6903 35.951 30.5048C36.3912 29.8722 36.9 28.9071 36.9 27.9991C36.9 27.0238 36.078 25.8724 35.4361 25.1622C35.2893 24.9998 35.0333 25.1072 35.0253 25.326C34.9988 26.0506 34.8845 27.02 34.3914 27.7798C34.312 27.9021 34.1436 27.9122 34.0532 27.7979C33.8991 27.603 33.745 27.3624 33.591 27.1722C33.508 27.0698 33.358 27.0684 33.2623 27.159C32.8891 27.5124 32.3667 28.0634 32.3667 28.7491C32.3667 29.2437 32.6024 29.8594 32.8454 30.3362C32.9557 30.5527 32.751 30.8066 32.5407 30.6849C31.6228 30.1535 30.5 29.0526 30.5 27.4991C30.5 25.9259 32.6551 23.7465 33.478 21.6876C33.6079 21.3627 34.008 21.21 34.2864 21.422C35.972 22.7061 38.5 25.1882 38.5 27.4991Z" stroke="white"/>
			</g>
			<defs>
				<clipPath id="clip0_2648_40691">
					<rect width="70" height="40" fill="white"/>
				</clipPath>
			</defs>
		</symbol>

		<symbol id="legend-fire" viewBox="0 0 70 40" fill="none">
			<g clip-path="url(#clip0_2648_40698)">
				<rect width="70" height="40" fill="white"/>
				<rect width="70" height="40" rx="5" fill="#002033" fill-opacity="0.05"/>
				<path d="M26.3008 8.18182V14H25.4258V8.93182H22.6871V14H21.8121V8.18182H26.3008ZM29.413 14.0881C29.0039 14.0881 28.6469 13.9943 28.342 13.8068C28.0371 13.6193 27.8003 13.357 27.6317 13.0199C27.4632 12.6828 27.3789 12.2888 27.3789 11.8381C27.3789 11.3854 27.4632 10.9896 27.6317 10.6506C27.8003 10.3116 28.0371 10.0483 28.342 9.8608C28.6469 9.6733 29.0039 9.57955 29.413 9.57955C29.8221 9.57955 30.1791 9.6733 30.484 9.8608C30.7889 10.0483 31.0257 10.3116 31.1942 10.6506C31.3628 10.9896 31.4471 11.3854 31.4471 11.8381C31.4471 12.2888 31.3628 12.6828 31.1942 13.0199C31.0257 13.357 30.7889 13.6193 30.484 13.8068C30.1791 13.9943 29.8221 14.0881 29.413 14.0881ZM29.4158 13.375C29.681 13.375 29.9007 13.3049 30.0749 13.1648C30.2492 13.0246 30.378 12.8381 30.4613 12.6051C30.5465 12.3722 30.5891 12.1155 30.5891 11.8352C30.5891 11.5568 30.5465 11.3011 30.4613 11.0682C30.378 10.8333 30.2492 10.6449 30.0749 10.5028C29.9007 10.3608 29.681 10.2898 29.4158 10.2898C29.1488 10.2898 28.9272 10.3608 28.7511 10.5028C28.5768 10.6449 28.4471 10.8333 28.3619 11.0682C28.2785 11.3011 28.2369 11.5568 28.2369 11.8352C28.2369 12.1155 28.2785 12.3722 28.3619 12.6051C28.4471 12.8381 28.5768 13.0246 28.7511 13.1648C28.9272 13.3049 29.1488 13.375 29.4158 13.375ZM31.945 14L33.6353 11.767L31.9648 9.63636H32.9535L34.3029 11.4489H34.6069V9.63636H35.4563V11.4489H35.7518L37.1012 9.63636H38.0898L36.4279 11.767L38.1097 14H37.1012L35.7404 12.1818H35.4563V14H34.6069V12.1818H34.3228L32.9535 14H31.945ZM40.2354 14.0966C39.9589 14.0966 39.7089 14.0455 39.4854 13.9432C39.262 13.839 39.0849 13.6884 38.9542 13.4915C38.8254 13.2945 38.761 13.053 38.761 12.767C38.761 12.5208 38.8084 12.3182 38.9031 12.1591C38.9978 12 39.1256 11.8741 39.2866 11.7812C39.4476 11.6884 39.6275 11.6184 39.8263 11.571C40.0252 11.5237 40.2279 11.4877 40.4343 11.4631C40.6957 11.4328 40.9078 11.4081 41.0707 11.3892C41.2335 11.3684 41.3519 11.3352 41.4258 11.2898C41.4996 11.2443 41.5366 11.1705 41.5366 11.0682V11.0483C41.5366 10.8002 41.4665 10.608 41.3263 10.4716C41.1881 10.3352 40.9817 10.267 40.707 10.267C40.421 10.267 40.1957 10.3305 40.0309 10.4574C39.868 10.5824 39.7553 10.7216 39.6928 10.875L38.8945 10.6932C38.9892 10.428 39.1275 10.214 39.3093 10.0511C39.493 9.88636 39.7042 9.76705 39.9428 9.69318C40.1815 9.61742 40.4324 9.57955 40.6957 9.57955C40.8699 9.57955 41.0546 9.60038 41.2496 9.64205C41.4466 9.68182 41.6303 9.75568 41.8008 9.86364C41.9731 9.97159 42.1142 10.1259 42.2241 10.3267C42.3339 10.5256 42.3888 10.7841 42.3888 11.1023V14H41.5593V13.4034H41.5252C41.4703 13.5133 41.3879 13.6212 41.2781 13.7273C41.1682 13.8333 41.0271 13.9214 40.8548 13.9915C40.6824 14.0616 40.476 14.0966 40.2354 14.0966ZM40.4201 13.4148C40.6549 13.4148 40.8557 13.3684 41.0224 13.2756C41.1909 13.1828 41.3188 13.0616 41.4059 12.9119C41.4949 12.7604 41.5394 12.5985 41.5394 12.4261V11.8636C41.5091 11.8939 41.4504 11.9223 41.3633 11.9489C41.2781 11.9735 41.1805 11.9953 41.0707 12.0142C40.9608 12.0312 40.8538 12.0473 40.7496 12.0625C40.6455 12.0758 40.5584 12.0871 40.4883 12.0966C40.3235 12.1174 40.1729 12.1525 40.0366 12.2017C39.9021 12.2509 39.7942 12.322 39.7127 12.4148C39.6332 12.5057 39.5934 12.6269 39.5934 12.7784C39.5934 12.9886 39.671 13.1477 39.8263 13.2557C39.9817 13.3617 40.1796 13.4148 40.4201 13.4148ZM43.5202 15.6364V9.63636H44.3498V10.3438H44.4208C44.4701 10.2528 44.5411 10.1477 44.6339 10.0284C44.7267 9.90909 44.8555 9.80492 45.0202 9.71591C45.185 9.625 45.4028 9.57955 45.6737 9.57955C46.0259 9.57955 46.3403 9.66856 46.6168 9.84659C46.8933 10.0246 47.1102 10.2812 47.2674 10.6165C47.4265 10.9517 47.506 11.3551 47.506 11.8267C47.506 12.2983 47.4274 12.7027 47.2702 13.0398C47.113 13.375 46.8971 13.6335 46.6225 13.8153C46.3479 13.9953 46.0344 14.0852 45.6822 14.0852C45.417 14.0852 45.2002 14.0407 45.0316 13.9517C44.8649 13.8627 44.7343 13.7585 44.6396 13.6392C44.5449 13.5199 44.4719 13.4138 44.4208 13.321H44.3697V15.6364H43.5202ZM44.3526 11.8182C44.3526 12.125 44.3971 12.3939 44.4862 12.625C44.5752 12.8561 44.704 13.0369 44.8725 13.1676C45.0411 13.2964 45.2475 13.3608 45.4918 13.3608C45.7456 13.3608 45.9577 13.2936 46.1282 13.1591C46.2987 13.0227 46.4274 12.8381 46.5146 12.6051C46.6036 12.3722 46.6481 12.1098 46.6481 11.8182C46.6481 11.5303 46.6045 11.2718 46.5174 11.0426C46.4322 10.8134 46.3034 10.6326 46.131 10.5C45.9606 10.3674 45.7475 10.3011 45.4918 10.3011C45.2456 10.3011 45.0373 10.3646 44.8668 10.4915C44.6983 10.6184 44.5704 10.7955 44.4833 11.0227C44.3962 11.25 44.3526 11.5152 44.3526 11.8182Z" fill="white"/>
				<path d="M38.5 27.4991C38.5 29.6264 37.191 30.5598 36.1794 30.8746C35.9637 30.9417 35.8219 30.6903 35.951 30.5048C36.3912 29.8722 36.9 28.9071 36.9 27.9991C36.9 27.0238 36.078 25.8724 35.4361 25.1622C35.2893 24.9998 35.0333 25.1072 35.0253 25.326C34.9988 26.0506 34.8845 27.02 34.3914 27.7798C34.312 27.9021 34.1436 27.9122 34.0532 27.7979C33.8991 27.603 33.745 27.3624 33.591 27.1722C33.508 27.0698 33.358 27.0684 33.2623 27.159C32.8891 27.5124 32.3667 28.0634 32.3667 28.7491C32.3667 29.2437 32.6024 29.8594 32.8454 30.3362C32.9557 30.5527 32.751 30.8066 32.5407 30.6849C31.6228 30.1535 30.5 29.0526 30.5 27.4991C30.5 25.9259 32.6551 23.7465 33.478 21.6876C33.6079 21.3627 34.008 21.21 34.2864 21.422C35.972 22.7061 38.5 25.1882 38.5 27.4991Z" stroke="white"/>
			</g>
			<defs>
				<clipPath id="clip0_2648_40698">
					<rect width="70" height="40" fill="white"/>
				</clipPath>
			</defs>
		</symbol>

		<symbol id="legend-gas-active" viewBox="0 0 70 40" fill="none">
			<g clip-path="url(#clip0_2648_40709)">
				<rect width="70" height="40" fill="white"/>
				<rect width="70" height="40" rx="5" fill="#F2994A"/>
				<path d="M5.98366 14.0795C5.59351 14.0795 5.24503 14.0123 4.93821 13.8778C4.63329 13.7434 4.39181 13.5568 4.21378 13.3182C4.03764 13.0777 3.94295 12.7992 3.92969 12.483H4.82173C4.8331 12.6553 4.89086 12.8049 4.99503 12.9318C5.10109 13.0568 5.23935 13.1534 5.4098 13.2216C5.58026 13.2898 5.76965 13.3239 5.97798 13.3239C6.20715 13.3239 6.4098 13.2841 6.58594 13.2045C6.76397 13.125 6.90317 13.0142 7.00355 12.8722C7.10393 12.7282 7.15412 12.5625 7.15412 12.375C7.15412 12.1799 7.10393 12.0085 7.00355 11.8608C6.90507 11.7112 6.76018 11.5937 6.56889 11.5085C6.3795 11.4233 6.15033 11.3807 5.88139 11.3807H5.38991V10.6648H5.88139C6.0973 10.6648 6.2867 10.6259 6.44957 10.5483C6.61435 10.4706 6.74313 10.3627 6.83594 10.2244C6.92874 10.0843 6.97514 9.92045 6.97514 9.73295C6.97514 9.55303 6.93442 9.39678 6.85298 9.2642C6.77344 9.12973 6.6598 9.02462 6.51207 8.94886C6.36624 8.87311 6.19389 8.83523 5.99503 8.83523C5.80563 8.83523 5.62855 8.87027 5.46378 8.94034C5.3009 9.00852 5.16832 9.10701 5.06605 9.2358C4.96378 9.36269 4.90885 9.51515 4.90128 9.69318H4.05185C4.06132 9.37879 4.15412 9.10227 4.33026 8.86364C4.50829 8.625 4.74313 8.43845 5.0348 8.30398C5.32647 8.16951 5.65033 8.10227 6.00639 8.10227C6.3795 8.10227 6.70147 8.17519 6.9723 8.32102C7.24503 8.46496 7.45526 8.6572 7.60298 8.89773C7.7526 9.13826 7.82647 9.40152 7.82457 9.6875C7.82647 10.0133 7.73556 10.2898 7.55185 10.517C7.37003 10.7443 7.1276 10.8968 6.82457 10.9744V11.0199C7.21094 11.0786 7.51018 11.232 7.7223 11.4801C7.93632 11.7282 8.04238 12.036 8.04048 12.4034C8.04238 12.7235 7.95336 13.0104 7.77344 13.2642C7.59541 13.518 7.35204 13.7178 7.04332 13.8636C6.73461 14.0076 6.38139 14.0795 5.98366 14.0795ZM10.3956 14.0966C10.1191 14.0966 9.86908 14.0455 9.6456 13.9432C9.42211 13.839 9.24503 13.6884 9.11435 13.4915C8.98556 13.2945 8.92116 13.053 8.92116 12.767C8.92116 12.5208 8.96851 12.3182 9.06321 12.1591C9.15791 12 9.28575 11.8741 9.44673 11.7812C9.60772 11.6884 9.78764 11.6184 9.98651 11.571C10.1854 11.5237 10.388 11.4877 10.5945 11.4631C10.8558 11.4328 11.0679 11.4081 11.2308 11.3892C11.3937 11.3684 11.5121 11.3352 11.5859 11.2898C11.6598 11.2443 11.6967 11.1705 11.6967 11.0682V11.0483C11.6967 10.8002 11.6267 10.608 11.4865 10.4716C11.3482 10.3352 11.1418 10.267 10.8672 10.267C10.5812 10.267 10.3558 10.3305 10.1911 10.4574C10.0282 10.5824 9.91548 10.7216 9.85298 10.875L9.05469 10.6932C9.14938 10.428 9.28764 10.214 9.46946 10.0511C9.65317 9.88636 9.86435 9.76705 10.103 9.69318C10.3416 9.61742 10.5926 9.57955 10.8558 9.57955C11.0301 9.57955 11.2147 9.60038 11.4098 9.64205C11.6068 9.68182 11.7905 9.75568 11.9609 9.86364C12.1333 9.97159 12.2744 10.1259 12.3842 10.3267C12.4941 10.5256 12.549 10.7841 12.549 11.1023V14H11.7195V13.4034H11.6854C11.6304 13.5133 11.5481 13.6212 11.4382 13.7273C11.3284 13.8333 11.1873 13.9214 11.0149 13.9915C10.8426 14.0616 10.6361 14.0966 10.3956 14.0966ZM10.5803 13.4148C10.8151 13.4148 11.0159 13.3684 11.1825 13.2756C11.3511 13.1828 11.4789 13.0616 11.5661 12.9119C11.6551 12.7604 11.6996 12.5985 11.6996 12.4261V11.8636C11.6693 11.8939 11.6106 11.9223 11.5234 11.9489C11.4382 11.9735 11.3407 11.9953 11.2308 12.0142C11.121 12.0312 11.014 12.0473 10.9098 12.0625C10.8056 12.0758 10.7185 12.0871 10.6484 12.0966C10.4837 12.1174 10.3331 12.1525 10.1967 12.2017C10.0623 12.2509 9.95431 12.322 9.87287 12.4148C9.79332 12.5057 9.75355 12.6269 9.75355 12.7784C9.75355 12.9886 9.8312 13.1477 9.98651 13.2557C10.1418 13.3617 10.3397 13.4148 10.5803 13.4148ZM16.4702 9.63636V10.3693H14.5185V14H13.6804V9.63636H16.4702ZM18.4347 14.0966C18.1581 14.0966 17.9081 14.0455 17.6847 13.9432C17.4612 13.839 17.2841 13.6884 17.1534 13.4915C17.0246 13.2945 16.9602 13.053 16.9602 12.767C16.9602 12.5208 17.0076 12.3182 17.1023 12.1591C17.197 12 17.3248 11.8741 17.4858 11.7812C17.6468 11.6884 17.8267 11.6184 18.0256 11.571C18.2244 11.5237 18.4271 11.4877 18.6335 11.4631C18.8949 11.4328 19.107 11.4081 19.2699 11.3892C19.4328 11.3684 19.5511 11.3352 19.625 11.2898C19.6989 11.2443 19.7358 11.1705 19.7358 11.0682V11.0483C19.7358 10.8002 19.6657 10.608 19.5256 10.4716C19.3873 10.3352 19.1809 10.267 18.9062 10.267C18.6203 10.267 18.3949 10.3305 18.2301 10.4574C18.0672 10.5824 17.9545 10.7216 17.892 10.875L17.0938 10.6932C17.1884 10.428 17.3267 10.214 17.5085 10.0511C17.6922 9.88636 17.9034 9.76705 18.142 9.69318C18.3807 9.61742 18.6316 9.57955 18.8949 9.57955C19.0691 9.57955 19.2538 9.60038 19.4489 9.64205C19.6458 9.68182 19.8295 9.75568 20 9.86364C20.1723 9.97159 20.3134 10.1259 20.4233 10.3267C20.5331 10.5256 20.5881 10.7841 20.5881 11.1023V14H19.7585V13.4034H19.7244C19.6695 13.5133 19.5871 13.6212 19.4773 13.7273C19.3674 13.8333 19.2263 13.9214 19.054 13.9915C18.8816 14.0616 18.6752 14.0966 18.4347 14.0966ZM18.6193 13.4148C18.8542 13.4148 19.0549 13.3684 19.2216 13.2756C19.3902 13.1828 19.518 13.0616 19.6051 12.9119C19.6941 12.7604 19.7386 12.5985 19.7386 12.4261V11.8636C19.7083 11.8939 19.6496 11.9223 19.5625 11.9489C19.4773 11.9735 19.3797 11.9953 19.2699 12.0142C19.16 12.0312 19.053 12.0473 18.9489 12.0625C18.8447 12.0758 18.7576 12.0871 18.6875 12.0966C18.5227 12.1174 18.3722 12.1525 18.2358 12.2017C18.1013 12.2509 17.9934 12.322 17.9119 12.4148C17.8324 12.5057 17.7926 12.6269 17.7926 12.7784C17.7926 12.9886 17.8703 13.1477 18.0256 13.2557C18.1809 13.3617 18.3788 13.4148 18.6193 13.4148ZM21.4609 12.8466H22.3303C22.3416 13.0246 22.4221 13.1619 22.5717 13.2585C22.7232 13.3551 22.9193 13.4034 23.1598 13.4034C23.4041 13.4034 23.6125 13.3513 23.7848 13.2472C23.9571 13.1411 24.0433 12.9773 24.0433 12.7557C24.0433 12.6231 24.0102 12.5076 23.9439 12.4091C23.8795 12.3087 23.7876 12.2311 23.6683 12.1761C23.5509 12.1212 23.4117 12.0938 23.2507 12.0938H22.5405V11.4261H23.2507C23.4912 11.4261 23.6712 11.3712 23.7905 11.2614C23.9098 11.1515 23.9695 11.0142 23.9695 10.8494C23.9695 10.6714 23.9051 10.5284 23.7763 10.4205C23.6494 10.3106 23.4723 10.2557 23.245 10.2557C23.014 10.2557 22.8217 10.3078 22.6683 10.4119C22.5149 10.5142 22.4344 10.6468 22.4268 10.8097H21.5689C21.5746 10.5653 21.6484 10.3513 21.7905 10.1676C21.9344 9.98201 22.1276 9.83807 22.37 9.7358C22.6143 9.63163 22.8918 9.57955 23.2024 9.57955C23.5263 9.57955 23.8066 9.63163 24.0433 9.7358C24.2801 9.83996 24.4628 9.9839 24.5916 10.1676C24.7223 10.3513 24.7876 10.5625 24.7876 10.8011C24.7876 11.0417 24.7157 11.2386 24.5717 11.392C24.4297 11.5436 24.2441 11.6525 24.0149 11.7188V11.7642C24.1835 11.7756 24.3331 11.8267 24.4638 11.9176C24.5945 12.0085 24.6967 12.1288 24.7706 12.2784C24.8445 12.428 24.8814 12.5975 24.8814 12.7869C24.8814 13.054 24.8075 13.285 24.6598 13.4801C24.514 13.6752 24.3113 13.8258 24.0518 13.9318C23.7943 14.036 23.4998 14.0881 23.1683 14.0881C22.8464 14.0881 22.5575 14.0379 22.3018 13.9375C22.0481 13.8352 21.8464 13.6913 21.6967 13.5057C21.549 13.3201 21.4704 13.1004 21.4609 12.8466ZM27.5966 14.0881C27.1875 14.0881 26.8305 13.9943 26.5256 13.8068C26.2206 13.6193 25.9839 13.357 25.8153 13.0199C25.6468 12.6828 25.5625 12.2888 25.5625 11.8381C25.5625 11.3854 25.6468 10.9896 25.8153 10.6506C25.9839 10.3116 26.2206 10.0483 26.5256 9.8608C26.8305 9.6733 27.1875 9.57955 27.5966 9.57955C28.0057 9.57955 28.3627 9.6733 28.6676 9.8608C28.9725 10.0483 29.2093 10.3116 29.3778 10.6506C29.5464 10.9896 29.6307 11.3854 29.6307 11.8381C29.6307 12.2888 29.5464 12.6828 29.3778 13.0199C29.2093 13.357 28.9725 13.6193 28.6676 13.8068C28.3627 13.9943 28.0057 14.0881 27.5966 14.0881ZM27.5994 13.375C27.8646 13.375 28.0843 13.3049 28.2585 13.1648C28.4328 13.0246 28.5616 12.8381 28.6449 12.6051C28.7301 12.3722 28.7727 12.1155 28.7727 11.8352C28.7727 11.5568 28.7301 11.3011 28.6449 11.0682C28.5616 10.8333 28.4328 10.6449 28.2585 10.5028C28.0843 10.3608 27.8646 10.2898 27.5994 10.2898C27.3324 10.2898 27.1108 10.3608 26.9347 10.5028C26.7604 10.6449 26.6307 10.8333 26.5455 11.0682C26.4621 11.3011 26.4205 11.5568 26.4205 11.8352C26.4205 12.1155 26.4621 12.3722 26.5455 12.6051C26.6307 12.8381 26.7604 13.0246 26.9347 13.1648C27.1108 13.3049 27.3324 13.375 27.5994 13.375ZM30.5788 14V9.63636H32.3885C32.8809 9.63636 33.2711 9.74148 33.5589 9.9517C33.8468 10.16 33.9908 10.4432 33.9908 10.8011C33.9908 11.0568 33.9093 11.2595 33.7464 11.4091C33.5836 11.5587 33.3677 11.6591 33.0987 11.7102C33.2938 11.733 33.4728 11.7917 33.6357 11.8864C33.7985 11.9792 33.9292 12.1042 34.0277 12.2614C34.1281 12.4186 34.1783 12.6061 34.1783 12.8239C34.1783 13.0549 34.1186 13.2595 33.9993 13.4375C33.88 13.6136 33.7067 13.7519 33.4794 13.8523C33.254 13.9508 32.9822 14 32.6641 14H30.5788ZM31.3771 13.2898H32.6641C32.8743 13.2898 33.0391 13.2396 33.1584 13.1392C33.2777 13.0388 33.3374 12.9025 33.3374 12.7301C33.3374 12.5275 33.2777 12.3684 33.1584 12.2528C33.0391 12.1354 32.8743 12.0767 32.6641 12.0767H31.3771V13.2898ZM31.3771 11.4545H32.397C32.5561 11.4545 32.6925 11.4318 32.8061 11.3864C32.9216 11.3409 33.0097 11.2765 33.0703 11.1932C33.1328 11.108 33.1641 11.0076 33.1641 10.892C33.1641 10.7235 33.0949 10.5919 32.9567 10.4972C32.8184 10.4025 32.629 10.3551 32.3885 10.3551H31.3771V11.4545ZM36.38 14.0966C36.1035 14.0966 35.8535 14.0455 35.63 13.9432C35.4065 13.839 35.2294 13.6884 35.0987 13.4915C34.9699 13.2945 34.9055 13.053 34.9055 12.767C34.9055 12.5208 34.9529 12.3182 35.0476 12.1591C35.1423 12 35.2701 11.8741 35.4311 11.7812C35.5921 11.6884 35.772 11.6184 35.9709 11.571C36.1697 11.5237 36.3724 11.4877 36.5788 11.4631C36.8402 11.4328 37.0523 11.4081 37.2152 11.3892C37.3781 11.3684 37.4964 11.3352 37.5703 11.2898C37.6442 11.2443 37.6811 11.1705 37.6811 11.0682V11.0483C37.6811 10.8002 37.611 10.608 37.4709 10.4716C37.3326 10.3352 37.1262 10.267 36.8516 10.267C36.5656 10.267 36.3402 10.3305 36.1754 10.4574C36.0125 10.5824 35.8999 10.7216 35.8374 10.875L35.0391 10.6932C35.1338 10.428 35.272 10.214 35.4538 10.0511C35.6375 9.88636 35.8487 9.76705 36.0874 9.69318C36.326 9.61742 36.5769 9.57955 36.8402 9.57955C37.0144 9.57955 37.1991 9.60038 37.3942 9.64205C37.5911 9.68182 37.7749 9.75568 37.9453 9.86364C38.1177 9.97159 38.2588 10.1259 38.3686 10.3267C38.4785 10.5256 38.5334 10.7841 38.5334 11.1023V14H37.7038V13.4034H37.6697C37.6148 13.5133 37.5324 13.6212 37.4226 13.7273C37.3127 13.8333 37.1716 13.9214 36.9993 13.9915C36.8269 14.0616 36.6205 14.0966 36.38 14.0966ZM36.5646 13.4148C36.7995 13.4148 37.0002 13.3684 37.1669 13.2756C37.3355 13.1828 37.4633 13.0616 37.5504 12.9119C37.6394 12.7604 37.6839 12.5985 37.6839 12.4261V11.8636C37.6536 11.8939 37.5949 11.9223 37.5078 11.9489C37.4226 11.9735 37.325 11.9953 37.2152 12.0142C37.1054 12.0312 36.9983 12.0473 36.8942 12.0625C36.79 12.0758 36.7029 12.0871 36.6328 12.0966C36.468 12.1174 36.3175 12.1525 36.1811 12.2017C36.0466 12.2509 35.9387 12.322 35.8572 12.4148C35.7777 12.5057 35.7379 12.6269 35.7379 12.7784C35.7379 12.9886 35.8156 13.1477 35.9709 13.2557C36.1262 13.3617 36.3241 13.4148 36.5646 13.4148ZM42.6222 11.4517V12.1875H40.2585V11.4517H42.6222ZM40.4972 9.63636V14H39.6648V9.63636H40.4972ZM43.2159 9.63636V14H42.3864V9.63636H43.2159ZM47.3097 11.4517V12.1875H44.946V11.4517H47.3097ZM45.1847 9.63636V14H44.3523V9.63636H45.1847ZM47.9034 9.63636V14H47.0739V9.63636H47.9034ZM50.8778 14.0881C50.4688 14.0881 50.1117 13.9943 49.8068 13.8068C49.5019 13.6193 49.2652 13.357 49.0966 13.0199C48.928 12.6828 48.8438 12.2888 48.8438 11.8381C48.8438 11.3854 48.928 10.9896 49.0966 10.6506C49.2652 10.3116 49.5019 10.0483 49.8068 9.8608C50.1117 9.6733 50.4688 9.57955 50.8778 9.57955C51.2869 9.57955 51.6439 9.6733 51.9489 9.8608C52.2538 10.0483 52.4905 10.3116 52.6591 10.6506C52.8277 10.9896 52.9119 11.3854 52.9119 11.8381C52.9119 12.2888 52.8277 12.6828 52.6591 13.0199C52.4905 13.357 52.2538 13.6193 51.9489 13.8068C51.6439 13.9943 51.2869 14.0881 50.8778 14.0881ZM50.8807 13.375C51.1458 13.375 51.3655 13.3049 51.5398 13.1648C51.714 13.0246 51.8428 12.8381 51.9261 12.6051C52.0114 12.3722 52.054 12.1155 52.054 11.8352C52.054 11.5568 52.0114 11.3011 51.9261 11.0682C51.8428 10.8333 51.714 10.6449 51.5398 10.5028C51.3655 10.3608 51.1458 10.2898 50.8807 10.2898C50.6136 10.2898 50.392 10.3608 50.2159 10.5028C50.0417 10.6449 49.9119 10.8333 49.8267 11.0682C49.7434 11.3011 49.7017 11.5568 49.7017 11.8352C49.7017 12.1155 49.7434 12.3722 49.8267 12.6051C49.9119 12.8381 50.0417 13.0246 50.2159 13.1648C50.392 13.3049 50.6136 13.375 50.8807 13.375ZM55.6982 14.0881C55.2758 14.0881 54.9122 13.9924 54.6072 13.8011C54.3042 13.608 54.0713 13.3419 53.9084 13.0028C53.7455 12.6638 53.6641 12.2756 53.6641 11.8381C53.6641 11.3949 53.7474 11.0038 53.9141 10.6648C54.0807 10.3239 54.3156 10.0578 54.6186 9.86648C54.9216 9.67519 55.2786 9.57955 55.6896 9.57955C56.0211 9.57955 56.3165 9.6411 56.576 9.7642C56.8355 9.88542 57.0447 10.0559 57.2038 10.2756C57.3648 10.4953 57.4605 10.7519 57.4908 11.0455H56.6641C56.6186 10.8409 56.5144 10.6648 56.3516 10.517C56.1906 10.3693 55.9747 10.2955 55.7038 10.2955C55.4671 10.2955 55.2597 10.358 55.0817 10.483C54.9055 10.6061 54.7682 10.7822 54.6697 11.0114C54.5713 11.2386 54.522 11.5076 54.522 11.8182C54.522 12.1364 54.5703 12.411 54.6669 12.642C54.7635 12.8731 54.8999 13.0521 55.076 13.179C55.254 13.3059 55.4633 13.3693 55.7038 13.3693C55.8648 13.3693 56.0107 13.34 56.1413 13.2812C56.2739 13.2206 56.3847 13.1345 56.4737 13.0227C56.5646 12.911 56.6281 12.7765 56.6641 12.6193H57.4908C57.4605 12.9015 57.3686 13.1534 57.2152 13.375C57.0618 13.5966 56.8563 13.7708 56.5987 13.8977C56.343 14.0246 56.0429 14.0881 55.6982 14.0881ZM58.0689 10.3693V9.63636H61.7507V10.3693H60.3274V14H59.4979V10.3693H58.0689ZM63.2884 11.1364H64.5554C65.0895 11.1364 65.5005 11.2689 65.7884 11.5341C66.0762 11.7992 66.2202 12.1411 66.2202 12.5597C66.2202 12.8324 66.1558 13.0777 66.027 13.2955C65.8982 13.5133 65.7098 13.6856 65.4616 13.8125C65.2135 13.9375 64.9115 14 64.5554 14H62.6491V9.63636H63.4815V13.267H64.5554C64.7997 13.267 65.0005 13.2036 65.1577 13.0767C65.3149 12.9479 65.3935 12.7841 65.3935 12.5852C65.3935 12.375 65.3149 12.2036 65.1577 12.071C65.0005 11.9366 64.7997 11.8693 64.5554 11.8693H63.2884V11.1364Z" fill="white"/>
				<path d="M32.1429 29.5C30.9594 29.5 30 28.5519 30 27.3824C30 26.2128 30.9594 25.2647 32.1429 25.2647C32.2849 25.2647 32.4237 25.2784 32.5581 25.3044M36.1905 24.0136C36.4884 23.9096 36.8089 23.8529 37.1429 23.8529C37.4702 23.8529 37.7847 23.9073 38.0775 24.0075M32.5581 25.3044C32.4435 24.9989 32.381 24.6684 32.381 24.3235C32.381 22.7641 33.6601 21.5 35.2381 21.5C36.7079 21.5 37.9186 22.5969 38.0775 24.0075M32.5581 25.3044C32.8403 25.3592 33.1026 25.4687 33.3333 25.6213M38.0775 24.0075C39.1965 24.3901 40 25.4406 40 26.6765C40 28.03 39.0363 29.161 37.75 29.4361" stroke="white" stroke-linecap="round"/>
				<path d="M36 29.5H35L34 29.5" stroke="white" stroke-linecap="round"/>
			</g>
			<defs>
				<clipPath id="clip0_2648_40709">
					<rect width="70" height="40" fill="white"/>
				</clipPath>
			</defs>
		</symbol>

		<symbol id="legend-gas" viewBox="0 0 70 40" fill="none">
			<g clip-path="url(#clip0_2648_40717)">
				<rect width="70" height="40" fill="white"/>
				<rect width="70" height="40" rx="5" fill="#002033" fill-opacity="0.05"/>
				<path d="M5.98366 14.0795C5.59351 14.0795 5.24503 14.0123 4.93821 13.8778C4.63329 13.7434 4.39181 13.5568 4.21378 13.3182C4.03764 13.0777 3.94295 12.7992 3.92969 12.483H4.82173C4.8331 12.6553 4.89086 12.8049 4.99503 12.9318C5.10109 13.0568 5.23935 13.1534 5.4098 13.2216C5.58026 13.2898 5.76965 13.3239 5.97798 13.3239C6.20715 13.3239 6.4098 13.2841 6.58594 13.2045C6.76397 13.125 6.90317 13.0142 7.00355 12.8722C7.10393 12.7282 7.15412 12.5625 7.15412 12.375C7.15412 12.1799 7.10393 12.0085 7.00355 11.8608C6.90507 11.7112 6.76018 11.5937 6.56889 11.5085C6.3795 11.4233 6.15033 11.3807 5.88139 11.3807H5.38991V10.6648H5.88139C6.0973 10.6648 6.2867 10.6259 6.44957 10.5483C6.61435 10.4706 6.74313 10.3627 6.83594 10.2244C6.92874 10.0843 6.97514 9.92045 6.97514 9.73295C6.97514 9.55303 6.93442 9.39678 6.85298 9.2642C6.77344 9.12973 6.6598 9.02462 6.51207 8.94886C6.36624 8.87311 6.19389 8.83523 5.99503 8.83523C5.80563 8.83523 5.62855 8.87027 5.46378 8.94034C5.3009 9.00852 5.16832 9.10701 5.06605 9.2358C4.96378 9.36269 4.90885 9.51515 4.90128 9.69318H4.05185C4.06132 9.37879 4.15412 9.10227 4.33026 8.86364C4.50829 8.625 4.74313 8.43845 5.0348 8.30398C5.32647 8.16951 5.65033 8.10227 6.00639 8.10227C6.3795 8.10227 6.70147 8.17519 6.9723 8.32102C7.24503 8.46496 7.45526 8.6572 7.60298 8.89773C7.7526 9.13826 7.82647 9.40152 7.82457 9.6875C7.82647 10.0133 7.73556 10.2898 7.55185 10.517C7.37003 10.7443 7.1276 10.8968 6.82457 10.9744V11.0199C7.21094 11.0786 7.51018 11.232 7.7223 11.4801C7.93632 11.7282 8.04238 12.036 8.04048 12.4034C8.04238 12.7235 7.95336 13.0104 7.77344 13.2642C7.59541 13.518 7.35204 13.7178 7.04332 13.8636C6.73461 14.0076 6.38139 14.0795 5.98366 14.0795ZM10.3956 14.0966C10.1191 14.0966 9.86908 14.0455 9.6456 13.9432C9.42211 13.839 9.24503 13.6884 9.11435 13.4915C8.98556 13.2945 8.92116 13.053 8.92116 12.767C8.92116 12.5208 8.96851 12.3182 9.06321 12.1591C9.15791 12 9.28575 11.8741 9.44673 11.7812C9.60772 11.6884 9.78764 11.6184 9.98651 11.571C10.1854 11.5237 10.388 11.4877 10.5945 11.4631C10.8558 11.4328 11.0679 11.4081 11.2308 11.3892C11.3937 11.3684 11.5121 11.3352 11.5859 11.2898C11.6598 11.2443 11.6967 11.1705 11.6967 11.0682V11.0483C11.6967 10.8002 11.6267 10.608 11.4865 10.4716C11.3482 10.3352 11.1418 10.267 10.8672 10.267C10.5812 10.267 10.3558 10.3305 10.1911 10.4574C10.0282 10.5824 9.91548 10.7216 9.85298 10.875L9.05469 10.6932C9.14938 10.428 9.28764 10.214 9.46946 10.0511C9.65317 9.88636 9.86435 9.76705 10.103 9.69318C10.3416 9.61742 10.5926 9.57955 10.8558 9.57955C11.0301 9.57955 11.2147 9.60038 11.4098 9.64205C11.6068 9.68182 11.7905 9.75568 11.9609 9.86364C12.1333 9.97159 12.2744 10.1259 12.3842 10.3267C12.4941 10.5256 12.549 10.7841 12.549 11.1023V14H11.7195V13.4034H11.6854C11.6304 13.5133 11.5481 13.6212 11.4382 13.7273C11.3284 13.8333 11.1873 13.9214 11.0149 13.9915C10.8426 14.0616 10.6361 14.0966 10.3956 14.0966ZM10.5803 13.4148C10.8151 13.4148 11.0159 13.3684 11.1825 13.2756C11.3511 13.1828 11.4789 13.0616 11.5661 12.9119C11.6551 12.7604 11.6996 12.5985 11.6996 12.4261V11.8636C11.6693 11.8939 11.6106 11.9223 11.5234 11.9489C11.4382 11.9735 11.3407 11.9953 11.2308 12.0142C11.121 12.0312 11.014 12.0473 10.9098 12.0625C10.8056 12.0758 10.7185 12.0871 10.6484 12.0966C10.4837 12.1174 10.3331 12.1525 10.1967 12.2017C10.0623 12.2509 9.95431 12.322 9.87287 12.4148C9.79332 12.5057 9.75355 12.6269 9.75355 12.7784C9.75355 12.9886 9.8312 13.1477 9.98651 13.2557C10.1418 13.3617 10.3397 13.4148 10.5803 13.4148ZM16.4702 9.63636V10.3693H14.5185V14H13.6804V9.63636H16.4702ZM18.4347 14.0966C18.1581 14.0966 17.9081 14.0455 17.6847 13.9432C17.4612 13.839 17.2841 13.6884 17.1534 13.4915C17.0246 13.2945 16.9602 13.053 16.9602 12.767C16.9602 12.5208 17.0076 12.3182 17.1023 12.1591C17.197 12 17.3248 11.8741 17.4858 11.7812C17.6468 11.6884 17.8267 11.6184 18.0256 11.571C18.2244 11.5237 18.4271 11.4877 18.6335 11.4631C18.8949 11.4328 19.107 11.4081 19.2699 11.3892C19.4328 11.3684 19.5511 11.3352 19.625 11.2898C19.6989 11.2443 19.7358 11.1705 19.7358 11.0682V11.0483C19.7358 10.8002 19.6657 10.608 19.5256 10.4716C19.3873 10.3352 19.1809 10.267 18.9062 10.267C18.6203 10.267 18.3949 10.3305 18.2301 10.4574C18.0672 10.5824 17.9545 10.7216 17.892 10.875L17.0938 10.6932C17.1884 10.428 17.3267 10.214 17.5085 10.0511C17.6922 9.88636 17.9034 9.76705 18.142 9.69318C18.3807 9.61742 18.6316 9.57955 18.8949 9.57955C19.0691 9.57955 19.2538 9.60038 19.4489 9.64205C19.6458 9.68182 19.8295 9.75568 20 9.86364C20.1723 9.97159 20.3134 10.1259 20.4233 10.3267C20.5331 10.5256 20.5881 10.7841 20.5881 11.1023V14H19.7585V13.4034H19.7244C19.6695 13.5133 19.5871 13.6212 19.4773 13.7273C19.3674 13.8333 19.2263 13.9214 19.054 13.9915C18.8816 14.0616 18.6752 14.0966 18.4347 14.0966ZM18.6193 13.4148C18.8542 13.4148 19.0549 13.3684 19.2216 13.2756C19.3902 13.1828 19.518 13.0616 19.6051 12.9119C19.6941 12.7604 19.7386 12.5985 19.7386 12.4261V11.8636C19.7083 11.8939 19.6496 11.9223 19.5625 11.9489C19.4773 11.9735 19.3797 11.9953 19.2699 12.0142C19.16 12.0312 19.053 12.0473 18.9489 12.0625C18.8447 12.0758 18.7576 12.0871 18.6875 12.0966C18.5227 12.1174 18.3722 12.1525 18.2358 12.2017C18.1013 12.2509 17.9934 12.322 17.9119 12.4148C17.8324 12.5057 17.7926 12.6269 17.7926 12.7784C17.7926 12.9886 17.8703 13.1477 18.0256 13.2557C18.1809 13.3617 18.3788 13.4148 18.6193 13.4148ZM21.4609 12.8466H22.3303C22.3416 13.0246 22.4221 13.1619 22.5717 13.2585C22.7232 13.3551 22.9193 13.4034 23.1598 13.4034C23.4041 13.4034 23.6125 13.3513 23.7848 13.2472C23.9571 13.1411 24.0433 12.9773 24.0433 12.7557C24.0433 12.6231 24.0102 12.5076 23.9439 12.4091C23.8795 12.3087 23.7876 12.2311 23.6683 12.1761C23.5509 12.1212 23.4117 12.0938 23.2507 12.0938H22.5405V11.4261H23.2507C23.4912 11.4261 23.6712 11.3712 23.7905 11.2614C23.9098 11.1515 23.9695 11.0142 23.9695 10.8494C23.9695 10.6714 23.9051 10.5284 23.7763 10.4205C23.6494 10.3106 23.4723 10.2557 23.245 10.2557C23.014 10.2557 22.8217 10.3078 22.6683 10.4119C22.5149 10.5142 22.4344 10.6468 22.4268 10.8097H21.5689C21.5746 10.5653 21.6484 10.3513 21.7905 10.1676C21.9344 9.98201 22.1276 9.83807 22.37 9.7358C22.6143 9.63163 22.8918 9.57955 23.2024 9.57955C23.5263 9.57955 23.8066 9.63163 24.0433 9.7358C24.2801 9.83996 24.4628 9.9839 24.5916 10.1676C24.7223 10.3513 24.7876 10.5625 24.7876 10.8011C24.7876 11.0417 24.7157 11.2386 24.5717 11.392C24.4297 11.5436 24.2441 11.6525 24.0149 11.7188V11.7642C24.1835 11.7756 24.3331 11.8267 24.4638 11.9176C24.5945 12.0085 24.6967 12.1288 24.7706 12.2784C24.8445 12.428 24.8814 12.5975 24.8814 12.7869C24.8814 13.054 24.8075 13.285 24.6598 13.4801C24.514 13.6752 24.3113 13.8258 24.0518 13.9318C23.7943 14.036 23.4998 14.0881 23.1683 14.0881C22.8464 14.0881 22.5575 14.0379 22.3018 13.9375C22.0481 13.8352 21.8464 13.6913 21.6967 13.5057C21.549 13.3201 21.4704 13.1004 21.4609 12.8466ZM27.5966 14.0881C27.1875 14.0881 26.8305 13.9943 26.5256 13.8068C26.2206 13.6193 25.9839 13.357 25.8153 13.0199C25.6468 12.6828 25.5625 12.2888 25.5625 11.8381C25.5625 11.3854 25.6468 10.9896 25.8153 10.6506C25.9839 10.3116 26.2206 10.0483 26.5256 9.8608C26.8305 9.6733 27.1875 9.57955 27.5966 9.57955C28.0057 9.57955 28.3627 9.6733 28.6676 9.8608C28.9725 10.0483 29.2093 10.3116 29.3778 10.6506C29.5464 10.9896 29.6307 11.3854 29.6307 11.8381C29.6307 12.2888 29.5464 12.6828 29.3778 13.0199C29.2093 13.357 28.9725 13.6193 28.6676 13.8068C28.3627 13.9943 28.0057 14.0881 27.5966 14.0881ZM27.5994 13.375C27.8646 13.375 28.0843 13.3049 28.2585 13.1648C28.4328 13.0246 28.5616 12.8381 28.6449 12.6051C28.7301 12.3722 28.7727 12.1155 28.7727 11.8352C28.7727 11.5568 28.7301 11.3011 28.6449 11.0682C28.5616 10.8333 28.4328 10.6449 28.2585 10.5028C28.0843 10.3608 27.8646 10.2898 27.5994 10.2898C27.3324 10.2898 27.1108 10.3608 26.9347 10.5028C26.7604 10.6449 26.6307 10.8333 26.5455 11.0682C26.4621 11.3011 26.4205 11.5568 26.4205 11.8352C26.4205 12.1155 26.4621 12.3722 26.5455 12.6051C26.6307 12.8381 26.7604 13.0246 26.9347 13.1648C27.1108 13.3049 27.3324 13.375 27.5994 13.375ZM30.5788 14V9.63636H32.3885C32.8809 9.63636 33.2711 9.74148 33.5589 9.9517C33.8468 10.16 33.9908 10.4432 33.9908 10.8011C33.9908 11.0568 33.9093 11.2595 33.7464 11.4091C33.5836 11.5587 33.3677 11.6591 33.0987 11.7102C33.2938 11.733 33.4728 11.7917 33.6357 11.8864C33.7985 11.9792 33.9292 12.1042 34.0277 12.2614C34.1281 12.4186 34.1783 12.6061 34.1783 12.8239C34.1783 13.0549 34.1186 13.2595 33.9993 13.4375C33.88 13.6136 33.7067 13.7519 33.4794 13.8523C33.254 13.9508 32.9822 14 32.6641 14H30.5788ZM31.3771 13.2898H32.6641C32.8743 13.2898 33.0391 13.2396 33.1584 13.1392C33.2777 13.0388 33.3374 12.9025 33.3374 12.7301C33.3374 12.5275 33.2777 12.3684 33.1584 12.2528C33.0391 12.1354 32.8743 12.0767 32.6641 12.0767H31.3771V13.2898ZM31.3771 11.4545H32.397C32.5561 11.4545 32.6925 11.4318 32.8061 11.3864C32.9216 11.3409 33.0097 11.2765 33.0703 11.1932C33.1328 11.108 33.1641 11.0076 33.1641 10.892C33.1641 10.7235 33.0949 10.5919 32.9567 10.4972C32.8184 10.4025 32.629 10.3551 32.3885 10.3551H31.3771V11.4545ZM36.38 14.0966C36.1035 14.0966 35.8535 14.0455 35.63 13.9432C35.4065 13.839 35.2294 13.6884 35.0987 13.4915C34.9699 13.2945 34.9055 13.053 34.9055 12.767C34.9055 12.5208 34.9529 12.3182 35.0476 12.1591C35.1423 12 35.2701 11.8741 35.4311 11.7812C35.5921 11.6884 35.772 11.6184 35.9709 11.571C36.1697 11.5237 36.3724 11.4877 36.5788 11.4631C36.8402 11.4328 37.0523 11.4081 37.2152 11.3892C37.3781 11.3684 37.4964 11.3352 37.5703 11.2898C37.6442 11.2443 37.6811 11.1705 37.6811 11.0682V11.0483C37.6811 10.8002 37.611 10.608 37.4709 10.4716C37.3326 10.3352 37.1262 10.267 36.8516 10.267C36.5656 10.267 36.3402 10.3305 36.1754 10.4574C36.0125 10.5824 35.8999 10.7216 35.8374 10.875L35.0391 10.6932C35.1338 10.428 35.272 10.214 35.4538 10.0511C35.6375 9.88636 35.8487 9.76705 36.0874 9.69318C36.326 9.61742 36.5769 9.57955 36.8402 9.57955C37.0144 9.57955 37.1991 9.60038 37.3942 9.64205C37.5911 9.68182 37.7749 9.75568 37.9453 9.86364C38.1177 9.97159 38.2588 10.1259 38.3686 10.3267C38.4785 10.5256 38.5334 10.7841 38.5334 11.1023V14H37.7038V13.4034H37.6697C37.6148 13.5133 37.5324 13.6212 37.4226 13.7273C37.3127 13.8333 37.1716 13.9214 36.9993 13.9915C36.8269 14.0616 36.6205 14.0966 36.38 14.0966ZM36.5646 13.4148C36.7995 13.4148 37.0002 13.3684 37.1669 13.2756C37.3355 13.1828 37.4633 13.0616 37.5504 12.9119C37.6394 12.7604 37.6839 12.5985 37.6839 12.4261V11.8636C37.6536 11.8939 37.5949 11.9223 37.5078 11.9489C37.4226 11.9735 37.325 11.9953 37.2152 12.0142C37.1054 12.0312 36.9983 12.0473 36.8942 12.0625C36.79 12.0758 36.7029 12.0871 36.6328 12.0966C36.468 12.1174 36.3175 12.1525 36.1811 12.2017C36.0466 12.2509 35.9387 12.322 35.8572 12.4148C35.7777 12.5057 35.7379 12.6269 35.7379 12.7784C35.7379 12.9886 35.8156 13.1477 35.9709 13.2557C36.1262 13.3617 36.3241 13.4148 36.5646 13.4148ZM42.6222 11.4517V12.1875H40.2585V11.4517H42.6222ZM40.4972 9.63636V14H39.6648V9.63636H40.4972ZM43.2159 9.63636V14H42.3864V9.63636H43.2159ZM47.3097 11.4517V12.1875H44.946V11.4517H47.3097ZM45.1847 9.63636V14H44.3523V9.63636H45.1847ZM47.9034 9.63636V14H47.0739V9.63636H47.9034ZM50.8778 14.0881C50.4688 14.0881 50.1117 13.9943 49.8068 13.8068C49.5019 13.6193 49.2652 13.357 49.0966 13.0199C48.928 12.6828 48.8438 12.2888 48.8438 11.8381C48.8438 11.3854 48.928 10.9896 49.0966 10.6506C49.2652 10.3116 49.5019 10.0483 49.8068 9.8608C50.1117 9.6733 50.4688 9.57955 50.8778 9.57955C51.2869 9.57955 51.6439 9.6733 51.9489 9.8608C52.2538 10.0483 52.4905 10.3116 52.6591 10.6506C52.8277 10.9896 52.9119 11.3854 52.9119 11.8381C52.9119 12.2888 52.8277 12.6828 52.6591 13.0199C52.4905 13.357 52.2538 13.6193 51.9489 13.8068C51.6439 13.9943 51.2869 14.0881 50.8778 14.0881ZM50.8807 13.375C51.1458 13.375 51.3655 13.3049 51.5398 13.1648C51.714 13.0246 51.8428 12.8381 51.9261 12.6051C52.0114 12.3722 52.054 12.1155 52.054 11.8352C52.054 11.5568 52.0114 11.3011 51.9261 11.0682C51.8428 10.8333 51.714 10.6449 51.5398 10.5028C51.3655 10.3608 51.1458 10.2898 50.8807 10.2898C50.6136 10.2898 50.392 10.3608 50.2159 10.5028C50.0417 10.6449 49.9119 10.8333 49.8267 11.0682C49.7434 11.3011 49.7017 11.5568 49.7017 11.8352C49.7017 12.1155 49.7434 12.3722 49.8267 12.6051C49.9119 12.8381 50.0417 13.0246 50.2159 13.1648C50.392 13.3049 50.6136 13.375 50.8807 13.375ZM55.6982 14.0881C55.2758 14.0881 54.9122 13.9924 54.6072 13.8011C54.3042 13.608 54.0713 13.3419 53.9084 13.0028C53.7455 12.6638 53.6641 12.2756 53.6641 11.8381C53.6641 11.3949 53.7474 11.0038 53.9141 10.6648C54.0807 10.3239 54.3156 10.0578 54.6186 9.86648C54.9216 9.67519 55.2786 9.57955 55.6896 9.57955C56.0211 9.57955 56.3165 9.6411 56.576 9.7642C56.8355 9.88542 57.0447 10.0559 57.2038 10.2756C57.3648 10.4953 57.4605 10.7519 57.4908 11.0455H56.6641C56.6186 10.8409 56.5144 10.6648 56.3516 10.517C56.1906 10.3693 55.9747 10.2955 55.7038 10.2955C55.4671 10.2955 55.2597 10.358 55.0817 10.483C54.9055 10.6061 54.7682 10.7822 54.6697 11.0114C54.5713 11.2386 54.522 11.5076 54.522 11.8182C54.522 12.1364 54.5703 12.411 54.6669 12.642C54.7635 12.8731 54.8999 13.0521 55.076 13.179C55.254 13.3059 55.4633 13.3693 55.7038 13.3693C55.8648 13.3693 56.0107 13.34 56.1413 13.2812C56.2739 13.2206 56.3847 13.1345 56.4737 13.0227C56.5646 12.911 56.6281 12.7765 56.6641 12.6193H57.4908C57.4605 12.9015 57.3686 13.1534 57.2152 13.375C57.0618 13.5966 56.8563 13.7708 56.5987 13.8977C56.343 14.0246 56.0429 14.0881 55.6982 14.0881ZM58.0689 10.3693V9.63636H61.7507V10.3693H60.3274V14H59.4979V10.3693H58.0689ZM63.2884 11.1364H64.5554C65.0895 11.1364 65.5005 11.2689 65.7884 11.5341C66.0762 11.7992 66.2202 12.1411 66.2202 12.5597C66.2202 12.8324 66.1558 13.0777 66.027 13.2955C65.8982 13.5133 65.7098 13.6856 65.4616 13.8125C65.2135 13.9375 64.9115 14 64.5554 14H62.6491V9.63636H63.4815V13.267H64.5554C64.7997 13.267 65.0005 13.2036 65.1577 13.0767C65.3149 12.9479 65.3935 12.7841 65.3935 12.5852C65.3935 12.375 65.3149 12.2036 65.1577 12.071C65.0005 11.9366 64.7997 11.8693 64.5554 11.8693H63.2884V11.1364Z" fill="white"/>
				<path d="M32.1429 29.5C30.9594 29.5 30 28.5519 30 27.3824C30 26.2128 30.9594 25.2647 32.1429 25.2647C32.2849 25.2647 32.4237 25.2784 32.5581 25.3044M36.1905 24.0136C36.4884 23.9096 36.8089 23.8529 37.1429 23.8529C37.4702 23.8529 37.7847 23.9073 38.0775 24.0075M32.5581 25.3044C32.4435 24.9989 32.381 24.6684 32.381 24.3235C32.381 22.7641 33.6601 21.5 35.2381 21.5C36.7079 21.5 37.9186 22.5969 38.0775 24.0075M32.5581 25.3044C32.8403 25.3592 33.1026 25.4687 33.3333 25.6213M38.0775 24.0075C39.1965 24.3901 40 25.4406 40 26.6765C40 28.03 39.0363 29.161 37.75 29.4361" stroke="white" stroke-linecap="round"/>
				<path d="M36 29.5H35L34 29.5" stroke="white" stroke-linecap="round"/>
			</g>
			<defs>
				<clipPath id="clip0_2648_40717">
					<rect width="70" height="40" fill="white"/>
				</clipPath>
			</defs>
		</symbol>








	</defs>
</svg>