<svg xmlns="http://www.w3.org/2000/svg">
	<defs>

		<symbol id="select" viewBox="0 0 20 21" fill="none">
			<path d="M10 13L14 8.5H6L10 13Z" fill="#002033" fill-opacity="0.35"/>
			<rect x="0.5" y="1" width="19" height="19" rx="3.5" stroke="#002033" stroke-opacity="0.35"/>
		</symbol>

		<symbol id="fire" fill="none" viewBox="0 0 13 15" >
			<path d="M12.1663 9.62523C12.1663 12.6388 10.3119 13.9612 8.87881 14.4072C8.57323 14.5023 8.3724 14.146 8.55519 13.8833C9.17881 12.9871 9.89968 11.6198 9.89968 10.3336C9.89968 8.95189 8.73513 7.32067 7.82576 6.31455C7.61786 6.08453 7.25523 6.23673 7.24389 6.54658C7.20633 7.57309 7.04434 8.94649 6.34584 10.0229C6.23341 10.1961 5.99474 10.2105 5.86664 10.0485C5.64839 9.77245 5.43015 9.43147 5.2119 9.16212C5.09434 9.01703 4.88187 9.01503 4.74627 9.14343C4.2176 9.64401 3.47745 10.4246 3.47745 11.3961C3.47745 12.0968 3.8114 12.969 4.15564 13.6443C4.31196 13.9511 4.02195 14.3109 3.72402 14.1384C2.42363 13.3856 0.833008 11.8259 0.833008 9.62523C0.833008 7.39649 3.88613 4.30906 5.05188 1.39221C5.23583 0.931938 5.80274 0.715659 6.19703 1.01602C8.58496 2.83506 12.1663 6.35139 12.1663 9.62523Z" stroke="currentColor" />
		</symbol>

		<symbol id="gas" fill="none" viewBox="0 0 17 13">
			<path d="M4.45271 12.4583C2.77613 12.4583 1.41699 11.1152 1.41699 9.45833C1.41699 7.80148 2.77613 6.45833 4.45271 6.45833C4.65396 6.45833 4.85064 6.47769 5.04094 6.51461M10.1868 4.68594C10.6088 4.53854 11.063 4.45833 11.536 4.45833C11.9998 4.45833 12.4453 4.5354 12.8602 4.67728M5.04094 6.51461C4.87866 6.08177 4.79001 5.61362 4.79001 5.125C4.79001 2.91586 6.60219 1.125 8.83763 1.125C10.9199 1.125 12.6349 2.67888 12.8602 4.67728M5.04094 6.51461C5.44074 6.59219 5.8124 6.74733 6.13921 6.96352M12.8602 4.67728C14.4453 5.21933 15.5837 6.70746 15.5837 8.45833C15.5837 10.3758 14.2184 11.9781 12.3962 12.3678" stroke="currentColor" stroke-linecap="round"/>
			<path d="M9.91634 12.4585H8.49967L7.08301 12.4585" stroke="currentColor" stroke-linecap="round"/>
		</symbol>

		<symbol id="arrow-left" viewBox="0 0 5 10">
			<path fill-rule="evenodd" clip-rule="evenodd" d="M0.00260422 5L4.10597 -3.12739e-08L4.83594 0.889471L1.46254 5L4.83594 9.11053L4.10597 10L0.00260422 5Z" fill="#96A5AE"/>
		</symbol>

		<symbol id="arrow-right" viewBox="0 0 5 10">
			<path fill-rule="evenodd" clip-rule="evenodd" d="M4.83333 5L0.729965 10L0 9.11053L3.3734 5L5.89824e-07 0.889471L0.729966 0L4.83333 5Z" fill="#96A5AE"/>
		</symbol>

		<symbol id="sorting" viewBox="0 0 10 7">
			<path d="M4 0V1L0 1V0H4Z" fill="#5C8197"/>
			<path d="M7 4V3L0 3V4L7 4Z" fill="#5C8197"/>
			<path d="M10 7V6L0 6V7L10 7Z" fill="#5C8197"/>
		</symbol>

		<symbol id="filter" viewBox="0 0 7 7">
			<path d="M6.9 0H0.1C0.0447715 0 0 0.0447715 0 0.1V0.917157C0 0.970201 0.0210715 1.02107 0.0585787 1.05858L2.97071 3.97071C2.98946 3.98946 3 4.0149 3 4.04142V6.75858C3 6.84767 3.10771 6.89229 3.17071 6.82929L3.97071 6.02929C3.98946 6.01054 4 5.9851 4 5.95858V4.04142C4 4.0149 4.01054 3.98946 4.02929 3.97071L6.94142 1.05858C6.97893 1.02107 7 0.970201 7 0.917157V0.1C7 0.0447715 6.95523 0 6.9 0Z" fill="#33617D" fill-opacity="0.8"/>
		</symbol>

		<symbol id="search" viewBox="0 0 10 10">
			<path fill-rule="evenodd" clip-rule="evenodd" d="M6.4528 7.15995C5.77546 7.68647 4.92434 8 4 8C1.79086 8 0 6.20914 0 4C0 1.79086 1.79086 0 4 0C6.20914 0 8 1.79086 8 4C8 4.92437 7.68645 5.7755 7.15991 6.45285L10.004 9.2969L9.29686 10.004L6.4528 7.15995ZM7 4C7 5.65685 5.65685 7 4 7C2.34315 7 1 5.65685 1 4C1 2.34315 2.34315 1 4 1C5.65685 1 7 2.34315 7 4Z" fill="#597E95"/>
		</symbol>

		<symbol id="arrow-down" viewBox="0 0 10 6">
			<path fill-rule="evenodd" clip-rule="evenodd" d="M5 6L0 0.906164L0.889471 0L5 4.18767L9.11053 7.32196e-07L10 0.906165L5 6Z" fill="#B8CAD5"/>
		</symbol>
		<symbol id="arrow-up" viewBox="0 0 10 6">
			<path fill-rule="evenodd" clip-rule="evenodd" d="M5 -2.74886e-08L10 5.09384L9.11053 6L5 1.81233L0.889471 6L2.36334e-08 5.09384L5 -2.74886e-08Z" fill="#B8CAD5"/>
		</symbol>
		<symbol id="filtration" viewBox="0 0 14 14" fill="none">
			<path fill-rule="evenodd" clip-rule="evenodd" d="M2.41421 1L1 2.41422L5.24264 6.65686L1 10.8995L2.41421 12.3137L6.65685 8.07107L10.8995 12.3137L12.3137 10.8995L8.07107 6.65685L12.3137 2.41421L10.8995 1L6.65685 5.24264L2.41421 1Z" fill="#EB5757" stroke="#FCE6E6"/>
		</symbol>
		
		<symbol id="export" viewBox="0 0 16 14" fill="none">
			<path d="M2 2C2 0.89543 2.89543 0 4 0H14C15.1046 0 16 0.895431 16 2V12C16 13.1046 15.1046 14 14 14H4C2.89543 14 2 13.1046 2 12V2Z" fill="none"/>
			<path d="M2.5 2C2.5 1.17157 3.17157 0.5 4 0.5H14C14.8284 0.5 15.5 1.17157 15.5 2V12C15.5 12.8284 14.8284 13.5 14 13.5H4C3.17157 13.5 2.5 12.8284 2.5 12V2Z" stroke="#66889D" stroke-opacity="0.6" stroke-linejoin="round"/>
			<rect x="1" y="3" width="3" height="8" fill="#EFFFEF"/>
			<path d="M1 7H9M9 7L6 4M9 7L6 10" stroke="#66889D" stroke-opacity="0.6"/>
		</symbol>

		

		<symbol id="refresh" viewBox="0 0 12 12" fill="none">
			<path d="M1.98123 1.77231L0.604818 0.166504L0.0214844 4.24984H4.10482L2.74175 2.6596C3.58283 1.83887 4.7327 1.33317 6.00068 1.33317C8.57801 1.33317 10.6673 3.42251 10.6673 5.99984C10.6673 8.57717 8.57801 10.6665 6.00068 10.6665C4.09942 10.6665 2.46371 9.52952 1.7364 7.8984L0.671639 8.37247C1.20458 9.56946 2.12499 10.5522 3.28457 11.1623C4.44415 11.7723 5.77536 11.9743 7.06369 11.7355C8.35203 11.4967 9.52246 10.8311 10.3864 9.84602C11.2503 8.86091 11.7574 7.61361 11.826 6.30513C11.8946 4.99665 11.5206 3.70319 10.7644 2.63316C10.0082 1.56313 8.91373 0.778863 7.65741 0.406724C6.40109 0.0345846 5.05607 0.0962495 3.83907 0.581782C3.14494 0.858714 2.51551 1.26434 1.98123 1.77231Z" fill="#A6B1B8"/>
		</symbol>


		<symbol id="calendar" viewBox="0 0 12 12" fill="none" >
			<path fill-rule="evenodd" clip-rule="evenodd" d="M3.5 1C3.22386 1 3 1.22386 3 1.5V2H2C1.44772 2 1 2.44772 1 3V10C1 10.5523 1.44772 11 2 11H10C10.5523 11 11 10.5523 11 10V3C11 2.44772 10.5523 2 10 2H9V1.5C9 1.22386 8.77614 1 8.5 1C8.22386 1 8 1.22386 8 1.5V2H4V1.5C4 1.22386 3.77614 1 3.5 1ZM10 4H2L2 10H10V4Z" fill="#000" fill-opacity="1"/>
		</symbol>

		<symbol id="task-new" viewBox="0 0 12 12" fill="none">
			<path d="M11.501 5.48588C11.4488 7.32437 10.6668 8.57857 9.6794 9.37501C8.67602 10.1843 7.45412 10.525 6.54885 10.5002C5.82847 10.4805 5.39461 10.4042 4.8797 10.2322C4.79051 10.2024 4.71216 10.2024 4.67413 10.2038C4.62945 10.2054 4.58916 10.2113 4.55829 10.2169C4.49661 10.2282 4.43253 10.2459 4.37439 10.2637C4.25633 10.2998 4.11047 10.3529 3.95556 10.4113C3.85528 10.4491 3.74921 10.4899 3.63854 10.5325C3.39488 10.6262 3.12893 10.7285 2.85341 10.8265C2.45279 10.9689 2.06771 11.0889 1.75972 11.1454C1.64295 11.1668 1.55003 11.1766 1.47965 11.1781C1.47682 11.1001 1.47915 10.9985 1.48808 10.8729C1.51242 10.5301 1.57917 10.0896 1.65688 9.63028C1.68418 9.46892 1.71308 9.30395 1.74148 9.14181C1.79167 8.85528 1.8403 8.57761 1.87583 8.34444C1.90382 8.16068 1.92648 7.98728 1.93576 7.84495C1.94036 7.77446 1.94259 7.69884 1.93776 7.62705C1.93482 7.58329 1.92696 7.48356 1.881 7.37861C1.63913 6.71961 1.50082 6.31104 1.50082 5.50006C1.50082 2.67408 3.70563 0.557645 6.55018 0.49996C9.34124 0.44336 11.5713 3.00865 11.501 5.48588ZM1.36541 11.1697C1.36543 11.1697 1.366 11.1699 1.36705 11.1702L1.36541 11.1697Z" stroke="#EB5757"/>
			<path d="M6.5 3.5V5.5" stroke="#EB5757" stroke-linecap="round"/>
			<circle cx="6.5" cy="7.5" r="0.5" fill="#EB5757"/>
		</symbol>

		<symbol id="task-process" viewBox="0 0 12 12" fill="none">
			<path d="M11.501 5.48588C11.4488 7.32437 10.6668 8.57857 9.6794 9.37501C8.67602 10.1843 7.45412 10.525 6.54885 10.5002C5.82847 10.4805 5.39461 10.4042 4.8797 10.2322C4.79051 10.2024 4.71216 10.2024 4.67413 10.2038C4.62945 10.2054 4.58916 10.2113 4.55829 10.2169C4.49661 10.2282 4.43253 10.2459 4.37439 10.2637C4.25633 10.2998 4.11047 10.3529 3.95556 10.4113C3.85528 10.4491 3.74921 10.4899 3.63854 10.5325C3.39488 10.6262 3.12893 10.7285 2.85341 10.8265C2.45279 10.9689 2.06771 11.0889 1.75972 11.1454C1.64295 11.1668 1.55003 11.1766 1.47965 11.1781C1.47682 11.1001 1.47915 10.9985 1.48808 10.8729C1.51242 10.5301 1.57917 10.0896 1.65688 9.63028C1.68418 9.46892 1.71308 9.30395 1.74148 9.14181C1.79167 8.85528 1.8403 8.57761 1.87583 8.34444C1.90382 8.16068 1.92648 7.98728 1.93576 7.84495C1.94036 7.77446 1.94259 7.69884 1.93776 7.62705C1.93482 7.58329 1.92696 7.48356 1.881 7.37861C1.63913 6.71961 1.50082 6.31104 1.50082 5.50006C1.50082 2.67408 3.70563 0.557645 6.55018 0.49996C9.34124 0.44336 11.5713 3.00865 11.501 5.48588ZM1.36541 11.1697C1.36543 11.1697 1.366 11.1699 1.36705 11.1702L1.36541 11.1697Z" stroke="#002033" stroke-opacity="0.6"/>
		</symbol>
		
		<symbol id="task-wait" viewBox="0 0 12 12" fill="none">
			<path d="M11.501 5.48588C11.4488 7.32437 10.6668 8.57857 9.6794 9.37501C8.67602 10.1843 7.45412 10.525 6.54885 10.5002C5.82847 10.4805 5.39461 10.4042 4.8797 10.2322C4.79051 10.2024 4.71216 10.2024 4.67413 10.2038C4.62945 10.2054 4.58916 10.2113 4.55829 10.2169C4.49661 10.2282 4.43253 10.2459 4.37439 10.2637C4.25633 10.2998 4.11047 10.3529 3.95556 10.4113C3.85528 10.4491 3.74921 10.4899 3.63854 10.5325C3.39488 10.6262 3.12893 10.7285 2.85341 10.8265C2.45279 10.9689 2.06771 11.0889 1.75972 11.1454C1.64295 11.1668 1.55003 11.1766 1.47965 11.1781C1.47682 11.1001 1.47915 10.9985 1.48808 10.8729C1.51242 10.5301 1.57917 10.0896 1.65688 9.63028C1.68418 9.46892 1.71308 9.30395 1.74148 9.14181C1.79167 8.85528 1.8403 8.57761 1.87583 8.34444C1.90382 8.16068 1.92648 7.98728 1.93576 7.84495C1.94036 7.77446 1.94259 7.69884 1.93776 7.62705C1.93482 7.58329 1.92696 7.48356 1.881 7.37861C1.63913 6.71961 1.50082 6.31104 1.50082 5.50006C1.50082 2.67408 3.70563 0.557645 6.55018 0.49996C9.34124 0.44336 11.5713 3.00865 11.501 5.48588ZM1.36541 11.1697C1.36543 11.1697 1.366 11.1699 1.36705 11.1702L1.36541 11.1697Z" stroke="#F2994A"/>
		</symbol>

		<symbol id="task-ready" viewBox="0 0 12 12" fill="none">
			<path d="M11.501 5.48588C11.4488 7.32437 10.6668 8.57857 9.6794 9.37501C8.67602 10.1843 7.45412 10.525 6.54885 10.5002C5.82847 10.4805 5.39461 10.4042 4.8797 10.2322C4.79051 10.2024 4.71216 10.2024 4.67413 10.2038C4.62945 10.2054 4.58916 10.2113 4.55829 10.2169C4.49661 10.2282 4.43253 10.2459 4.37439 10.2637C4.25633 10.2998 4.11047 10.3529 3.95556 10.4113C3.85528 10.4491 3.74921 10.4899 3.63854 10.5325C3.39488 10.6262 3.12893 10.7285 2.85341 10.8265C2.45279 10.9689 2.06771 11.0889 1.75972 11.1454C1.64295 11.1668 1.55003 11.1766 1.47965 11.1781C1.47682 11.1001 1.47915 10.9985 1.48808 10.8729C1.51242 10.5301 1.57917 10.0896 1.65688 9.63028C1.68418 9.46892 1.71308 9.30395 1.74148 9.14181C1.79167 8.85528 1.8403 8.57761 1.87583 8.34444C1.90382 8.16068 1.92648 7.98728 1.93576 7.84495C1.94036 7.77446 1.94259 7.69884 1.93776 7.62705C1.93482 7.58329 1.92696 7.48356 1.881 7.37861C1.63913 6.71961 1.50082 6.31104 1.50082 5.50006C1.50082 2.67408 3.70563 0.557645 6.55018 0.49996C9.34124 0.44336 11.5713 3.00865 11.501 5.48588ZM1.36541 11.1697C1.36543 11.1697 1.366 11.1699 1.36705 11.1702L1.36541 11.1697Z" stroke="#22C38E"/>
			<path d="M4.5 5.5L6 7L8.5 4.5" stroke="#22C38E" stroke-linecap="round" stroke-linejoin="round"/>
		</symbol>

		<symbol id="task-message-arrow-right" viewBox="0 0 6 8" fill="none">
			<path fill-rule="evenodd" clip-rule="evenodd" d="M5.3457 4.00026L1.37083 7.97514L0.663724 7.26803L3.93149 4.00026L0.663724 0.732498L1.37083 0.0253907L5.3457 4.00026Z" fill="#002033" fill-opacity="0.6"/>
		</symbol>

		<symbol id="task-message-cancel" viewBox="0 0 12 11" fill="none">
			<path d="M1.33226 0.0407505L5.99998 4.7508L10.6674 0.0407535C10.6932 0.0146733 10.7285 0 10.7652 0H11.8232C11.8992 0 11.9608 0.0615609 11.9608 0.1375C11.9608 0.173733 11.9465 0.208501 11.921 0.234248L6.72258 5.48L11.9602 10.7658C12.0136 10.8197 12.0132 10.9068 11.9592 10.9602C11.9334 10.9857 11.8987 11 11.8624 11H10.8047C10.768 11 10.7328 10.9853 10.7069 10.9592L5.99998 6.20921L1.29274 10.9592C1.2669 10.9853 1.2317 11 1.19497 11H0.137606C0.0616085 11 0 10.9384 0 10.8625C0 10.8263 0.0143108 10.7915 0.0398219 10.7658L5.27738 5.48L0.079019 0.234247C0.0255457 0.180286 0.0259747 0.0932272 0.0799773 0.0397952C0.105743 0.0143013 0.140539 0 0.176799 0H1.23448C1.27121 0 1.30641 0.0146723 1.33226 0.0407505Z" fill="#EB5757"/>
		</symbol>
		<symbol id="task-message-send" viewBox="0 0 16 11" fill="none">
			<path d="M14.7142 0.5H1.28585C0.851835 0.5 0.5 0.85127 0.5 1.28458V9.71542C0.5 10.1487 0.851835 10.5 1.28585 10.5H14.7142C15.1482 10.5 15.5 10.1487 15.5 9.71542V1.28458C15.5 0.85127 15.1482 0.5 14.7142 0.5Z" stroke="#006FBA" stroke-width="0.75" stroke-linecap="round" stroke-linejoin="round"/>
			<path d="M0.832031 0.678711L7.9977 7.24444L15.253 0.785387" stroke="#006FBA" stroke-width="0.75" stroke-linecap="round" stroke-linejoin="round"/>
			<path d="M0.835938 10.3176L6.0301 5.5" stroke="#006FBA" stroke-width="0.75" stroke-linecap="round" stroke-linejoin="round"/>
			<path d="M15.2528 10.3176L10.0586 5.5" stroke="#006FBA" stroke-width="0.75" stroke-linecap="round" stroke-linejoin="round"/>
		</symbol>

		<symbol id="back-alarm-table-stat-arrow" viewBox="0 0 8 10" fill="none">
			<path d="M4.16675 9L4.16675 1M4.16675 1L1.16675 4M4.16675 1L7.16675 4" stroke="currentColor" stroke-linecap="round" stroke-linejoin="round"/>
		</symbol>
		
		
	</defs>
</svg>