<svg width="24" height="24" viewBox="0 0 24 24" fill="none" xmlns="http://www.w3.org/2000/svg">
<path d="M2.75001 2L5.10957 4.75282C6.02548 3.882 7.1045 3.18665 8.29445 2.71191C10.3807 1.87956 12.6865 1.77385 14.8402 2.41181C16.9939 3.04976 18.8701 4.39422 20.1664 6.22855C21.3619 7.92005 22.0001 9.93725 22 12H20.0001C20.0001 7.58172 16.4183 4 12.0001 4C9.82638 4 7.85517 4.86692 6.41333 6.27387L8.75001 9H1.75001L2.75001 2Z" fill="black"/>
<path d="M21 22L18.6405 19.2472C17.7245 20.118 16.6455 20.8134 15.4556 21.2881C13.3693 22.1204 11.0635 22.2261 8.90985 21.5882C6.75616 20.9502 4.87997 19.6058 3.58359 17.7714C2.38816 16.08 1.74996 14.0627 1.75 12H3.74996C3.74996 16.4183 7.33169 20 11.75 20C13.9237 20 15.8949 19.1331 17.3367 17.7261L15 15H22L21 22Z" fill="black"/>
</svg>
