<svg width="352" height="24" viewBox="0 0 352 24" fill="none" xmlns="http://www.w3.org/2000/svg">
<path d="M0 4C0 1.79086 1.79086 0 4 0H348C350.209 0 352 1.79086 352 4V20C352 22.2091 350.209 24 348 24H4C1.79086 24 0 22.2091 0 20V4Z" fill="white"/>
<path d="M0 4C0 1.79086 1.79086 0 4 0H69C71.2091 0 73 1.79086 73 4V20C73 22.2091 71.2091 24 69 24H4C1.79086 24 0 22.2091 0 20V4Z" fill="#004269" fill-opacity="0.07"/>
<path d="M17.3301 9.26C16.8741 9.26 16.4621 9.34 16.0941 9.5C15.7261 9.652 15.4141 9.88 15.1581 10.184C14.9021 10.48 14.7061 10.844 14.5701 11.276C14.4341 11.7 14.3661 12.18 14.3661 12.716C14.3661 13.42 14.4741 14.032 14.6901 14.552C14.9141 15.072 15.2421 15.472 15.6741 15.752C16.1141 16.032 16.6621 16.172 17.3181 16.172C17.6941 16.172 18.0501 16.14 18.3861 16.076C18.7221 16.012 19.0501 15.932 19.3701 15.836V16.772C19.0501 16.892 18.7181 16.98 18.3741 17.036C18.0381 17.092 17.6341 17.12 17.1621 17.12C16.2901 17.12 15.5621 16.94 14.9781 16.58C14.3941 16.22 13.9541 15.708 13.6581 15.044C13.3701 14.38 13.2261 13.6 13.2261 12.704C13.2261 12.056 13.3141 11.464 13.4901 10.928C13.6741 10.392 13.9381 9.928 14.2821 9.536C14.6341 9.144 15.0661 8.844 15.5781 8.636C16.0901 8.42 16.6781 8.312 17.3421 8.312C17.7821 8.312 18.2061 8.356 18.6141 8.444C19.0221 8.532 19.3861 8.656 19.7061 8.816L19.2741 9.728C19.0101 9.608 18.7141 9.5 18.3861 9.404C18.0661 9.308 17.7141 9.26 17.3301 9.26ZM23.5802 10.448C24.1322 10.448 24.6042 10.568 24.9962 10.808C25.3962 11.048 25.7002 11.388 25.9082 11.828C26.1242 12.26 26.2322 12.768 26.2322 13.352V13.988H21.8282C21.8442 14.716 22.0282 15.272 22.3802 15.656C22.7402 16.032 23.2402 16.22 23.8802 16.22C24.2882 16.22 24.6482 16.184 24.9602 16.112C25.2802 16.032 25.6082 15.92 25.9442 15.776V16.7C25.6162 16.844 25.2922 16.948 24.9722 17.012C24.6522 17.084 24.2722 17.12 23.8322 17.12C23.2242 17.12 22.6842 16.996 22.2122 16.748C21.7482 16.5 21.3842 16.132 21.1202 15.644C20.8642 15.148 20.7362 14.544 20.7362 13.832C20.7362 13.128 20.8522 12.524 21.0842 12.02C21.3242 11.516 21.6562 11.128 22.0802 10.856C22.5122 10.584 23.0122 10.448 23.5802 10.448ZM23.5682 11.312C23.0642 11.312 22.6642 11.476 22.3682 11.804C22.0802 12.124 21.9082 12.572 21.8522 13.148H25.1282C25.1282 12.78 25.0722 12.46 24.9602 12.188C24.8482 11.916 24.6762 11.704 24.4442 11.552C24.2202 11.392 23.9282 11.312 23.5682 11.312ZM31.7936 10.568V11.456H28.9256V17H27.8696V10.568H31.7936ZM38.5358 13.772C38.5358 14.308 38.4638 14.784 38.3198 15.2C38.1838 15.608 37.9838 15.956 37.7198 16.244C37.4638 16.532 37.1478 16.752 36.7718 16.904C36.4038 17.048 35.9918 17.12 35.5358 17.12C35.1118 17.12 34.7198 17.048 34.3598 16.904C33.9998 16.752 33.6878 16.532 33.4238 16.244C33.1598 15.956 32.9518 15.608 32.7998 15.2C32.6558 14.784 32.5838 14.308 32.5838 13.772C32.5838 13.06 32.7038 12.46 32.9438 11.972C33.1838 11.476 33.5278 11.1 33.9758 10.844C34.4238 10.58 34.9558 10.448 35.5718 10.448C36.1558 10.448 36.6678 10.58 37.1078 10.844C37.5558 11.1 37.9038 11.476 38.1518 11.972C38.4078 12.46 38.5358 13.06 38.5358 13.772ZM33.6758 13.772C33.6758 14.276 33.7398 14.716 33.8678 15.092C34.0038 15.46 34.2118 15.744 34.4918 15.944C34.7718 16.144 35.1278 16.244 35.5598 16.244C35.9918 16.244 36.3478 16.144 36.6278 15.944C36.9078 15.744 37.1118 15.46 37.2398 15.092C37.3758 14.716 37.4438 14.276 37.4438 13.772C37.4438 13.26 37.3758 12.824 37.2398 12.464C37.1038 12.104 36.8958 11.828 36.6158 11.636C36.3438 11.436 35.9878 11.336 35.5478 11.336C34.8918 11.336 34.4158 11.552 34.1198 11.984C33.8238 12.416 33.6758 13.012 33.6758 13.772ZM44.9855 10.568V16.112H45.9215V19.232H44.9015V17H40.4255V19.232H39.4175V16.112H39.9335C40.3015 15.6 40.6055 15.044 40.8455 14.444C41.0935 13.836 41.2775 13.204 41.3975 12.548C41.5255 11.884 41.5935 11.224 41.6015 10.568H44.9855ZM42.5375 11.396C42.5055 11.94 42.4215 12.504 42.2855 13.088C42.1495 13.664 41.9735 14.216 41.7575 14.744C41.5495 15.272 41.3055 15.728 41.0255 16.112H43.9655V11.396H42.5375ZM48.2381 10.568V13.244H51.7301V10.568H52.7861V17H51.7301V14.132H48.2381V17H47.1821V10.568H48.2381ZM55.2187 17H53.9947L55.8307 14.3C55.5827 14.236 55.3427 14.136 55.1107 14C54.8787 13.856 54.6907 13.66 54.5467 13.412C54.4027 13.156 54.3307 12.84 54.3307 12.464C54.3307 11.848 54.5387 11.38 54.9547 11.06C55.3707 10.732 55.9227 10.568 56.6107 10.568H59.4907V17H58.4347V14.444H56.8747L55.2187 17ZM55.3507 12.476C55.3507 12.844 55.4867 13.12 55.7587 13.304C56.0387 13.48 56.4267 13.568 56.9227 13.568H58.4347V11.444H56.7187C56.2307 11.444 55.8787 11.54 55.6627 11.732C55.4547 11.924 55.3507 12.172 55.3507 12.476Z" fill="#00395C" fill-opacity="0.8"/>
<path d="M89.0886 8.432C89.8006 8.432 90.3966 8.5 90.8766 8.636C91.3646 8.772 91.7286 8.996 91.9686 9.308C92.2166 9.62 92.3406 10.036 92.3406 10.556C92.3406 10.892 92.2766 11.192 92.1486 11.456C92.0286 11.712 91.8446 11.928 91.5966 12.104C91.3566 12.272 91.0606 12.388 90.7086 12.452V12.512C91.0686 12.568 91.3926 12.672 91.6806 12.824C91.9766 12.976 92.2086 13.192 92.3766 13.472C92.5446 13.752 92.6286 14.116 92.6286 14.564C92.6286 15.084 92.5086 15.528 92.2686 15.896C92.0286 16.256 91.6846 16.532 91.2366 16.724C90.7966 16.908 90.2686 17 89.6526 17H86.6406V8.432H89.0886ZM89.3046 12.08C90.0406 12.08 90.5446 11.964 90.8166 11.732C91.0886 11.492 91.2246 11.14 91.2246 10.676C91.2246 10.204 91.0566 9.868 90.7206 9.668C90.3926 9.46 89.8646 9.356 89.1366 9.356H87.7206V12.08H89.3046ZM87.7206 12.98V16.088H89.4486C90.2086 16.088 90.7366 15.94 91.0326 15.644C91.3286 15.348 91.4766 14.96 91.4766 14.48C91.4766 14.176 91.4086 13.912 91.2726 13.688C91.1446 13.464 90.9246 13.292 90.6126 13.172C90.3086 13.044 89.8926 12.98 89.3646 12.98H87.7206ZM95.2253 12.908C95.2253 13.284 95.3293 13.564 95.5373 13.748C95.7533 13.924 96.0613 14.012 96.4613 14.012C96.8613 14.012 97.2253 13.952 97.5533 13.832C97.8813 13.704 98.2173 13.536 98.5613 13.328V10.568H99.6172V17H98.5613V14.132C98.2013 14.364 97.8453 14.548 97.4933 14.684C97.1493 14.812 96.7333 14.876 96.2453 14.876C95.5893 14.876 95.0773 14.704 94.7093 14.36C94.3493 14.016 94.1693 13.556 94.1693 12.98V10.568H95.2253V12.908ZM104.145 10.448C104.697 10.448 105.169 10.568 105.561 10.808C105.961 11.048 106.265 11.388 106.473 11.828C106.689 12.26 106.797 12.768 106.797 13.352V13.988H102.393C102.409 14.716 102.593 15.272 102.945 15.656C103.305 16.032 103.805 16.22 104.445 16.22C104.853 16.22 105.213 16.184 105.525 16.112C105.845 16.032 106.173 15.92 106.509 15.776V16.7C106.181 16.844 105.857 16.948 105.537 17.012C105.217 17.084 104.837 17.12 104.397 17.12C103.789 17.12 103.249 16.996 102.777 16.748C102.313 16.5 101.949 16.132 101.685 15.644C101.429 15.148 101.301 14.544 101.301 13.832C101.301 13.128 101.417 12.524 101.649 12.02C101.889 11.516 102.221 11.128 102.645 10.856C103.077 10.584 103.577 10.448 104.145 10.448ZM104.133 11.312C103.629 11.312 103.229 11.476 102.933 11.804C102.645 12.124 102.473 12.572 102.417 13.148H105.693C105.693 12.78 105.637 12.46 105.525 12.188C105.413 11.916 105.241 11.704 105.009 11.552C104.785 11.392 104.493 11.312 104.133 11.312ZM111.494 10.448C112.286 10.448 112.922 10.724 113.402 11.276C113.89 11.828 114.134 12.66 114.134 13.772C114.134 14.5 114.022 15.116 113.798 15.62C113.582 16.116 113.274 16.492 112.874 16.748C112.482 16.996 112.018 17.12 111.482 17.12C111.154 17.12 110.862 17.076 110.606 16.988C110.35 16.9 110.13 16.788 109.946 16.652C109.77 16.508 109.618 16.352 109.49 16.184H109.418C109.434 16.32 109.45 16.492 109.466 16.7C109.482 16.908 109.49 17.088 109.49 17.24V19.88H108.434V10.568H109.298L109.442 11.444H109.49C109.618 11.26 109.77 11.092 109.946 10.94C110.13 10.788 110.346 10.668 110.594 10.58C110.85 10.492 111.15 10.448 111.494 10.448ZM111.302 11.336C110.87 11.336 110.522 11.42 110.258 11.588C109.994 11.748 109.802 11.992 109.682 12.32C109.562 12.648 109.498 13.064 109.49 13.568V13.772C109.49 14.3 109.546 14.748 109.658 15.116C109.77 15.484 109.958 15.764 110.222 15.956C110.494 16.148 110.862 16.244 111.326 16.244C111.718 16.244 112.038 16.136 112.286 15.92C112.542 15.704 112.73 15.412 112.85 15.044C112.978 14.668 113.042 14.24 113.042 13.76C113.042 13.024 112.898 12.436 112.61 11.996C112.33 11.556 111.894 11.336 111.302 11.336ZM118.253 10.46C119.037 10.46 119.617 10.632 119.993 10.976C120.369 11.32 120.557 11.868 120.557 12.62V17H119.789L119.585 16.088H119.537C119.353 16.32 119.161 16.516 118.961 16.676C118.769 16.828 118.545 16.94 118.289 17.012C118.041 17.084 117.737 17.12 117.377 17.12C116.993 17.12 116.645 17.052 116.333 16.916C116.029 16.78 115.789 16.572 115.613 16.292C115.437 16.004 115.349 15.644 115.349 15.212C115.349 14.572 115.601 14.08 116.105 13.736C116.609 13.384 117.385 13.192 118.433 13.16L119.525 13.124V12.74C119.525 12.204 119.409 11.832 119.177 11.624C118.945 11.416 118.617 11.312 118.193 11.312C117.857 11.312 117.537 11.364 117.233 11.468C116.929 11.564 116.645 11.676 116.381 11.804L116.057 11.012C116.337 10.86 116.669 10.732 117.053 10.628C117.437 10.516 117.837 10.46 118.253 10.46ZM118.565 13.892C117.765 13.924 117.209 14.052 116.897 14.276C116.593 14.5 116.441 14.816 116.441 15.224C116.441 15.584 116.549 15.848 116.765 16.016C116.989 16.184 117.273 16.268 117.617 16.268C118.161 16.268 118.613 16.12 118.973 15.824C119.333 15.52 119.513 15.056 119.513 14.432V13.856L118.565 13.892Z" fill="#002033"/>
<rect x="134" y="4.5" width="1" height="15" fill="#004269" fill-opacity="0.28"/>
<path d="M155.189 17H154.109V13.004H149.717V17H148.637V8.432H149.717V12.056H154.109V8.432H155.189V17ZM159.871 10.448C160.423 10.448 160.895 10.568 161.287 10.808C161.687 11.048 161.991 11.388 162.199 11.828C162.415 12.26 162.523 12.768 162.523 13.352V13.988H158.119C158.135 14.716 158.319 15.272 158.671 15.656C159.031 16.032 159.531 16.22 160.171 16.22C160.579 16.22 160.939 16.184 161.251 16.112C161.571 16.032 161.899 15.92 162.235 15.776V16.7C161.907 16.844 161.583 16.948 161.263 17.012C160.943 17.084 160.563 17.12 160.123 17.12C159.515 17.12 158.975 16.996 158.503 16.748C158.039 16.5 157.675 16.132 157.411 15.644C157.155 15.148 157.027 14.544 157.027 13.832C157.027 13.128 157.143 12.524 157.375 12.02C157.615 11.516 157.947 11.128 158.371 10.856C158.803 10.584 159.303 10.448 159.871 10.448ZM159.859 11.312C159.355 11.312 158.955 11.476 158.659 11.804C158.371 12.124 158.199 12.572 158.143 13.148H161.419C161.419 12.78 161.363 12.46 161.251 12.188C161.139 11.916 160.967 11.704 160.735 11.552C160.511 11.392 160.219 11.312 159.859 11.312ZM168.937 10.568V16.112H169.873V19.232H168.853V17H164.377V19.232H163.369V16.112H163.885C164.253 15.6 164.557 15.044 164.797 14.444C165.045 13.836 165.229 13.204 165.349 12.548C165.477 11.884 165.545 11.224 165.553 10.568H168.937ZM166.489 11.396C166.457 11.94 166.373 12.504 166.237 13.088C166.101 13.664 165.925 14.216 165.709 14.744C165.501 15.272 165.257 15.728 164.977 16.112H167.917V11.396H166.489ZM173.617 10.448C174.169 10.448 174.641 10.568 175.033 10.808C175.433 11.048 175.737 11.388 175.945 11.828C176.161 12.26 176.269 12.768 176.269 13.352V13.988H171.865C171.881 14.716 172.065 15.272 172.417 15.656C172.777 16.032 173.277 16.22 173.917 16.22C174.325 16.22 174.685 16.184 174.997 16.112C175.317 16.032 175.645 15.92 175.981 15.776V16.7C175.653 16.844 175.329 16.948 175.009 17.012C174.689 17.084 174.309 17.12 173.869 17.12C173.261 17.12 172.721 16.996 172.249 16.748C171.785 16.5 171.421 16.132 171.157 15.644C170.901 15.148 170.773 14.544 170.773 13.832C170.773 13.128 170.889 12.524 171.121 12.02C171.361 11.516 171.693 11.128 172.117 10.856C172.549 10.584 173.049 10.448 173.617 10.448ZM173.605 11.312C173.101 11.312 172.701 11.476 172.405 11.804C172.117 12.124 171.945 12.572 171.889 13.148H175.165C175.165 12.78 175.109 12.46 174.997 12.188C174.885 11.916 174.713 11.704 174.481 11.552C174.257 11.392 173.965 11.312 173.605 11.312ZM182.803 17H181.735V11.444H179.839C179.759 12.46 179.659 13.328 179.539 14.048C179.419 14.76 179.267 15.34 179.083 15.788C178.899 16.236 178.679 16.564 178.423 16.772C178.167 16.98 177.867 17.084 177.523 17.084C177.419 17.084 177.315 17.076 177.211 17.06C177.115 17.052 177.035 17.032 176.971 17V16.208C177.019 16.224 177.071 16.236 177.127 16.244C177.183 16.252 177.239 16.256 177.295 16.256C177.471 16.256 177.631 16.184 177.775 16.04C177.919 15.896 178.047 15.676 178.159 15.38C178.279 15.084 178.387 14.712 178.483 14.264C178.579 13.808 178.663 13.272 178.735 12.656C178.807 12.04 178.871 11.344 178.927 10.568H182.803V17ZM185.24 17H184.016L185.852 14.3C185.604 14.236 185.364 14.136 185.132 14C184.9 13.856 184.712 13.66 184.568 13.412C184.424 13.156 184.352 12.84 184.352 12.464C184.352 11.848 184.56 11.38 184.976 11.06C185.392 10.732 185.944 10.568 186.632 10.568H189.512V17H188.456V14.444H186.896L185.24 17ZM185.372 12.476C185.372 12.844 185.508 13.12 185.78 13.304C186.06 13.48 186.448 13.568 186.944 13.568H188.456V11.444H186.74C186.252 11.444 185.9 11.54 185.684 11.732C185.476 11.924 185.372 12.172 185.372 12.476Z" fill="#002033"/>
<rect x="203" y="4.5" width="1" height="15" fill="#004269" fill-opacity="0.28"/>
<path d="M221.089 17L218.269 9.488H218.221C218.237 9.648 218.249 9.852 218.257 10.1C218.273 10.348 218.285 10.62 218.293 10.916C218.301 11.204 218.305 11.5 218.305 11.804V17H217.309V8.432H218.905L221.545 15.452H221.593L224.281 8.432H225.865V17H224.797V11.732C224.797 11.452 224.801 11.176 224.809 10.904C224.817 10.624 224.829 10.364 224.845 10.124C224.861 9.876 224.873 9.668 224.881 9.5H224.833L221.977 17H221.089ZM230.535 10.448C231.087 10.448 231.559 10.568 231.951 10.808C232.351 11.048 232.655 11.388 232.863 11.828C233.079 12.26 233.187 12.768 233.187 13.352V13.988H228.783C228.799 14.716 228.983 15.272 229.335 15.656C229.695 16.032 230.195 16.22 230.835 16.22C231.243 16.22 231.603 16.184 231.915 16.112C232.235 16.032 232.563 15.92 232.899 15.776V16.7C232.571 16.844 232.247 16.948 231.927 17.012C231.607 17.084 231.227 17.12 230.787 17.12C230.179 17.12 229.639 16.996 229.167 16.748C228.703 16.5 228.339 16.132 228.075 15.644C227.819 15.148 227.691 14.544 227.691 13.832C227.691 13.128 227.807 12.524 228.039 12.02C228.279 11.516 228.611 11.128 229.035 10.856C229.467 10.584 229.967 10.448 230.535 10.448ZM230.523 11.312C230.019 11.312 229.619 11.476 229.323 11.804C229.035 12.124 228.863 12.572 228.807 13.148H232.083C232.083 12.78 232.027 12.46 231.915 12.188C231.803 11.916 231.631 11.704 231.399 11.552C231.175 11.392 230.883 11.312 230.523 11.312ZM237.405 17.12C236.837 17.12 236.329 17.004 235.881 16.772C235.441 16.54 235.093 16.18 234.837 15.692C234.589 15.204 234.465 14.58 234.465 13.82C234.465 13.028 234.597 12.384 234.861 11.888C235.125 11.392 235.481 11.028 235.929 10.796C236.385 10.564 236.901 10.448 237.477 10.448C237.805 10.448 238.121 10.484 238.425 10.556C238.729 10.62 238.977 10.7 239.169 10.796L238.845 11.672C238.653 11.6 238.429 11.532 238.173 11.468C237.917 11.404 237.677 11.372 237.453 11.372C237.021 11.372 236.665 11.464 236.385 11.648C236.105 11.832 235.897 12.104 235.761 12.464C235.625 12.824 235.557 13.272 235.557 13.808C235.557 14.32 235.625 14.756 235.761 15.116C235.897 15.476 236.101 15.748 236.373 15.932C236.645 16.116 236.985 16.208 237.393 16.208C237.745 16.208 238.053 16.172 238.317 16.1C238.589 16.028 238.837 15.94 239.061 15.836V16.772C238.845 16.884 238.605 16.968 238.341 17.024C238.085 17.088 237.773 17.12 237.405 17.12ZM240.986 17H239.762L241.598 14.3C241.35 14.236 241.11 14.136 240.878 14C240.646 13.856 240.458 13.66 240.314 13.412C240.17 13.156 240.098 12.84 240.098 12.464C240.098 11.848 240.306 11.38 240.722 11.06C241.138 10.732 241.69 10.568 242.378 10.568H245.258V17H244.202V14.444H242.642L240.986 17ZM241.118 12.476C241.118 12.844 241.254 13.12 241.526 13.304C241.806 13.48 242.194 13.568 242.69 13.568H244.202V11.444H242.486C241.998 11.444 241.646 11.54 241.43 11.732C241.222 11.924 241.118 12.172 241.118 12.476ZM253.641 19.232H252.609V17H247.293V10.568H248.349V16.112H251.673V10.568H252.729V16.124H253.641V19.232Z" fill="#002033"/>
<rect x="266" y="4.5" width="1" height="15" fill="#004269" fill-opacity="0.28"/>
<path d="M282.93 8.432C283.642 8.432 284.238 8.5 284.718 8.636C285.206 8.772 285.57 8.996 285.81 9.308C286.058 9.62 286.182 10.036 286.182 10.556C286.182 10.892 286.118 11.192 285.99 11.456C285.87 11.712 285.686 11.928 285.438 12.104C285.198 12.272 284.902 12.388 284.55 12.452V12.512C284.91 12.568 285.234 12.672 285.522 12.824C285.818 12.976 286.05 13.192 286.218 13.472C286.386 13.752 286.47 14.116 286.47 14.564C286.47 15.084 286.35 15.528 286.11 15.896C285.87 16.256 285.526 16.532 285.078 16.724C284.638 16.908 284.11 17 283.494 17H280.482V8.432H282.93ZM283.146 12.08C283.882 12.08 284.386 11.964 284.658 11.732C284.93 11.492 285.066 11.14 285.066 10.676C285.066 10.204 284.898 9.868 284.562 9.668C284.234 9.46 283.706 9.356 282.978 9.356H281.562V12.08H283.146ZM281.562 12.98V16.088H283.29C284.05 16.088 284.578 15.94 284.874 15.644C285.17 15.348 285.318 14.96 285.318 14.48C285.318 14.176 285.25 13.912 285.114 13.688C284.986 13.464 284.766 13.292 284.454 13.172C284.15 13.044 283.734 12.98 283.206 12.98H281.562ZM290.723 17.12C290.155 17.12 289.647 17.004 289.199 16.772C288.759 16.54 288.411 16.18 288.155 15.692C287.907 15.204 287.783 14.58 287.783 13.82C287.783 13.028 287.915 12.384 288.179 11.888C288.443 11.392 288.799 11.028 289.247 10.796C289.703 10.564 290.219 10.448 290.795 10.448C291.123 10.448 291.439 10.484 291.743 10.556C292.047 10.62 292.295 10.7 292.487 10.796L292.163 11.672C291.971 11.6 291.747 11.532 291.491 11.468C291.235 11.404 290.995 11.372 290.771 11.372C290.339 11.372 289.983 11.464 289.703 11.648C289.423 11.832 289.215 12.104 289.079 12.464C288.943 12.824 288.875 13.272 288.875 13.808C288.875 14.32 288.943 14.756 289.079 15.116C289.215 15.476 289.419 15.748 289.691 15.932C289.963 16.116 290.303 16.208 290.711 16.208C291.063 16.208 291.371 16.172 291.635 16.1C291.907 16.028 292.155 15.94 292.379 15.836V16.772C292.163 16.884 291.923 16.968 291.659 17.024C291.403 17.088 291.091 17.12 290.723 17.12ZM296.393 10.448C296.945 10.448 297.417 10.568 297.809 10.808C298.209 11.048 298.513 11.388 298.721 11.828C298.937 12.26 299.045 12.768 299.045 13.352V13.988H294.641C294.657 14.716 294.841 15.272 295.193 15.656C295.553 16.032 296.053 16.22 296.693 16.22C297.101 16.22 297.461 16.184 297.773 16.112C298.093 16.032 298.421 15.92 298.757 15.776V16.7C298.429 16.844 298.105 16.948 297.785 17.012C297.465 17.084 297.085 17.12 296.645 17.12C296.037 17.12 295.497 16.996 295.025 16.748C294.561 16.5 294.197 16.132 293.933 15.644C293.677 15.148 293.549 14.544 293.549 13.832C293.549 13.128 293.665 12.524 293.897 12.02C294.137 11.516 294.469 11.128 294.893 10.856C295.325 10.584 295.825 10.448 296.393 10.448ZM296.381 11.312C295.877 11.312 295.477 11.476 295.181 11.804C294.893 12.124 294.721 12.572 294.665 13.148H297.941C297.941 12.78 297.885 12.46 297.773 12.188C297.661 11.916 297.489 11.704 297.257 11.552C297.033 11.392 296.741 11.312 296.381 11.312ZM294.617 8.828C294.617 8.62 294.673 8.472 294.785 8.384C294.897 8.288 295.029 8.24 295.181 8.24C295.333 8.24 295.465 8.288 295.577 8.384C295.689 8.472 295.745 8.62 295.745 8.828C295.745 9.028 295.689 9.18 295.577 9.284C295.465 9.38 295.333 9.428 295.181 9.428C295.029 9.428 294.897 9.38 294.785 9.284C294.673 9.18 294.617 9.028 294.617 8.828ZM296.873 8.828C296.873 8.62 296.925 8.472 297.029 8.384C297.141 8.288 297.273 8.24 297.425 8.24C297.577 8.24 297.709 8.288 297.821 8.384C297.933 8.472 297.989 8.62 297.989 8.828C297.989 9.028 297.933 9.18 297.821 9.284C297.709 9.38 297.577 9.428 297.425 9.428C297.273 9.428 297.141 9.38 297.029 9.284C296.925 9.18 296.873 9.028 296.873 8.828ZM309.147 12.188C309.147 12.588 309.027 12.9 308.787 13.124C308.547 13.348 308.239 13.5 307.863 13.58V13.628C308.263 13.684 308.611 13.828 308.907 14.06C309.203 14.284 309.351 14.636 309.351 15.116C309.351 15.388 309.299 15.64 309.195 15.872C309.099 16.104 308.947 16.304 308.739 16.472C308.531 16.64 308.263 16.772 307.935 16.868C307.607 16.956 307.211 17 306.747 17H303.975V10.568H306.735C307.191 10.568 307.599 10.62 307.959 10.724C308.327 10.82 308.615 10.988 308.823 11.228C309.039 11.46 309.147 11.78 309.147 12.188ZM308.259 15.116C308.259 14.748 308.119 14.484 307.839 14.324C307.559 14.164 307.147 14.084 306.603 14.084H305.031V16.148H306.627C307.155 16.148 307.559 16.072 307.839 15.92C308.119 15.76 308.259 15.492 308.259 15.116ZM308.079 12.32C308.079 12.016 307.967 11.796 307.743 11.66C307.527 11.516 307.171 11.444 306.675 11.444H305.031V13.208H306.483C307.003 13.208 307.399 13.136 307.671 12.992C307.943 12.848 308.079 12.624 308.079 12.32ZM313.949 10.448C314.741 10.448 315.377 10.724 315.857 11.276C316.345 11.828 316.589 12.66 316.589 13.772C316.589 14.5 316.477 15.116 316.253 15.62C316.037 16.116 315.729 16.492 315.329 16.748C314.937 16.996 314.473 17.12 313.937 17.12C313.609 17.12 313.317 17.076 313.061 16.988C312.805 16.9 312.585 16.788 312.401 16.652C312.225 16.508 312.073 16.352 311.945 16.184H311.873C311.889 16.32 311.905 16.492 311.921 16.7C311.937 16.908 311.945 17.088 311.945 17.24V19.88H310.889V10.568H311.753L311.897 11.444H311.945C312.073 11.26 312.225 11.092 312.401 10.94C312.585 10.788 312.801 10.668 313.049 10.58C313.305 10.492 313.605 10.448 313.949 10.448ZM313.757 11.336C313.325 11.336 312.977 11.42 312.713 11.588C312.449 11.748 312.257 11.992 312.137 12.32C312.017 12.648 311.953 13.064 311.945 13.568V13.772C311.945 14.3 312.001 14.748 312.113 15.116C312.225 15.484 312.413 15.764 312.677 15.956C312.949 16.148 313.317 16.244 313.781 16.244C314.173 16.244 314.493 16.136 314.741 15.92C314.997 15.704 315.185 15.412 315.305 15.044C315.433 14.668 315.497 14.24 315.497 13.76C315.497 13.024 315.353 12.436 315.065 11.996C314.785 11.556 314.349 11.336 313.757 11.336ZM320.756 10.448C321.308 10.448 321.78 10.568 322.172 10.808C322.572 11.048 322.876 11.388 323.084 11.828C323.3 12.26 323.408 12.768 323.408 13.352V13.988H319.004C319.02 14.716 319.204 15.272 319.556 15.656C319.916 16.032 320.416 16.22 321.056 16.22C321.464 16.22 321.824 16.184 322.136 16.112C322.456 16.032 322.784 15.92 323.12 15.776V16.7C322.792 16.844 322.468 16.948 322.148 17.012C321.828 17.084 321.448 17.12 321.008 17.12C320.4 17.12 319.86 16.996 319.388 16.748C318.924 16.5 318.56 16.132 318.296 15.644C318.04 15.148 317.912 14.544 317.912 13.832C317.912 13.128 318.028 12.524 318.26 12.02C318.5 11.516 318.832 11.128 319.256 10.856C319.688 10.584 320.188 10.448 320.756 10.448ZM320.744 11.312C320.24 11.312 319.84 11.476 319.544 11.804C319.256 12.124 319.084 12.572 319.028 13.148H322.304C322.304 12.78 322.248 12.46 322.136 12.188C322.024 11.916 321.852 11.704 321.62 11.552C321.396 11.392 321.104 11.312 320.744 11.312ZM331.945 10.568V17H330.997V12.896C330.997 12.728 331.001 12.552 331.009 12.368C331.025 12.184 331.041 12.004 331.057 11.828H331.021L328.921 17H328.033L325.993 11.828H325.957C325.973 12.004 325.981 12.184 325.981 12.368C325.989 12.552 325.993 12.74 325.993 12.932V17H325.045V10.568H326.449L328.477 15.74L330.541 10.568H331.945ZM334.395 17H333.171L335.007 14.3C334.759 14.236 334.519 14.136 334.287 14C334.055 13.856 333.867 13.66 333.723 13.412C333.579 13.156 333.507 12.84 333.507 12.464C333.507 11.848 333.715 11.38 334.131 11.06C334.547 10.732 335.099 10.568 335.787 10.568H338.667V17H337.611V14.444H336.051L334.395 17ZM334.527 12.476C334.527 12.844 334.663 13.12 334.935 13.304C335.215 13.48 335.603 13.568 336.099 13.568H337.611V11.444H335.895C335.407 11.444 335.055 11.54 334.839 11.732C334.631 11.924 334.527 12.172 334.527 12.476Z" fill="#002033"/>
<path d="M4 1H348V-1H4V1ZM351 4V20H353V4H351ZM348 23H4V25H348V23ZM1 20V4H-1V20H1ZM4 23C2.34314 23 1 21.6569 1 20H-1C-1 22.7614 1.23857 25 4 25V23ZM351 20C351 21.6569 349.657 23 348 23V25C350.761 25 353 22.7614 353 20H351ZM348 1C349.657 1 351 2.34314 351 4H353C353 1.23858 350.761 -1 348 -1V1ZM4 -1C1.23858 -1 -1 1.23858 -1 4H1C1 2.34315 2.34315 1 4 1V-1Z" fill="#004269" fill-opacity="0.28"/>
</svg>
