<svg width="200" height="24" viewBox="0 0 200 24" fill="none" xmlns="http://www.w3.org/2000/svg">
<g clip-path="url(#clip0_61258_137692)">
<path d="M0 4C0 1.79086 1.79086 0 4 0H101V24H4C1.79086 24 0 22.2091 0 20V4Z" fill="white"/>
<path d="M12.7832 17H8.03125V16.1562H9.92969V9.62891L7.98438 10.209V9.29492L10.8906 8.41016V16.1562H12.7832V17ZM19.0938 17H14.0312V16.1445L16.4805 13.6895C17.1055 13.0645 17.5508 12.5449 17.8164 12.1309C18.0859 11.7129 18.2207 11.2676 18.2207 10.7949C18.2207 10.3105 18.082 9.93555 17.8047 9.66992C17.5273 9.4043 17.1328 9.27148 16.6211 9.27148C15.8711 9.27148 15.1523 9.5918 14.4648 10.2324V9.22461C15.1211 8.71289 15.8848 8.45703 16.7559 8.45703C17.5059 8.45703 18.0957 8.66016 18.5254 9.06641C18.9551 9.47266 19.1699 10.0176 19.1699 10.7012C19.1699 11.2402 19.0215 11.7676 18.7246 12.2832C18.4277 12.7949 17.8945 13.4316 17.125 14.1934L15.1855 16.1094V16.1328H19.0938V17ZM21.2441 17.1289C21.0645 17.1289 20.9102 17.0645 20.7812 16.9355C20.6562 16.8066 20.5938 16.6523 20.5938 16.4727C20.5938 16.293 20.6562 16.1387 20.7812 16.0098C20.9102 15.877 21.0645 15.8105 21.2441 15.8105C21.4277 15.8105 21.584 15.877 21.7129 16.0098C21.8418 16.1387 21.9062 16.293 21.9062 16.4727C21.9062 16.6523 21.8418 16.8066 21.7129 16.9355C21.584 17.0645 21.4277 17.1289 21.2441 17.1289ZM25.6914 17.1406C24.8594 17.1406 24.209 16.7832 23.7402 16.0684C23.2754 15.3535 23.043 14.3203 23.043 12.9688C23.043 11.4844 23.2852 10.3613 23.7695 9.59961C24.2578 8.83789 24.9609 8.45703 25.8789 8.45703C27.6367 8.45703 28.5156 9.89258 28.5156 12.7637C28.5156 14.1855 28.2676 15.2715 27.7715 16.0215C27.2754 16.7676 26.582 17.1406 25.6914 17.1406ZM25.8262 9.27148C24.627 9.27148 24.0273 10.4883 24.0273 12.9219C24.0273 15.1953 24.6152 16.332 25.791 16.332C26.9512 16.332 27.5312 15.1758 27.5312 12.8633C27.5312 10.4688 26.9629 9.27148 25.8262 9.27148ZM34.4805 8.69727V9.60547C34.0469 9.38281 33.5898 9.27148 33.1094 9.27148C32.3633 9.27148 31.7656 9.60352 31.3164 10.2676C30.8711 10.9316 30.6484 11.8203 30.6484 12.9336H30.6719C31.0625 12.1406 31.7031 11.7441 32.5938 11.7441C33.3281 11.7441 33.9121 11.9805 34.3457 12.4531C34.7793 12.9219 34.9961 13.5508 34.9961 14.3398C34.9961 15.1641 34.748 15.8379 34.252 16.3613C33.7559 16.8809 33.125 17.1406 32.3594 17.1406C31.5156 17.1406 30.8535 16.8047 30.373 16.1328C29.8926 15.4609 29.6523 14.5176 29.6523 13.3027C29.6523 11.8301 29.9668 10.6543 30.5957 9.77539C31.2246 8.89648 32.0547 8.45703 33.0859 8.45703C33.6719 8.45703 34.1367 8.53711 34.4805 8.69727ZM32.3828 12.5586C31.8867 12.5586 31.4844 12.7266 31.1758 13.0625C30.8672 13.3984 30.7129 13.7949 30.7129 14.252C30.7129 14.8262 30.8652 15.3164 31.1699 15.7227C31.4785 16.1289 31.8867 16.332 32.3945 16.332C32.8789 16.332 33.2695 16.1562 33.5664 15.8047C33.8633 15.4492 34.0117 15 34.0117 14.457C34.0117 13.8633 33.8691 13.3984 33.584 13.0625C33.2988 12.7266 32.8984 12.5586 32.3828 12.5586ZM36.7832 17.1289C36.6035 17.1289 36.4492 17.0645 36.3203 16.9355C36.1953 16.8066 36.1328 16.6523 36.1328 16.4727C36.1328 16.293 36.1953 16.1387 36.3203 16.0098C36.4492 15.877 36.6035 15.8105 36.7832 15.8105C36.9668 15.8105 37.123 15.877 37.252 16.0098C37.3809 16.1387 37.4453 16.293 37.4453 16.4727C37.4453 16.6523 37.3809 16.8066 37.252 16.9355C37.123 17.0645 36.9668 17.1289 36.7832 17.1289ZM43.7031 17H38.6406V16.1445L41.0898 13.6895C41.7148 13.0645 42.1602 12.5449 42.4258 12.1309C42.6953 11.7129 42.8301 11.2676 42.8301 10.7949C42.8301 10.3105 42.6914 9.93555 42.4141 9.66992C42.1367 9.4043 41.7422 9.27148 41.2305 9.27148C40.4805 9.27148 39.7617 9.5918 39.0742 10.2324V9.22461C39.7305 8.71289 40.4941 8.45703 41.3652 8.45703C42.1152 8.45703 42.7051 8.66016 43.1348 9.06641C43.5645 9.47266 43.7793 10.0176 43.7793 10.7012C43.7793 11.2402 43.6309 11.7676 43.334 12.2832C43.0371 12.7949 42.5039 13.4316 41.7344 14.1934L39.7949 16.1094V16.1328H43.7031V17ZM47.6992 17.1406C46.8672 17.1406 46.2168 16.7832 45.748 16.0684C45.2832 15.3535 45.0508 14.3203 45.0508 12.9688C45.0508 11.4844 45.293 10.3613 45.7773 9.59961C46.2656 8.83789 46.9688 8.45703 47.8867 8.45703C49.6445 8.45703 50.5234 9.89258 50.5234 12.7637C50.5234 14.1855 50.2754 15.2715 49.7793 16.0215C49.2832 16.7676 48.5898 17.1406 47.6992 17.1406ZM47.834 9.27148C46.6348 9.27148 46.0352 10.4883 46.0352 12.9219C46.0352 15.1953 46.623 16.332 47.7988 16.332C48.959 16.332 49.5391 15.1758 49.5391 12.8633C49.5391 10.4688 48.9707 9.27148 47.834 9.27148ZM56.6406 17H51.5781V16.1445L54.0273 13.6895C54.6523 13.0645 55.0977 12.5449 55.3633 12.1309C55.6328 11.7129 55.7676 11.2676 55.7676 10.7949C55.7676 10.3105 55.6289 9.93555 55.3516 9.66992C55.0742 9.4043 54.6797 9.27148 54.168 9.27148C53.418 9.27148 52.6992 9.5918 52.0117 10.2324V9.22461C52.668 8.71289 53.4316 8.45703 54.3027 8.45703C55.0527 8.45703 55.6426 8.66016 56.0723 9.06641C56.502 9.47266 56.7168 10.0176 56.7168 10.7012C56.7168 11.2402 56.5684 11.7676 56.2715 12.2832C55.9746 12.7949 55.4414 13.4316 54.6719 14.1934L52.7324 16.1094V16.1328H56.6406V17ZM63.2676 17H58.5156V16.1562H60.4141V9.62891L58.4688 10.209V9.29492L61.375 8.41016V16.1562H63.2676V17Z" fill="#002033"/>
<path fill-rule="evenodd" clip-rule="evenodd" d="M73.5 7C73.2239 7 73 7.22386 73 7.5V8H72C71.4477 8 71 8.44772 71 9V16C71 16.5523 71.4477 17 72 17H80C80.5523 17 81 16.5523 81 16V9C81 8.44772 80.5523 8 80 8H79V7.5C79 7.22386 78.7761 7 78.5 7C78.2239 7 78 7.22386 78 7.5V8H74V7.5C74 7.22386 73.7761 7 73.5 7ZM80 10H72L72 16H80V10Z" fill="#002033" fill-opacity="0.6"/>
<path d="M4 0.5H100.5V23.5H4C2.067 23.5 0.5 21.933 0.5 20V4C0.5 2.067 2.067 0.5 4 0.5Z" stroke="#004269" stroke-opacity="0.28"/>
</g>
<path d="M100 0H196C198.209 0 200 1.79086 200 4V20C200 22.2091 198.209 24 196 24H100V0Z" fill="white"/>
<path d="M112.783 17H108.031V16.1562H109.93V9.62891L107.984 10.209V9.29492L110.891 8.41016V16.1562H112.783V17ZM119.094 17H114.031V16.1445L116.48 13.6895C117.105 13.0645 117.551 12.5449 117.816 12.1309C118.086 11.7129 118.221 11.2676 118.221 10.7949C118.221 10.3105 118.082 9.93555 117.805 9.66992C117.527 9.4043 117.133 9.27148 116.621 9.27148C115.871 9.27148 115.152 9.5918 114.465 10.2324V9.22461C115.121 8.71289 115.885 8.45703 116.756 8.45703C117.506 8.45703 118.096 8.66016 118.525 9.06641C118.955 9.47266 119.17 10.0176 119.17 10.7012C119.17 11.2402 119.021 11.7676 118.725 12.2832C118.428 12.7949 117.895 13.4316 117.125 14.1934L115.186 16.1094V16.1328H119.094V17ZM121.244 17.1289C121.064 17.1289 120.91 17.0645 120.781 16.9355C120.656 16.8066 120.594 16.6523 120.594 16.4727C120.594 16.293 120.656 16.1387 120.781 16.0098C120.91 15.877 121.064 15.8105 121.244 15.8105C121.428 15.8105 121.584 15.877 121.713 16.0098C121.842 16.1387 121.906 16.293 121.906 16.4727C121.906 16.6523 121.842 16.8066 121.713 16.9355C121.584 17.0645 121.428 17.1289 121.244 17.1289ZM125.691 17.1406C124.859 17.1406 124.209 16.7832 123.74 16.0684C123.275 15.3535 123.043 14.3203 123.043 12.9688C123.043 11.4844 123.285 10.3613 123.77 9.59961C124.258 8.83789 124.961 8.45703 125.879 8.45703C127.637 8.45703 128.516 9.89258 128.516 12.7637C128.516 14.1855 128.268 15.2715 127.771 16.0215C127.275 16.7676 126.582 17.1406 125.691 17.1406ZM125.826 9.27148C124.627 9.27148 124.027 10.4883 124.027 12.9219C124.027 15.1953 124.615 16.332 125.791 16.332C126.951 16.332 127.531 15.1758 127.531 12.8633C127.531 10.4688 126.963 9.27148 125.826 9.27148ZM134.48 8.69727V9.60547C134.047 9.38281 133.59 9.27148 133.109 9.27148C132.363 9.27148 131.766 9.60352 131.316 10.2676C130.871 10.9316 130.648 11.8203 130.648 12.9336H130.672C131.062 12.1406 131.703 11.7441 132.594 11.7441C133.328 11.7441 133.912 11.9805 134.346 12.4531C134.779 12.9219 134.996 13.5508 134.996 14.3398C134.996 15.1641 134.748 15.8379 134.252 16.3613C133.756 16.8809 133.125 17.1406 132.359 17.1406C131.516 17.1406 130.854 16.8047 130.373 16.1328C129.893 15.4609 129.652 14.5176 129.652 13.3027C129.652 11.8301 129.967 10.6543 130.596 9.77539C131.225 8.89648 132.055 8.45703 133.086 8.45703C133.672 8.45703 134.137 8.53711 134.48 8.69727ZM132.383 12.5586C131.887 12.5586 131.484 12.7266 131.176 13.0625C130.867 13.3984 130.713 13.7949 130.713 14.252C130.713 14.8262 130.865 15.3164 131.17 15.7227C131.479 16.1289 131.887 16.332 132.395 16.332C132.879 16.332 133.27 16.1562 133.566 15.8047C133.863 15.4492 134.012 15 134.012 14.457C134.012 13.8633 133.869 13.3984 133.584 13.0625C133.299 12.7266 132.898 12.5586 132.383 12.5586ZM136.783 17.1289C136.604 17.1289 136.449 17.0645 136.32 16.9355C136.195 16.8066 136.133 16.6523 136.133 16.4727C136.133 16.293 136.195 16.1387 136.32 16.0098C136.449 15.877 136.604 15.8105 136.783 15.8105C136.967 15.8105 137.123 15.877 137.252 16.0098C137.381 16.1387 137.445 16.293 137.445 16.4727C137.445 16.6523 137.381 16.8066 137.252 16.9355C137.123 17.0645 136.967 17.1289 136.783 17.1289ZM143.703 17H138.641V16.1445L141.09 13.6895C141.715 13.0645 142.16 12.5449 142.426 12.1309C142.695 11.7129 142.83 11.2676 142.83 10.7949C142.83 10.3105 142.691 9.93555 142.414 9.66992C142.137 9.4043 141.742 9.27148 141.23 9.27148C140.48 9.27148 139.762 9.5918 139.074 10.2324V9.22461C139.73 8.71289 140.494 8.45703 141.365 8.45703C142.115 8.45703 142.705 8.66016 143.135 9.06641C143.564 9.47266 143.779 10.0176 143.779 10.7012C143.779 11.2402 143.631 11.7676 143.334 12.2832C143.037 12.7949 142.504 13.4316 141.734 14.1934L139.795 16.1094V16.1328H143.703V17ZM147.699 17.1406C146.867 17.1406 146.217 16.7832 145.748 16.0684C145.283 15.3535 145.051 14.3203 145.051 12.9688C145.051 11.4844 145.293 10.3613 145.777 9.59961C146.266 8.83789 146.969 8.45703 147.887 8.45703C149.645 8.45703 150.523 9.89258 150.523 12.7637C150.523 14.1855 150.275 15.2715 149.779 16.0215C149.283 16.7676 148.59 17.1406 147.699 17.1406ZM147.834 9.27148C146.635 9.27148 146.035 10.4883 146.035 12.9219C146.035 15.1953 146.623 16.332 147.799 16.332C148.959 16.332 149.539 15.1758 149.539 12.8633C149.539 10.4688 148.971 9.27148 147.834 9.27148ZM156.641 17H151.578V16.1445L154.027 13.6895C154.652 13.0645 155.098 12.5449 155.363 12.1309C155.633 11.7129 155.768 11.2676 155.768 10.7949C155.768 10.3105 155.629 9.93555 155.352 9.66992C155.074 9.4043 154.68 9.27148 154.168 9.27148C153.418 9.27148 152.699 9.5918 152.012 10.2324V9.22461C152.668 8.71289 153.432 8.45703 154.303 8.45703C155.053 8.45703 155.643 8.66016 156.072 9.06641C156.502 9.47266 156.717 10.0176 156.717 10.7012C156.717 11.2402 156.568 11.7676 156.271 12.2832C155.975 12.7949 155.441 13.4316 154.672 14.1934L152.732 16.1094V16.1328H156.641V17ZM163.268 17H158.516V16.1562H160.414V9.62891L158.469 10.209V9.29492L161.375 8.41016V16.1562H163.268V17Z" fill="#002033"/>
<path fill-rule="evenodd" clip-rule="evenodd" d="M173.5 7C173.224 7 173 7.22386 173 7.5V8H172C171.448 8 171 8.44772 171 9V16C171 16.5523 171.448 17 172 17H180C180.552 17 181 16.5523 181 16V9C181 8.44772 180.552 8 180 8H179V7.5C179 7.22386 178.776 7 178.5 7C178.224 7 178 7.22386 178 7.5V8H174V7.5C174 7.22386 173.776 7 173.5 7ZM180 10H172L172 16H180V10Z" fill="#002033" fill-opacity="0.6"/>
<path d="M100.5 0.5H196C197.933 0.5 199.5 2.067 199.5 4V20C199.5 21.933 197.933 23.5 196 23.5H100.5V0.5Z" stroke="#004269" stroke-opacity="0.28"/>
<defs>
<clipPath id="clip0_61258_137692">
<rect width="100" height="24" fill="white"/>
</clipPath>
</defs>
</svg>
