<svg width="180" height="54" viewBox="0 0 180 54" fill="none" xmlns="http://www.w3.org/2000/svg">
<path d="M106.855 23.5028C107.558 20.0551 107.896 19.1946 108.61 18.4915C109.15 17.946 109.791 17.6929 110.719 17.6929C111.551 17.6929 112.204 17.946 112.603 18.4409C112.907 18.8234 113.081 19.4477 113.081 20.0382C113.081 20.28 113.081 20.4825 113.036 20.775H111.343C111.388 20.5331 111.388 20.3419 111.388 20.1338C111.388 19.622 111.214 19.2058 110.59 19.2058C110.241 19.2058 109.982 19.3183 109.774 19.5433C109.33 20.0045 109.122 20.6906 108.548 23.5028C108.261 24.9538 108.07 26.1349 108.07 26.8267C108.07 27.451 108.312 27.7997 108.885 27.7997C109.285 27.7997 109.555 27.6423 109.763 27.3835C110.016 27.0798 110.179 26.7142 110.291 26.2193H112.001C111.759 27.3667 111.411 28.0866 110.753 28.6602C110.258 29.0933 109.684 29.3127 108.728 29.3127C107.738 29.3127 107.131 28.9752 106.765 28.4015C106.478 27.9403 106.383 27.5241 106.383 26.838C106.383 26.1518 106.551 25.0495 106.855 23.5028Z" fill="#006FBA"/>
<path d="M115.876 19.3355H114.071L114.375 17.8169H119.678L119.375 19.3355H117.569L115.606 29.1836H113.913L115.876 19.3355Z" fill="#006FBA"/>
<path d="M120.955 17.8169H123.525C124.42 17.8169 124.948 17.9912 125.359 18.4074C125.741 18.7899 125.888 19.3523 125.888 19.9541C125.888 20.3535 125.854 20.7696 125.758 21.2815C125.201 24.0767 124.133 24.746 122.406 24.746H121.259L120.381 29.1836H118.688L120.955 17.8169ZM122.485 23.2331C123.362 23.2331 123.778 22.7213 124.065 21.2871C124.127 20.9665 124.195 20.584 124.195 20.2972C124.195 19.6617 123.942 19.3411 123.222 19.3411H122.344L121.562 23.2387H122.485V23.2331Z" fill="#006FBA"/>
<path d="M127.963 17.8169H132.496L132.192 19.3355H129.352L128.683 22.7044H131.124L130.82 24.2061H128.379L127.693 27.6707H130.533L130.229 29.1836H125.696L127.963 17.8169Z" fill="#006FBA"/>
<path d="M134.031 17.8169H135.561L136.456 23.6943L139.712 17.8169H141.247L138.981 29.1836H137.288L138.694 22.1307L136.332 26.647H135.387L134.875 22.097L133.458 29.1836H131.765L134.031 17.8169Z" fill="#006FBA"/>
<path d="M143.115 17.8169H144.808L143.435 24.6504L147.299 17.8169H148.739L146.467 29.1836H144.78L146.135 22.367L142.333 29.1836H140.848L143.115 17.8169Z" fill="#006FBA"/>
<path d="M150.606 17.8169H152.136L153.03 23.6943L156.287 17.8169H157.822L155.556 29.1836H153.863L155.269 22.1307L152.907 26.647H151.962L151.45 22.097L150.033 29.1836H148.34L150.606 17.8169Z" fill="#006FBA"/>
<path d="M158.272 23.5028C158.975 20.0551 159.307 19.1946 160.027 18.4915C160.567 17.946 161.208 17.6929 162.136 17.6929C162.969 17.6929 163.621 17.946 164.02 18.4409C164.324 18.8234 164.498 19.4477 164.498 20.0382C164.498 20.28 164.498 20.4825 164.453 20.775H162.76C162.805 20.5331 162.805 20.3419 162.805 20.1338C162.805 19.622 162.631 19.2058 162.007 19.2058C161.658 19.2058 161.399 19.3183 161.191 19.5433C160.747 20.0045 160.539 20.6906 159.96 23.5028C159.673 24.9538 159.481 26.1349 159.481 26.8267C159.481 27.451 159.723 27.7997 160.297 27.7997C160.696 27.7997 160.966 27.6423 161.174 27.3835C161.427 27.0798 161.591 26.7142 161.703 26.2193H163.413C163.171 27.3667 162.822 28.0866 162.17 28.6602C161.675 29.0933 161.101 29.3127 160.14 29.3127C159.15 29.3127 158.542 28.9752 158.177 28.4015C157.89 27.9403 157.794 27.5241 157.794 26.838C157.794 26.1518 157.969 25.0495 158.272 23.5028Z" fill="#006FBA"/>
<path d="M166.411 24.0767C165.769 23.6774 165.584 23.025 165.584 22.2713C165.584 21.9845 165.635 21.6302 165.724 21.169C166.281 18.4074 167.147 17.8169 169.144 17.8169H171.872L169.588 29.1836H167.895L168.852 24.4592H167.957L165.528 29.1836H163.677L166.411 24.0767ZM167.305 22.0464C167.305 22.7325 167.575 23.0025 168.261 23.0025H169.138L169.87 19.3298H168.958C168.081 19.3298 167.682 19.7798 167.412 21.1634C167.356 21.4727 167.305 21.7764 167.305 22.0464Z" fill="#006FBA"/>
<path d="M105.544 33.728H107.237L104.971 45.0947H103.278L105.544 33.728ZM106.169 39.2567L109.65 33.7337H111.534L107.924 39.2398L109.442 45.1004H107.592L106.169 39.2567Z" fill="#006FBA"/>
<path d="M115.606 33.728H120.617L120.314 35.2466H116.995L116.422 38.1543H117.316C118.21 38.1543 118.739 38.3456 119.15 38.7618C119.532 39.1442 119.678 39.6898 119.678 40.3085C119.678 40.7078 119.628 41.2196 119.549 41.6358C118.992 44.4311 117.918 45.1004 116.197 45.1004H113.34L115.606 33.728ZM116.275 43.5818C117.153 43.5818 117.552 43.0869 117.856 41.6358C117.918 41.3321 117.968 40.9328 117.968 40.629C117.968 39.9879 117.727 39.6729 117.012 39.6729H116.118L115.336 43.5818H116.275Z" fill="#006FBA"/>
<path d="M122.98 34.3858C123.536 33.8402 124.178 33.604 125.089 33.604C126.112 33.604 126.731 33.9527 127.085 34.5489C127.372 34.9932 127.468 35.3925 127.468 36.0674C127.468 36.7705 127.294 37.8728 126.973 39.4195C126.27 42.8841 125.966 43.7334 125.218 44.4476C124.678 44.9876 124.037 45.2294 123.126 45.2294C122.085 45.2294 121.467 44.8807 121.112 44.2902C120.842 43.8402 120.747 43.4409 120.747 42.7716C120.747 42.0686 120.921 40.9662 121.225 39.4195C121.945 35.9493 122.249 35.1001 122.98 34.3858ZM125.775 36.1068C125.775 35.5331 125.567 35.1169 124.931 35.1169C124.611 35.1169 124.358 35.2294 124.133 35.4544C123.716 35.8706 123.48 36.6186 122.918 39.4139C122.631 40.8481 122.423 42.0461 122.423 42.721C122.423 43.2947 122.631 43.7109 123.272 43.7109C123.593 43.7109 123.846 43.5984 124.071 43.3734C124.487 42.9572 124.723 42.2092 125.286 39.4139C125.567 37.9741 125.775 36.7761 125.775 36.1068Z" fill="#006FBA"/>
<path d="M126.72 43.5815H126.877C127.805 43.5815 128.407 43.0079 129.003 40.0382L130.28 33.7334H135.421L133.154 45.1001H131.444L133.407 35.2463H131.602L130.629 40.1001C129.768 44.4421 128.891 45.1001 126.922 45.1001H126.411L126.72 43.5815Z" fill="#006FBA"/>
<path d="M137.288 33.728H138.981L138.104 38.1487H138.998C139.892 38.1487 140.421 38.34 140.831 38.7561C141.214 39.1386 141.36 39.6842 141.36 40.3028C141.36 40.7022 141.309 41.214 141.231 41.6302C140.674 44.4254 139.6 45.0947 137.879 45.0947H135.021L137.288 33.728ZM137.957 43.5818C138.835 43.5818 139.234 43.0869 139.538 41.6358C139.6 41.3321 139.65 40.9328 139.65 40.629C139.65 39.9879 139.408 39.6729 138.694 39.6729H137.8L137.018 43.5818H137.957Z" fill="#006FBA"/>
<path d="M144.346 33.728H146.039L144.076 43.5818H145.944L147.907 33.728H149.6L147.637 43.5818H149.504L151.467 33.728H153.16L150.893 45.0947H142.08L144.346 33.728Z" fill="#006FBA"/>
<path d="M155.044 33.728H159.577L159.273 35.2466H156.433L155.758 38.6155H158.205L157.901 40.1172H155.455L154.774 43.5818H157.614L157.311 45.0947H152.777L155.044 33.728Z" fill="#006FBA"/>
<path d="M161.107 33.728H162.642L163.537 39.6054L166.793 33.728H168.329L166.056 45.0947H164.369L165.769 38.0419L163.407 42.5582H162.468L161.956 38.0081L160.533 45.0947H158.84L161.107 33.728Z" fill="#006FBA"/>
<path d="M167.991 43.5815C168.93 43.5815 169.346 43.3285 169.729 42.4173L170.173 41.3937L169.358 33.7334H171.084L171.388 39.099L173.829 33.7334H175.634L171.034 42.9123C170.156 44.667 169.791 45.1001 167.698 45.1001L167.991 43.5815Z" fill="#006FBA"/>
<path d="M175.095 43.1487H176.928L176.546 45.0947H174.712L175.095 43.1487ZM176.979 33.728H178.801L177.108 41.9339H175.511L176.979 33.728Z" fill="#006FBA"/>
<path fill-rule="evenodd" clip-rule="evenodd" d="M68.036 29.7739C68.351 29.7739 68.6153 29.5321 68.6153 29.234V29.2171V20.072V20.0326L68.6097 19.9876C68.5816 19.7233 68.3341 19.5096 68.0304 19.5096C67.7267 19.5096 67.4904 19.7233 67.4567 19.9876V20.0326V20.072V29.2171L67.4511 29.234C67.4511 29.5321 67.7154 29.7739 68.036 29.7739ZM69.1159 17.8166C70.9494 17.8166 71.0675 19.3015 71.0675 20.252V29.0202C71.0675 29.9764 70.955 31.4612 69.1159 31.4612H66.9505C65.117 31.4612 65.0045 29.9764 65.0045 29.0202V20.252C65.0045 19.2958 65.117 17.8166 66.9505 17.8166H69.1159ZM28.2778 17.8166H33.2778V19.5096H30.8988V31.4556H28.2778V17.8166ZM35.027 17.8166H39.144L40.5107 31.4556H37.9516L37.7098 27.8279H36.4724L36.225 31.4556H33.6659L35.027 17.8166ZM37.6085 26.3318L37.1586 19.5096H37.0124L36.5568 26.3318H37.6085ZM44.2677 26.6805V29.2452C44.2677 29.5996 44.5264 29.6952 44.6783 29.6952C44.9201 29.6952 45.0889 29.4814 45.0889 29.2452V26.0787C45.0889 25.6513 45.0158 25.1845 44.0427 25.1845H42.9798V23.6828H44.0821C44.8301 23.6828 45.0945 23.5028 45.0945 22.6704V19.9595C45.0945 19.7233 44.9258 19.5096 44.6839 19.5096C44.5321 19.5096 44.2733 19.6052 44.2733 19.9595V22.1811H41.6468V20.252C41.6468 19.2958 41.7649 17.8166 43.5928 17.8166H45.7638C47.5973 17.8166 47.7098 19.3015 47.7098 20.252V22.4398C47.7098 23.919 46.7143 24.324 45.9269 24.2846V24.4252C47.6873 24.3802 47.7098 25.7863 47.7098 26.2756V29.0202C47.7098 29.9764 47.5973 31.4612 45.7638 31.4612H43.5928C41.7593 31.4612 41.6468 29.9764 41.6468 29.0202V26.6805H44.2677ZM49.4308 17.8166H55.4994V31.4556H53.0529V19.5096H51.8774V31.4556H49.4365V17.8166H49.4308ZM57.3948 17.8166H61.5118C63.3453 17.8166 63.6378 19.3015 63.6378 20.252V24.3802C63.6378 25.3363 63.3453 26.8211 61.5118 26.8211H60.0158V31.4556H57.3948V17.8166ZM60.7019 25.3195C60.9888 25.3195 61.1912 25.0664 61.1912 24.6389V20.1957C61.1912 19.7683 60.9888 19.5152 60.7019 19.5152H60.0101V25.3251H60.7019V25.3195ZM79.4252 17.8166H82.8335V31.4556H80.2126V22.901H80.1226L78.7728 31.4556H76.6749L75.3307 22.901H75.2407V31.4556H72.6142V17.8166H76.0169L77.7154 27.4004L79.4252 17.8166ZM22.6929 19.2058C22.721 17.8223 22.5861 15.4769 21.9111 13.0247C21.2362 10.5726 19.9201 8.23847 19.7289 7.94038C19.5377 8.24409 18.4972 10.1339 17.5804 13.0979C17.3386 13.9865 16.9055 15.9156 16.8268 17.7941C16.7368 20.072 17.0461 22.333 17.1699 22.9741C17.1699 22.2205 17.1867 19.7064 17.6535 17.631C18.1204 15.5501 19.009 13.1597 19.7289 11.9449C20.5107 13.2272 21.4893 15.9888 21.8324 17.6423C22.1811 19.3015 22.3611 21.4162 22.288 22.9179C22.4961 22.0461 22.6592 20.5838 22.6929 19.2058ZM19.7402 29.7908C20.162 29.009 20.8875 27.2936 20.82 25.117C20.73 22.8954 19.982 21.2643 19.7514 20.8763C19.4927 21.2643 18.6209 23.1316 18.6378 25.3195C18.7053 27.5636 19.3352 29.0259 19.7402 29.7908ZM22.9291 13.0529C23.7503 16.6749 23.739 18.9021 23.3791 21.4443C22.7323 26.0169 20.6513 29.5152 19.7514 30.6907C19.1327 29.892 18.1879 28.2666 17.5579 26.7537C17.5579 26.7537 16.3656 23.8684 16.0506 21.0562C15.7357 18.2441 15.8706 15.3813 16.7874 12.1642C17.6367 9.27334 19.2902 6.67492 19.7402 6C20.027 6.47807 22.1024 9.43082 22.9291 13.0529ZM24.6277 31.4556V40.7863C22.1361 43.4353 18.5928 45.0945 14.6614 45.0945C7.11924 45.1001 1 39.0034 1 31.4893C1 23.9809 7.11924 17.8898 14.6614 17.8898V28.1204C12.6985 28.1204 10.7357 28.8684 9.2396 30.3588C8.87964 30.7132 8.5703 31.0956 8.30034 31.4949C6.29246 34.4646 6.6018 38.5366 9.2396 41.1631C10.7357 42.6479 12.6985 43.4016 14.6614 43.4016C16.613 43.4016 18.5703 42.6648 20.0664 41.18C20.072 41.1687 20.0832 41.1687 20.0889 41.1631V41.1519L20.1114 41.135C21.613 39.6445 21.613 37.2148 20.1114 35.73C18.6097 34.234 16.18 34.234 14.6839 35.73C14.6727 35.7357 14.667 35.7357 14.667 35.7469V31.4612H24.6277V31.4556ZM80.387 41.2643C80.387 40.0776 79.8864 39.7627 78.5253 39.7627H78.2947V37.4792H76.9111V43.4016H78.2947C79.7964 43.4016 80.387 43.171 80.387 41.8718V41.2643ZM68.8459 37.4736H65.3645V38.5984H66.4893V43.4072H67.8054V38.5984H68.8515V37.4736H68.8459ZM58.2047 39.4364C58.2047 38.2272 57.6142 37.9179 56.2306 37.9179V37.4736H54.8864V37.9179C53.4972 37.9179 52.9066 38.2272 52.9066 39.4364V41.2868C52.9066 42.4904 53.5253 42.811 54.8864 42.811V43.3959H56.2306V42.811C57.5917 42.811 58.2047 42.4904 58.2047 41.2868V39.4364ZM45.6682 37.4736H42.3498V43.4072H45.6682V42.2823H43.7784V40.8875H45.4713V39.7627H43.7784V38.5928H45.6682V37.4736ZM34.2002 37.4792H32.8166V39.7627H32.108V37.4792H30.7244V43.4016H32.108V40.8088H32.8166V43.4016H34.2002V37.4792ZM82.8335 45.1001H28.2778V36H82.8335V45.1001ZM54.2508 39.3971C54.2508 39.054 54.3633 38.964 54.667 38.964H54.892V41.7199H54.667C54.3633 41.7199 54.2508 41.6412 54.2508 41.2925V39.3971ZM78.5984 40.8088C78.9078 40.8088 79.0034 40.8875 79.0034 41.225V41.9393C79.0034 42.2767 78.9078 42.3555 78.5984 42.3555H78.2891V40.8088H78.5984ZM56.4499 38.964C56.7593 38.964 56.8661 39.0315 56.8661 39.3858V41.2925C56.8661 41.6412 56.7593 41.7255 56.4499 41.7255H56.2306V38.9696H56.4499" fill="#006FBA"/>
<path fill-rule="evenodd" clip-rule="evenodd" d="M79.4253 17.8169H82.8336V31.4614H80.2127V22.9069H80.1227L78.7729 31.4614H76.675L75.3308 22.9069H75.2408V31.4614H72.6143V17.8169H76.017L77.7155 27.4063L79.4253 17.8169Z" fill="#006FBA"/>
<path d="M93.0583 16.9224L95.9605 31.4612L93.0583 46H94.3969L97.2991 31.4612L94.3969 16.9224H93.0583Z" fill="#006FBA"/>
</svg>
