<svg width="84" height="40" viewBox="0 0 84 40" fill="none" xmlns="http://www.w3.org/2000/svg">
<path fill-rule="evenodd" clip-rule="evenodd" d="M68.4466 24.3211C68.7682 24.3211 69.0381 24.0736 69.0381 23.7687V23.7514V14.3959V14.3556L69.0324 14.3096C69.0037 14.0391 68.751 13.8205 68.4409 13.8205C68.1308 13.8205 67.8896 14.0391 67.8551 14.3096V14.3556V14.3959V23.7514L67.8494 23.7687C67.8494 24.0736 68.1193 24.3211 68.4466 24.3211ZM69.5492 12.0886C71.4213 12.0886 71.5419 13.6076 71.5419 14.58V23.5501C71.5419 24.5282 71.4271 26.0472 69.5492 26.0472H67.3383C65.4662 26.0472 65.3513 24.5282 65.3513 23.5501V14.58C65.3513 13.6018 65.4662 12.0886 67.3383 12.0886H69.5492ZM27.8519 12.0886H32.9571V13.8205H30.5279V26.0414H27.8519V12.0886ZM34.743 12.0886H38.9467L40.3421 26.0414H37.7292L37.4823 22.3303H36.2189L35.9662 26.0414H33.3533L34.743 12.0886ZM37.3789 20.7998L36.9195 13.8205H36.7702L36.305 20.7998H37.3789ZM44.1782 21.1565V23.7802C44.1782 24.1427 44.4424 24.2405 44.5974 24.2405C44.8444 24.2405 45.0166 24.0219 45.0166 23.7802V20.5409C45.0166 20.1036 44.942 19.626 43.9485 19.626H42.8631V18.0898H43.9887C44.7525 18.0898 45.0224 17.9056 45.0224 17.0541V14.2808C45.0224 14.0391 44.8501 13.8205 44.6032 13.8205C44.4481 13.8205 44.1839 13.9183 44.1839 14.2808V16.5535H41.5021V14.58C41.5021 13.6018 41.6227 12.0886 43.4891 12.0886H45.7057C47.5779 12.0886 47.6927 13.6076 47.6927 14.58V16.8182C47.6927 18.3314 46.6763 18.7457 45.8723 18.7054V18.8493C47.6697 18.8032 47.6927 20.2417 47.6927 20.7422V23.5501C47.6927 24.5282 47.5779 26.0472 45.7057 26.0472H43.4891C41.617 26.0472 41.5021 24.5282 41.5021 23.5501V21.1565H44.1782ZM49.45 12.0886H55.6463V26.0414H53.1482V13.8205H51.948V26.0414H49.4557V12.0886H49.45ZM57.5815 12.0886H61.7852C63.6573 12.0886 63.9559 13.6076 63.9559 14.58V18.8032C63.9559 19.7814 63.6573 21.3003 61.7852 21.3003H60.2576V26.0414H57.5815V12.0886ZM60.9582 19.7641C61.2511 19.7641 61.4578 19.5052 61.4578 19.0679V14.5224C61.4578 14.0852 61.2511 13.8262 60.9582 13.8262H60.2519V19.7698H60.9582V19.7641ZM80.0755 12.0886H83.5556V26.0414H80.8795V17.29H80.7876L79.4094 26.0414H77.2673L75.8949 17.29H75.803V26.0414H73.1212V12.0886H76.5955L78.3297 21.893L80.0755 12.0886ZM22.1494 13.5098C22.1781 12.0944 22.0403 9.69505 21.3512 7.18642C20.6621 4.67779 19.3183 2.28999 19.123 1.98504C18.9278 2.29574 17.8654 4.229 16.9293 7.26122C16.6824 8.17031 16.2402 10.1438 16.1598 12.0656C16.0679 14.3959 16.3838 16.7089 16.5101 17.3648C16.5101 16.5938 16.5273 14.0219 17.004 11.8987C17.4806 9.76985 18.388 7.32451 19.123 6.0817C19.9213 7.39356 20.9205 10.2186 21.2708 11.9102C21.6268 13.6076 21.8106 15.771 21.7359 17.3073C21.9484 16.4154 22.1149 14.9194 22.1494 13.5098ZM19.1345 24.3383C19.5652 23.5386 20.306 21.7837 20.2371 19.557C20.1452 17.2842 19.3814 15.6157 19.146 15.2186C18.8818 15.6157 17.9917 17.5259 18.0089 19.7641C18.0779 22.0598 18.721 23.5558 19.1345 24.3383ZM22.3906 7.21519C23.229 10.9206 23.2175 13.1991 22.85 15.7998C22.1896 20.4776 20.0648 24.0564 19.146 25.2589C18.5143 24.4419 17.5495 22.7791 16.9064 21.2313C16.9064 21.2313 15.6889 18.2796 15.3673 15.4028C15.0457 12.5259 15.1836 9.59724 16.1196 6.3061C16.9868 3.34868 18.6751 0.690449 19.1345 0C19.4274 0.489068 21.5464 3.50978 22.3906 7.21519ZM24.1249 26.0414V35.5869C21.5809 38.2969 17.963 39.9942 13.9489 39.9942C6.248 40 0 33.7629 0 26.076C0 18.3947 6.248 12.1634 13.9489 12.1634V22.6295C11.9447 22.6295 9.94053 23.3947 8.41298 24.9194C8.04545 25.2819 7.72961 25.6732 7.45396 26.0817C5.40383 29.1197 5.71968 33.2854 8.41298 35.9724C9.94053 37.4914 11.9447 38.2624 13.9489 38.2624C15.9416 38.2624 17.94 37.5086 19.4676 35.9896C19.4733 35.9781 19.4848 35.9781 19.4906 35.9724V35.9609L19.5135 35.9436C21.0468 34.4189 21.0468 31.9333 19.5135 30.4143C17.9802 28.8838 15.4994 28.8838 13.9719 30.4143C13.9604 30.42 13.9546 30.42 13.9546 30.4315V26.0472H24.1249V26.0414ZM81.0575 36.076C81.0575 34.8619 80.5464 34.5397 79.1567 34.5397H78.9212V32.2037H77.5085V38.2624H78.9212C80.4545 38.2624 81.0575 38.0265 81.0575 36.6974V36.076ZM69.2736 32.1979H65.7189V33.3487H66.8674V38.2681H68.2112V33.3487H69.2793V32.1979H69.2736ZM58.4085 34.206C58.4085 32.9689 57.8055 32.6525 56.3928 32.6525V32.1979H55.0203V32.6525C53.6019 32.6525 52.9989 32.9689 52.9989 34.206V36.099C52.9989 37.3303 53.6306 37.6582 55.0203 37.6582V38.2566H56.3928V37.6582C57.7825 37.6582 58.4085 37.3303 58.4085 36.099V34.206ZM45.6081 32.1979H42.22V38.2681H45.6081V37.1174H43.6786V35.6904H45.4071V34.5397H43.6786V33.3429H45.6081V32.1979ZM33.8989 32.2037H32.4862V34.5397H31.7626V32.2037H30.3499V38.2624H31.7626V35.6099H32.4862V38.2624H33.8989V32.2037ZM83.5556 40H27.8519V30.6904H83.5556V40ZM54.3714 34.1657C54.3714 33.8147 54.4863 33.7227 54.7964 33.7227H55.0261V36.542H54.7964C54.4863 36.542 54.3714 36.4614 54.3714 36.1047V34.1657ZM79.2313 35.6099C79.5472 35.6099 79.6448 35.6905 79.6448 36.0357V36.7664C79.6448 37.1116 79.5472 37.1922 79.2313 37.1922H78.9155V35.6099H79.2313ZM56.6168 33.7227C56.9326 33.7227 57.0417 33.7917 57.0417 34.1542V36.1047C57.0417 36.4614 56.9326 36.5478 56.6168 36.5478H56.3928V33.7284H56.6168" fill="#006FBA"/>
</svg>
